<svg width="20" height="33" viewBox="0 0 20 33" fill="none" xmlns="http://www.w3.org/2000/svg">
<path fill-rule="evenodd" clip-rule="evenodd" d="M11.5779 11.8235L17.3668 8.44662V15.2004L11.5779 11.8235ZM17.3668 26.2959L9.64824 30.7984L1.92965 26.2959V18.4165L9.64824 22.919L17.3668 18.4165V26.2959ZM1.92965 8.44662L7.71859 11.8235L1.92965 15.2004V8.44662ZM10.6131 13.4315L16.402 16.8084L10.6131 20.1853V13.4315ZM8.68342 20.1853L2.89447 16.8084L8.68342 13.4315V20.1853ZM16.402 6.83858L9.64824 10.6979L2.89447 6.83858L9.64824 2.81848L16.402 6.83858ZM0 6.19536V27.2607L9.64824 32.728L19.2965 27.2607V6.19536L9.64824 0.728027L0 6.19536Z" fill="#13B5EC"/>
</svg>
