<svg width="30" height="33" viewBox="0 0 30 33" fill="none" xmlns="http://www.w3.org/2000/svg">
<path d="M1.89209 10.4557V22.9997C1.89209 23.8061 2.31449 24.5357 3.01849 24.9453L13.8857 31.2173C14.5769 31.6141 15.4345 31.6141 16.1257 31.2173L26.9929 24.9453C27.6841 24.5485 28.1193 23.8061 28.1193 22.9997V10.4557C28.1193 9.64929 27.6969 8.91969 26.9929 8.51009L16.1257 2.23809C15.4345 1.84129 14.5769 1.84129 13.8857 2.23809L3.01849 8.51009C2.32729 8.90689 1.90489 9.64929 1.90489 10.4557H1.89209Z" fill="#213147"/>
<path d="M17.3675 19.1596L15.8187 23.4092C15.7803 23.5244 15.7803 23.6524 15.8187 23.7804L18.4811 31.0892L21.5659 29.31L17.8667 19.1596C17.7771 18.9292 17.4571 18.9292 17.3675 19.1596Z" fill="#12AAFF"/>
<path d="M20.4784 12.0178C20.3888 11.7874 20.0688 11.7874 19.9792 12.0178L18.4304 16.2674C18.392 16.3826 18.392 16.5106 18.4304 16.6386L22.7952 28.6066L25.88 26.8274L20.4784 12.0306V12.0178Z" fill="#12AAFF"/>
<path d="M14.9997 2.71203C15.0765 2.71203 15.1533 2.73763 15.2173 2.77603L26.9677 9.56003C27.1085 9.63683 27.1853 9.79043 27.1853 9.94403V23.512C27.1853 23.6656 27.0957 23.8192 26.9677 23.896L15.2173 30.68C15.1533 30.7184 15.0765 30.744 14.9997 30.744C14.9229 30.744 14.8461 30.7184 14.7821 30.68L3.03166 23.896C2.89086 23.8192 2.81406 23.6656 2.81406 23.512V9.93123C2.81406 9.77763 2.90366 9.62403 3.03166 9.54723L14.7821 2.76323C14.8461 2.72483 14.9229 2.69923 14.9997 2.69923V2.71203ZM14.9997 0.728027C14.5773 0.728027 14.1677 0.830427 13.7837 1.04803L2.03326 7.83203C1.27806 8.26723 0.817261 9.06083 0.817261 9.93123V23.4992C0.817261 24.3696 1.27806 25.1632 2.03326 25.5984L13.7837 32.3824C14.1549 32.6 14.5773 32.7024 14.9997 32.7024C15.4221 32.7024 15.8317 32.6 16.2157 32.3824L27.9661 25.5984C28.7213 25.1632 29.1821 24.3696 29.1821 23.4992V9.93123C29.1821 9.06083 28.7213 8.26723 27.9661 7.83203L16.2029 1.04803C15.8317 0.830427 15.4093 0.728027 14.9869 0.728027H14.9997Z" fill="#9DCCED"/>
<path d="M7.21777 28.6193L8.30577 25.6497L10.4818 27.4545L8.44657 29.3233L7.21777 28.6193Z" fill="#213147"/>
<path d="M14.0015 8.97215H11.0191C10.8015 8.97215 10.5967 9.11295 10.5199 9.31775L4.13269 26.8282L7.21749 28.6074L14.2575 9.31775C14.3215 9.13855 14.1935 8.95935 14.0143 8.95935L14.0015 8.97215Z" fill="white"/>
<path d="M19.2236 8.97203H16.2412C16.0236 8.97203 15.8188 9.11283 15.742 9.31763L8.44604 29.3112L11.5308 31.0904L19.4668 9.31763C19.5308 9.13843 19.4028 8.95923 19.2236 8.95923V8.97203Z" fill="white"/>
</svg>
