<svg width="32" height="33" viewBox="0 0 32 33" fill="none" xmlns="http://www.w3.org/2000/svg">
<path d="M16 32.728C24.8366 32.728 32 25.5646 32 16.728C32 7.89147 24.8366 0.728027 16 0.728027C7.16344 0.728027 0 7.89147 0 16.728C0 25.5646 7.16344 32.728 16 32.728Z" fill="#988430"/>
<path d="M16.0001 32.2155C24.5536 32.2155 31.4875 25.2815 31.4875 16.728C31.4875 8.17452 24.5536 1.24054 16.0001 1.24054C7.44656 1.24054 0.512573 8.17452 0.512573 16.728C0.512573 25.2815 7.44656 32.2155 16.0001 32.2155Z" fill="#7A6A2A"/>
<path d="M16 31.8892C24.3733 31.8892 31.1612 25.1013 31.1612 16.728C31.1612 8.35472 24.3733 1.56683 16 1.56683C7.62676 1.56683 0.838867 8.35472 0.838867 16.728C0.838867 25.1013 7.62676 31.8892 16 31.8892Z" fill="#BA9F33"/>
<path fill-rule="evenodd" clip-rule="evenodd" d="M6.99549 15.0193C6.90486 14.9365 6.80912 14.8536 6.72106 14.7708C6.63299 14.688 6.54254 14.6051 6.45191 14.5223L6.1826 14.2663C6.13857 14.2223 6.09198 14.1835 6.04795 14.1393C6.00391 14.1006 5.9522 14.0565 5.90817 14.0176C5.55079 13.6785 5.19137 13.3394 4.83894 13.0001C5.204 13.3341 5.56138 13.6657 5.92643 14.0047L6.05324 14.1316C6.09727 14.1755 6.14386 14.2144 6.18789 14.2584L6.45703 14.5069C6.54766 14.5897 6.63572 14.6727 6.72635 14.7629C6.81697 14.8532 6.90503 14.9363 6.99566 15.0189L6.99549 15.0193ZM2.25249 14.9681C2.25249 14.9681 3.55212 15.1026 4.18648 15.1932C4.77409 15.2761 6.61234 15.5582 6.61234 15.5582L2.25249 14.9681ZM2.25249 14.9681C2.61755 14.9991 2.9826 15.0379 3.34766 15.0768C3.53403 15.0949 3.71271 15.1155 3.8914 15.1336L4.16566 15.1649C4.25629 15.1777 4.34435 15.1906 4.43498 15.2036L5.52246 15.377L6.06604 15.4676C6.24472 15.4987 6.42341 15.5325 6.60978 15.5635C6.43109 15.5454 6.24472 15.5195 6.06604 15.4936L5.52246 15.4159L4.43498 15.2555C4.34435 15.2425 4.25629 15.2243 4.16566 15.2115L3.89123 15.1799C3.71254 15.1618 3.52618 15.1358 3.34749 15.115C2.98243 15.0712 2.61738 15.0244 2.25232 14.9676L2.25249 14.9681ZM6.48298 15.8968C6.48298 15.8968 5.09528 16.2491 4.62663 16.3838C4.16583 16.5106 2.77029 16.9352 2.77029 16.9352L6.4828 15.897L6.48298 15.8968Z" fill="#CFB66C"/>
<path fill-rule="evenodd" clip-rule="evenodd" d="M6.48274 15.8969C6.17469 15.9875 5.86834 16.0755 5.55585 16.1585L4.62896 16.407C4.32091 16.4976 4.01456 16.5857 3.70736 16.6763L3.24656 16.8031C3.09381 16.8471 2.93851 16.8859 2.78064 16.9301C2.93322 16.8789 3.08869 16.8265 3.24144 16.7824L3.70224 16.635C4.01029 16.5391 4.31664 16.4484 4.62384 16.3527C4.93701 16.275 5.24524 16.1921 5.55841 16.117C5.85605 16.0419 6.1694 15.967 6.48274 15.897V15.8969ZM2.96445 17.7895C3.11702 17.7325 4.87762 16.912 5.28671 16.7203C5.49151 16.6244 6.08679 16.4131 6.08679 16.4131L2.96445 17.7895Z" fill="#CFB66C"/>
<path fill-rule="evenodd" clip-rule="evenodd" d="M2.96453 17.7896C3.09901 17.7384 3.22599 17.6758 3.35535 17.6162L3.7385 17.4375L4.50752 17.0673C4.76352 16.9457 5.01236 16.8113 5.27638 16.697C5.41103 16.6402 5.54569 16.5936 5.68017 16.5495L5.88497 16.4849C5.95478 16.4668 6.01963 16.4459 6.08977 16.4279C5.83377 16.5495 5.56429 16.6531 5.30795 16.7721C5.05195 16.8991 4.79015 17.0027 4.52596 17.1165L3.74413 17.4607C3.48165 17.5671 3.22565 17.6809 2.96436 17.7896H2.96453ZM3.13519 18.5064C3.13519 18.5064 4.7299 17.5718 5.27877 17.2715C5.56617 17.111 6.49562 16.6501 6.49562 16.6501L3.13519 18.5064Z" fill="#CFB66C"/>
<path fill-rule="evenodd" clip-rule="evenodd" d="M3.13538 18.5067C3.40452 18.341 3.67895 18.1727 3.95338 18.0019L4.36298 17.7532C4.50276 17.6705 4.63741 17.5928 4.77992 17.51C4.9197 17.4271 5.05435 17.3443 5.19669 17.2667C5.26445 17.2248 5.33544 17.1885 5.409 17.1579L5.62643 17.0492C5.91383 16.9095 6.20123 16.7669 6.50417 16.6453C6.22973 16.8188 5.94745 16.9665 5.66534 17.119C5.52556 17.1967 5.38306 17.2667 5.24328 17.3443C5.1035 17.422 4.96885 17.5049 4.82634 17.58C4.68657 17.6628 4.55191 17.7404 4.40957 17.8155L3.98751 18.0459L3.13572 18.5067H3.13538ZM6.48283 16.8548C6.48283 16.8548 5.49126 17.616 5.17023 17.8594C4.84921 18.1028 3.90423 18.7863 3.90423 18.7863L6.48283 16.8548Z" fill="#CFB66C"/>
<path fill-rule="evenodd" clip-rule="evenodd" d="M12.1735 22.9934L11.6661 22.0329L11.9612 20.8316L14.0661 20.0187L13.1702 18.1806L13.6129 16.3243L14.4441 14.662L17.0124 14.2582L18.8997 12.4589L22.9749 12.7669L23.7748 17.1242L22.2343 22.6103L21.3568 25.4505L17.7994 25.5852L16.1477 24.4409L14.2137 23.6329L12.1735 22.9934Z" fill="#E2CC85"/>
<path fill-rule="evenodd" clip-rule="evenodd" d="M18.413 22.9623C18.413 22.9623 17.921 23.1876 17.0818 23.1357C16.839 22.8096 15.1381 22.6568 15.1381 22.6568C15.1381 22.6568 14.9258 22.5921 14.5503 22.7474C14.1725 22.901 13.8151 22.8821 13.4811 22.9649C13.1471 23.0476 12.8155 22.6128 12.5595 22.5222C12.3035 22.4264 11.964 22.196 11.964 22.196L11.2472 22.126L9.80783 21.5176L7.52106 19.2394L6.89967 20.2122L6.70801 21.4161L7.39938 22.8427L9.26084 24.5384L12.8906 25.46L15.042 24.8262L17.7372 23.687L18.413 22.9621V22.9623Z" fill="#F1D789"/>
<path fill-rule="evenodd" clip-rule="evenodd" d="M5.51718 14.9105L5.97798 13.5152L6.52702 12.6141L8.29513 12.4664L7.76435 14.0147L6.28621 16.6452L6.89975 18.9934L5.81244 19.537L5.47827 19.0245L5.20913 17.8491L5.19104 16.5286L5.51718 14.9105Z" fill="#F4ECB4"/>
<path fill-rule="evenodd" clip-rule="evenodd" d="M7.50025 22.8666L7.16114 22.3928C7.16114 22.3928 7.07051 22.1675 7.12239 21.9708C7.17359 21.7714 7.16626 21.7585 7.14049 21.6834C7.11472 21.6083 6.89712 21.3494 6.91009 21.1267C6.92289 20.9014 6.892 20.8263 7.05754 20.6478C7.23094 20.4744 7.17923 20.174 7.17923 20.174L7.40451 20.3138L7.45571 20.2361C7.45571 20.2361 7.53848 20.3008 7.53848 20.4018C7.55657 20.2621 7.48148 19.6147 7.65232 19.4673C7.82315 19.3198 8.12609 20.1585 8.12609 20.1585L7.93972 18.9416L7.46066 17.6939L6.60886 16.5547L6.55766 15.2989V15.1902C6.55766 15.1902 6.16666 15.7909 6.05795 16.2654C5.98029 16.5915 6.16666 16.9876 6.12792 17.4563C6.09669 17.9224 6.05795 17.886 6.17178 18.0707C6.28562 18.2554 6.56278 18.6351 6.45406 18.9095C6.35832 19.1452 6.03201 18.9795 6.03201 18.9795C6.03201 18.9795 5.96732 19.171 5.87926 19.241C5.8482 19.1271 5.81458 19.0546 5.75245 18.985C5.74716 19.029 5.73436 19.0886 5.73436 19.0886C5.73436 19.0886 5.67736 18.9099 5.62036 18.6846C5.54288 18.3844 5.45993 17.9883 5.38484 17.776C5.35378 17.8976 5.27612 18.2678 5.27612 18.2678L5.32016 18.8375L5.53246 19.6193L5.73726 20.1313L5.9366 20.7578L6.10983 21.1787L6.24961 21.4997L6.37129 22.2222L6.9589 22.8434L7.27224 22.9833L7.49991 22.8668L7.50025 22.8666Z" fill="#F3E19D"/>
<path fill-rule="evenodd" clip-rule="evenodd" d="M5.82522 13.7714C5.82522 13.7714 5.40316 14.4882 5.28165 15.2108C5.16013 15.9334 5.05125 16.697 5.12805 17.6807C5.2057 18.6724 5.35333 19.2807 5.47245 19.7157C5.67725 20.4382 6.20769 21.4427 6.20769 21.4427L6.22578 21.4038C6.13662 21.2348 6.06546 21.0569 6.01347 20.873C5.94349 20.5986 5.91755 20.2724 5.85287 20.1248C5.79587 19.9774 5.70012 19.8504 5.65353 19.6691C5.6095 19.4957 5.60233 19.2213 5.46716 19.0168C5.41016 18.9339 5.34019 18.7165 5.31954 18.499C5.29359 18.1727 5.33251 17.8077 5.30145 17.5075C5.24444 17.0078 5.2057 16.6686 5.25741 16.407C5.30912 16.1454 5.57861 15.4026 5.74432 14.8123C5.85304 14.4343 5.78819 14.1158 5.98752 13.7869C6.18686 13.4608 6.30872 13.1734 6.35258 12.9741C6.40378 12.7928 5.82454 13.7714 5.82454 13.7714H5.82522Z" fill="#F2E8B0"/>
<path fill-rule="evenodd" clip-rule="evenodd" d="M7.82666 13.484C7.82666 13.484 7.60923 13.5489 7.50563 13.6627C7.40204 13.7714 7.35801 13.862 7.21823 14.0458C7.07846 14.2297 7.07061 14.3798 6.9566 14.6102C6.84277 14.8355 6.59154 15.1746 6.56048 15.2963C6.52942 15.418 6.47771 15.9875 6.41303 16.2568C6.35602 16.5261 6.47771 16.8576 6.47771 16.8576L6.62517 16.8263C6.62517 16.8263 6.62517 17.018 6.77279 17.1475C6.92025 17.2743 6.94619 16.7176 6.94619 16.7176L7.49761 14.8562L8.32859 14.2918L8.41921 13.8361L7.82632 13.484H7.82666Z" fill="#F5EEC0"/>
<path fill-rule="evenodd" clip-rule="evenodd" d="M8.23037 14.3282C8.23037 14.3282 7.83937 14.3539 7.64788 14.4939C7.57023 14.5507 7.53917 14.5973 7.4564 14.6673C7.30365 14.7941 7.14817 14.9106 7.07325 15.0769C6.9903 15.2424 6.89968 15.4936 6.83756 15.9674C6.81162 16.1668 6.81162 16.3506 6.79353 16.5112C6.76758 16.7286 6.72884 16.902 6.74949 17.0232C6.77544 17.2717 7.03178 17.4012 7.05669 17.6833L7.58747 17.4142L8.08718 15.4438L9.14873 14.7782L8.54798 14.1051L8.22969 14.327L8.23037 14.3282Z" fill="#E6DB9D"/>
<path fill-rule="evenodd" clip-rule="evenodd" d="M5.43022 27.596C5.43244 27.5765 5.43466 27.557 5.43688 27.5371C5.51436 26.8715 5.5275 26.367 5.58434 26.0511C5.66711 25.6033 5.72411 25.4367 5.71114 25.2691C5.69305 24.9999 5.6724 24.8032 5.69834 24.596C5.73708 24.3215 6.00639 23.9954 5.99871 23.7701C5.99342 23.5914 5.9028 23.475 5.82515 23.3663C5.74749 23.2576 5.68537 23.167 5.68537 23.167C5.68537 23.167 6.21614 22.8019 6.21102 21.3313C6.22186 21.3344 6.23229 21.3387 6.24209 21.3443L6.50355 22.0872L6.68223 22.3046L7.36831 23.5836L8.25117 24.4407L9.55592 25.3182L10.3741 26.2086L10.4569 28.5828L9.38764 29.9704L9.21254 30.2875C7.82139 29.5892 6.5457 28.6813 5.43005 27.5958L5.43022 27.596Z" fill="#E5CB7A"/>
<path fill-rule="evenodd" clip-rule="evenodd" d="M8.69653 29.8671C8.69653 29.8671 8.71462 29.572 8.95799 29.3804C8.99691 29.4451 9.02268 29.5074 9.015 29.5538C9.05903 29.4763 9.36708 28.9791 10.0636 28.8496C10.7601 28.7228 10.9283 28.2154 10.9283 28.2154L12.4065 26.8718L14.0971 25.3158L16.1528 24.5934L17.1135 24.3577C17.1135 24.3577 17.1316 24.4276 17.0954 24.5829C17.2739 24.5701 17.67 24.4795 18.0817 24.3345C18.2474 24.2698 18.4029 24.2438 18.4856 24.3293C18.6073 24.4432 18.6254 24.7125 18.6331 24.8729C18.8324 24.8289 19.0628 24.6374 19.2475 24.6555C19.5427 24.6865 19.8042 25.0335 20.1046 25.0335C20.5007 25.0335 20.6792 24.7901 20.9564 24.5985C21.1221 24.4846 21.3602 24.3425 21.4948 24.2464C21.8159 24.0107 25.2126 22.9725 25.2126 22.9725L26.4035 23.0502L26.5952 24.3292L26.4928 27.6725C26.4802 27.6846 26.4675 27.6973 26.4547 27.7094L21.0398 30.5375L13.5339 31.6881C11.8526 31.4134 10.23 30.8553 8.73545 30.0376L8.69705 29.867L8.69653 29.8671Z" fill="#D8C173"/>
<path fill-rule="evenodd" clip-rule="evenodd" d="M5.8855 28.0213C5.99216 27.7982 6.08808 27.6117 6.10498 27.5449C6.11829 27.6794 6.14269 27.9745 6.19184 28.2882C6.08865 28.2005 5.98653 28.1114 5.8855 28.0211V28.0213Z" fill="#F1D789"/>
<path fill-rule="evenodd" clip-rule="evenodd" d="M11.3685 31.1676L12.3393 30.8976L12.422 30.9236C12.422 30.9236 12.4661 30.9495 12.4661 31.0374C12.5877 30.9676 12.6913 30.9804 12.7664 30.934C12.8052 31.0168 12.8439 31.2912 13.0149 31.3248C13.1934 31.3637 13.3851 31.2472 13.5793 31.0997C13.7708 30.947 13.9889 30.7553 14.154 30.6776C14.2145 30.789 14.2681 30.9039 14.3146 31.0219C14.532 30.8485 14.91 30.1443 15.4485 30.1571C15.6041 29.7893 15.8641 29.4752 16.1963 29.2536C16.696 28.9145 17.0092 28.8885 17.4002 28.9196C17.5555 28.7179 17.7469 28.5467 17.9646 28.4148C18.0293 28.4407 18.208 28.5494 18.4307 28.4458C18.656 28.3424 18.9096 27.941 19.2436 27.8893C19.4236 27.8645 19.6066 27.9029 19.7614 27.998C19.7614 27.998 20.7342 27.0322 21.4054 26.7112C21.3795 26.6335 21.3278 26.341 22.1147 25.6937C22.1587 25.7326 22.1277 25.8413 22.1587 25.8473C22.1715 25.8473 22.3635 25.7645 22.6066 25.578C22.9069 25.3528 23.2667 25.1172 23.4841 25.0525C23.8937 24.9308 24.3282 25.1793 24.3282 25.1793C24.3652 25.1534 24.4064 25.1341 24.4499 25.1223C24.5534 25.1042 24.6285 25.0912 24.6855 25.0711C24.6803 25.2057 24.7554 25.4361 24.6855 25.6355C24.7665 25.6811 24.8524 25.7175 24.9415 25.7442C24.8976 25.8399 24.8017 26.0833 24.6413 26.1999C24.7757 26.2645 24.7938 26.3396 24.9855 26.4047C24.9078 26.5134 24.7807 26.6999 24.724 26.8143C24.667 26.9359 24.4624 27.4408 24.3718 27.6323C24.276 27.8239 24.1467 28.176 24.0844 28.2467C24.0221 28.3173 23.797 28.6168 23.6236 28.7643C23.7772 28.7073 24.4056 28.5158 24.6721 28.4433C24.5928 28.5597 24.1905 29.1565 23.8038 29.7304C21.9521 30.8403 19.8852 31.5427 17.7408 31.791C15.5963 32.0392 13.4236 31.8276 11.3673 31.1702L11.3685 31.1676Z" fill="#E0CD81"/>
<path fill-rule="evenodd" clip-rule="evenodd" d="M8.29436 14.2581C8.29436 14.2581 8.06925 14.2581 8.02522 14.2892C7.98118 14.3202 8.2505 14.3851 8.33327 14.4161C8.41604 14.4472 8.59473 14.5895 8.64132 14.7035C8.68535 14.8123 10.2594 15.4465 10.2594 15.4465L11.3727 15.3895L11.7565 14.8592L11.0264 14.2197L11.5384 12.7103L10.8602 12.819L9.2291 13.7918L8.41092 14.1052L8.29436 14.2581Z" fill="#DFC57C"/>
<path fill-rule="evenodd" clip-rule="evenodd" d="M10.7393 14.7578C10.7553 14.7839 10.778 14.8052 10.805 14.8198C10.8319 14.8343 10.8622 14.8415 10.8929 14.8406C11.1233 14.8406 11.3354 14.8976 11.4235 15.014C11.5711 15.2005 11.9802 15.796 11.9802 15.796L12.9588 16.1481L13.0219 14.9957L11.9527 14.2528L10.7358 14.7006V14.7576H10.7386L10.7393 14.7578Z" fill="#E5CC7C"/>
<path fill-rule="evenodd" clip-rule="evenodd" d="M10.5471 15.185C10.5471 15.185 10.7257 15.1979 10.9509 15.115C11.1762 15.0321 11.5464 14.8535 11.707 14.9235C11.9321 15.0193 11.8855 15.3196 12.1291 15.5891C12.2765 15.7548 12.5458 15.7497 12.6986 15.9284C12.8513 16.1071 13.3768 16.0241 13.3768 16.0241L13.5761 17.0993L12.7762 18.1247L12.5146 19.3984H11.4329L10.4447 19.0064L9.95801 17.8288L10.2014 16.6379L10.5471 15.185Z" fill="#D2C281"/>
<path fill-rule="evenodd" clip-rule="evenodd" d="M12.6395 15.2368C12.6664 15.245 12.6942 15.2494 12.7223 15.2497C12.6912 15.2757 12.6264 15.3325 12.6523 15.4801C12.6783 15.6278 12.7611 15.8141 12.6912 15.928C12.747 15.9889 12.7885 16.0614 12.8129 16.1403C12.857 16.2672 12.8699 16.3836 13.1572 16.4019C13.1157 16.4274 13.0775 16.4578 13.0433 16.4925C13.0433 16.4925 13.2427 16.6659 13.3437 16.8263C13.4471 16.8219 13.7216 16.7366 13.7216 16.7366L13.7786 16.7755L13.9003 16.7243C13.9003 16.7243 13.7864 16.6803 13.8692 16.4033C13.9468 16.1599 14.0168 16.1729 14.0228 16.1548C14.0288 16.1367 14.0798 15.8803 14.0798 15.7767C14.1185 15.6423 14.1496 15.2332 14.1496 15.2332L14.0668 14.3297L13.6009 14.0474L13.222 13.6816L12.8646 14.3548L12.6293 14.5894L12.6112 15.1719L12.6395 15.2368Z" fill="#E2C270"/>
<path fill-rule="evenodd" clip-rule="evenodd" d="M13.7605 14.4809C13.7605 14.4809 13.8433 14.7164 13.8745 14.8976C13.8855 14.8624 13.8916 14.8258 13.8926 14.7889C13.8926 14.7889 13.9573 15.1463 13.9701 15.2939C13.996 15.2886 14.0213 15.281 14.0271 15.3067C14.0329 15.3325 14.0919 15.6201 14.0783 15.7805C14.1861 15.6026 14.3353 15.4534 14.5131 15.3456C14.6167 15.2808 14.7384 15.211 14.8654 15.2057C15.0647 15.2006 15.2096 15.3327 15.4479 15.3327C16.0225 15.3327 16.543 14.9106 16.9262 14.7812C17.2083 14.6853 17.4517 14.6155 17.6225 14.46C17.7055 14.3902 17.8531 14.2349 17.9876 14.0044C18.1663 13.6972 18.3526 13.4297 18.5392 13.3961C18.4548 13.4116 18.3689 13.4177 18.2832 13.4142C18.2832 13.4142 18.3402 13.3572 18.4368 13.2795C18.5334 13.2019 18.6491 13.1061 18.8146 13.1061C19.1099 13.1061 19.2573 13.15 19.423 13.15C19.5888 13.1449 19.6845 13.1061 19.6845 13.1061C19.6845 13.1061 19.8581 13.2278 20.2489 13.2278C20.6399 13.233 20.9014 13.2666 21.106 13.2848C21.3106 13.3031 21.9965 13.2278 22.1933 13.2336C22.3216 13.2386 22.4476 13.2694 22.5637 13.3243L21.9293 11.4811L19.6505 9.48938L18.2939 10.4499L16.207 12.5366L14.1877 13.2848L13.7656 13.7586V14.4809H13.7605Z" fill="#CCB360"/>
<path fill-rule="evenodd" clip-rule="evenodd" d="M18.2913 13.4244C18.2913 13.4244 18.3483 13.3676 18.4439 13.2899C18.5395 13.2123 18.6564 13.1164 18.8219 13.1164C19.117 13.1164 19.2647 13.1604 19.4304 13.1604C19.5961 13.1553 19.6918 13.1164 19.6918 13.1164C19.6918 13.1164 19.8656 13.2379 20.2562 13.2379C20.6472 13.243 20.9087 13.2766 21.1133 13.2947C21.3179 13.3128 22.0039 13.2379 22.2006 13.2435C22.3289 13.2483 22.4548 13.2792 22.5708 13.3341L22.2834 12.503L21.9496 11.8688L20.9968 10.8253C20.9968 10.8253 19.8533 10.1522 19.8446 10.1471C19.8395 10.142 19.4485 10.0384 19.4485 10.0384L18.4129 10.6649L17.4732 13.0961L17.4551 13.6081L18.0633 13.8955C18.2161 13.6395 18.3845 13.4347 18.5424 13.4087C18.3999 13.4242 18.2912 13.4242 18.2912 13.4242L18.2913 13.4244Z" fill="#D5B457"/>
<path fill-rule="evenodd" clip-rule="evenodd" d="M18.2784 13.598C18.1877 13.6031 18.1128 13.585 18.092 13.5203C18.0143 13.3029 17.9522 13.2718 17.8872 13.2718C17.8222 13.2718 17.7345 13.4116 17.6824 13.4244C17.6303 13.4372 17.5686 13.264 17.5686 13.264L17.5116 13.238C17.5116 13.238 17.1776 13.4555 16.9421 13.7118C16.7065 13.9681 16.3207 14.4032 16.1473 14.4807C15.9739 14.5581 15.3782 14.5843 15.1745 14.6283C14.9707 14.6723 14.7447 14.8199 14.7137 14.8536C14.6826 14.8872 14.8045 14.9234 14.8225 14.957C14.8406 14.9881 14.623 14.9751 14.6049 15.0082C14.5921 15.0341 14.6561 15.1816 14.6879 15.2567C14.7434 15.2291 14.8044 15.214 14.8664 15.2127C15.0657 15.2075 15.2108 15.3396 15.4489 15.3396C16.0237 15.3396 16.5441 14.9176 16.9272 14.788C17.2095 14.6923 17.4529 14.6223 17.6237 14.467C17.7065 14.3972 17.8541 14.2417 17.9887 14.0113C18.0871 13.8535 18.183 13.7058 18.2789 13.5971L18.2784 13.598Z" fill="#D2B257"/>
<path fill-rule="evenodd" clip-rule="evenodd" d="M10.0352 26.4109C10.0352 26.4109 9.984 26.2193 9.50955 25.7249C9.3749 25.5851 9.29212 25.4689 9.2015 25.3857C8.97622 25.1733 8.84412 25.1164 8.6837 24.9948C8.33161 24.7333 7.94846 24.7333 7.65338 24.4123C7.3583 24.0912 7.0144 23.4779 6.77547 22.851C6.53995 22.2245 6.4751 22.0251 6.4751 22.0071C6.4751 21.989 6.53995 21.8673 6.62272 21.8854C6.7055 21.9035 6.7055 22.0639 6.72632 22.1028C6.76756 22.1663 6.81433 22.2261 6.8661 22.2813C6.98778 22.4213 7.16118 22.5885 7.24924 22.838C7.23115 22.6257 7.15862 22.3902 7.15862 22.3902C7.15862 22.3902 7.6143 22.6776 8.00256 22.9778C8.39356 23.2782 8.55399 23.3818 8.66816 23.5733C8.78234 23.7648 9.05131 24.2698 9.18016 24.4174C9.30902 24.565 11.0746 25.1216 11.0746 25.1216L11.9144 25.7477L12.3314 26.6617L12.005 27.1737L11.3785 27.3083L10.361 26.8526L10.0352 26.4108V26.4109Z" fill="#D2B159"/>
<path fill-rule="evenodd" clip-rule="evenodd" d="M7.77478 23.2627C7.77478 23.2627 7.98709 23.6018 8.50489 23.9229C8.97098 24.2051 9.70877 24.4615 10.3665 24.6142C10.7444 24.7049 11.1224 24.7747 11.4615 24.78C12.3754 24.7928 13.0045 24.5315 13.784 24.446C14.206 24.4019 14.7238 24.3683 15.2623 24.2412C15.9535 24.0754 16.3626 23.8889 16.9193 23.6268C17.3231 23.4404 17.6934 23.3006 17.9936 23.1219C18.4157 22.8734 18.7237 22.5964 19.0811 22.5137C19.0371 22.6354 18.9905 22.8528 18.6384 23.0781C18.8248 23.0728 19.0811 23.06 19.0811 23.06C19.0811 23.06 18.8326 23.2074 18.395 23.5389C18.1257 23.7437 17.7685 24.0903 17.4035 24.3207C17.1678 24.4683 16.9114 24.5767 16.7431 24.6651C16.3335 24.8904 16.1683 25.0042 15.8992 25.2795C15.9949 25.2744 16.0028 25.2795 16.0028 25.2795C16.0028 25.2795 15.6635 25.3235 15.4203 25.4529C15.3691 25.4529 15.2804 25.4348 15.1251 25.4788C15.0034 25.5176 14.8428 25.6058 14.6772 25.6522C14.4415 25.7222 14.3641 25.6911 14.3641 25.6911L14.4028 25.7688C14.4028 25.7688 14.0956 25.7635 13.9932 25.7739C14.0113 25.779 14.0062 25.7869 14.0062 25.7869C13.9882 25.7899 13.9708 25.796 13.955 25.805C13.9057 25.8369 13.8515 25.8605 13.7945 25.8748C13.7635 25.8799 13.7375 25.8799 13.6986 25.8878C13.7116 25.9188 13.8126 26.0926 13.8592 26.195C13.8205 26.2209 13.2378 26.661 13.2378 26.661C13.2559 26.6895 13.2707 26.7199 13.2819 26.7517C13.2999 26.8085 13.3078 26.8914 13.3259 26.9302C13.3697 27.0078 13.3957 27.0208 13.3957 27.0208C13.3957 27.0208 13.3259 27.0338 13.204 27.0648C13.1006 27.0908 12.9736 27.1346 12.7944 27.1606C12.7394 27.1677 12.6841 27.1721 12.6287 27.1736C12.6547 27.2306 12.7685 27.448 12.5587 27.699C12.349 27.9501 12.2843 27.9866 12.2196 28.147C12.1871 28.1224 12.1524 28.1007 12.116 28.0822C12.0462 28.0511 11.9503 28.0047 11.9167 27.9424C11.8971 28.0254 11.8711 28.1068 11.839 28.1858C11.7744 28.3592 11.6786 28.5302 11.6605 28.6595C11.5905 28.5819 11.4612 28.4292 11.2825 28.4602C11.1038 28.4913 10.9615 28.7346 10.9304 28.8046C10.9304 28.7606 10.8993 28.727 10.8917 28.7787C10.8864 28.8357 10.7881 29.431 10.2392 29.9126C10.2341 29.7909 10.2341 29.5216 10.2211 29.4337C10.1699 29.4849 10.1073 29.5605 9.73438 29.7211C9.36932 29.8815 9.42718 30.0421 9.42718 30.0421C9.42718 30.0421 9.39611 29.7861 9.59289 29.5165C9.79223 29.2473 9.91392 29.1203 9.91392 29.0997C9.9107 29.0787 9.90172 29.0589 9.88798 29.0427C9.86203 29.0168 9.81032 28.9857 9.81032 28.965C9.84138 28.9522 10.1494 28.8046 10.1313 28.499C10.1133 28.2247 9.99686 28.0822 9.91392 27.9813C9.90112 27.9683 10.0358 27.8726 10.0175 27.8415C10.0045 27.8235 9.83899 27.7016 9.81817 27.6367C9.82307 27.598 9.83176 27.5599 9.84411 27.5229C9.8622 27.4659 9.87518 27.427 9.87006 27.3883C9.85708 27.3236 9.78711 27.1449 9.76646 27.1268C9.78455 27.1319 9.91392 27.1268 9.91392 27.1268C9.91392 27.1268 9.81049 26.9611 9.79223 26.8834C9.77397 26.8058 9.73523 26.6011 9.71458 26.5624C9.75861 26.5675 9.86732 26.5752 9.86732 26.5624C9.87261 26.5235 9.77158 26.4588 9.81612 26.4088C9.84719 26.4139 9.90675 26.4399 9.96358 26.5124C9.93252 26.4294 9.88081 26.269 9.77192 26.2043C9.82312 26.1862 9.9972 26.1395 10.1499 26.2301C10.3027 26.3207 10.3547 26.4475 10.3547 26.4475C10.3547 26.4475 10.4454 26.5175 10.5853 26.6211C10.7457 26.7479 10.9502 26.9283 11.2765 27.056C11.3465 27.0949 11.525 27.0949 11.6545 27.0689C11.7109 27.0555 11.765 27.0337 11.815 27.0043C11.833 26.9936 11.8521 26.9849 11.872 26.9783C11.8441 26.9224 11.8121 26.8688 11.7762 26.8177C11.8203 26.8177 11.872 26.823 11.872 26.823C11.872 26.823 11.903 26.753 11.7633 26.6182C11.7943 26.5871 11.8332 26.567 11.8332 26.5146C11.7892 26.5095 11.7115 26.4448 11.6935 26.4189C11.7192 26.4008 11.7581 26.3412 11.8022 26.3231C11.7633 26.2921 11.6675 26.1625 11.6235 26.1497C11.6655 26.1341 11.7062 26.115 11.7452 26.0927C11.7452 26.0927 11.5277 26.0357 11.4578 25.9891C11.3878 25.9379 11.2844 25.8494 11.2222 25.8234C11.1574 25.7975 11.0436 25.7847 10.997 25.7328C11.0408 25.7458 11.1108 25.7328 11.1627 25.7328C11.2014 25.7328 11.2197 25.7379 11.2325 25.7379C11.2274 25.7198 11.2274 25.6809 11.3284 25.6681C11.377 25.6608 11.4242 25.6459 11.4682 25.6241C11.4682 25.6241 11.3723 25.619 11.2634 25.5154C11.1545 25.4118 11.064 25.329 11.0019 25.316C10.9372 25.303 10.8155 25.3601 10.7405 25.3548C10.6369 25.342 10.5928 25.2901 10.5928 25.2901C10.5928 25.2901 10.2486 25.3211 9.48486 24.8552C8.82455 24.4512 8.53715 24.094 8.53715 24.094C8.47535 24.0716 8.41562 24.0439 8.35863 24.0111C8.11014 23.8817 7.76574 23.6124 7.77615 23.2602L7.77478 23.2627Z" fill="#C2A44D"/>
<path fill-rule="evenodd" clip-rule="evenodd" d="M17.2996 7.72351C17.3595 7.74297 17.4127 7.77886 17.4532 7.8271C17.5749 7.96688 17.6526 8.2309 17.3756 8.51318C17.4843 8.55192 17.5292 8.56438 17.624 8.55192C17.5283 8.66593 17.3109 8.9093 17.2979 9.12161C17.2849 9.29501 17.3936 9.34689 17.3936 9.34689C17.3936 9.34689 17.2279 9.53838 17.2203 9.85889C17.2985 9.77064 17.3842 9.68922 17.4763 9.61552C17.6679 9.46277 17.9319 9.28938 18.1106 9.18066C18.1082 9.22623 18.1143 9.27184 18.1287 9.31515C18.1287 9.31515 18.4625 9.04071 18.7431 9.16257C18.8699 9.21957 18.8129 9.39809 18.8129 9.39809C18.8129 9.39809 18.9865 9.33341 19.1082 9.45509C19.2299 9.57678 19.4019 9.89063 19.4901 10.0123C19.5289 10.0693 19.6299 10.178 19.7333 10.3463C19.8746 10.5819 19.9926 10.8307 20.0856 11.0892C20.0907 10.9546 20.1243 10.745 20.5076 10.8769C20.8908 11.0116 21.3256 11.2939 21.6907 11.8497C22.0557 12.4056 22.1462 13.0331 22.33 13.2721C22.5164 13.5025 22.708 13.8856 22.721 14.0462C22.734 14.2068 22.664 14.7244 23.0472 16.1251C23.1559 15.6902 23.3216 14.7244 23.3216 14.7244L23.4122 13.8726L23.5158 11.237L20.7636 8.9506L18.6122 7.38934L17.2115 7.524L17.2994 7.72334L17.2996 7.72351Z" fill="#CAA13E"/>
<path fill-rule="evenodd" clip-rule="evenodd" d="M22.413 11.6457C22.413 11.6457 22.3741 11.3897 21.7269 10.9545C21.0796 10.5248 20.5747 10.5248 20.1088 10.1597C19.7514 9.87234 19.3787 9.21203 19.136 8.9946C18.9003 8.77973 18.8616 8.15833 18.8616 8.15833L19.6564 7.49273L20.8384 5.78419L21.8377 4.6839L22.3165 5.3495L22.9821 6.13132L23.3523 7.70026L23.487 9.99675L22.4118 11.6459L22.413 11.6457Z" fill="#B59544"/>
<path fill-rule="evenodd" clip-rule="evenodd" d="M23.2131 14.3984C23.2327 14.0502 23.1897 13.7012 23.0861 13.3681C22.9154 12.8374 22.5425 11.8949 22.3693 11.542C22.2993 11.151 22.3512 11.1199 22.4263 11.0759C22.5014 11.0319 22.7837 10.8711 22.9383 10.3071C23.0929 9.743 23.5727 9.72457 23.5727 9.72457L23.8678 9.50714L24.3158 10.6281L24.7066 11.6405L24.8283 12.4146L24.9189 13.0748L24.7066 14.4703L23.6582 15.4178L23.2129 14.3984H23.2131Z" fill="#C89D3A"/>
<path fill-rule="evenodd" clip-rule="evenodd" d="M8.58264 29.9528V29.9241C8.60443 29.9105 8.62366 29.8932 8.63947 29.8729C8.65756 29.847 8.67071 29.8159 8.68351 29.8082C8.70945 29.7953 8.83113 29.757 8.89581 29.7693C8.9605 29.7816 9.13151 29.8521 9.22213 29.847C9.4085 29.8419 9.62593 29.6993 9.97033 29.7642C10.4881 29.8599 10.6098 30.212 10.9102 30.4114C11.115 30.5513 11.327 30.489 11.358 30.489H11.4278C11.4408 30.489 11.5365 30.3803 11.5884 30.3856C11.692 30.3907 11.7023 30.4762 11.7669 30.4813C11.9197 30.4994 12.2149 30.4037 12.3626 30.4426C12.4063 30.4563 12.4462 30.4804 12.4786 30.5128C12.5111 30.5452 12.5352 30.585 12.5489 30.6288C12.58 30.7245 12.5541 30.8462 12.479 30.9162C12.3185 31.0637 12.1658 31.2036 12.1347 31.3258C12.1742 31.3559 12.2122 31.3881 12.2484 31.4221C10.9674 31.0957 9.73491 30.6022 8.58264 29.9543V29.9528Z" fill="#CEB052"/>
<path fill-rule="evenodd" clip-rule="evenodd" d="M22.3689 24.7799C22.3689 24.7799 22.7727 24.2414 22.9126 23.9747C23.0524 23.6997 22.4699 20.2181 22.4699 20.2181L23.6402 16.3839L23.609 15.136C23.609 15.136 23.666 13.9839 23.8006 13.4841C23.9612 13.7715 24.4609 14.1185 24.5696 14.3023C24.6208 13.9501 24.7948 13.2072 24.769 12.4149C24.8647 12.5624 25.0951 14.046 25.0951 14.046L25.3255 15.0452L25.6259 16.1068L25.9599 17.2279L26.1592 18.002L26.2731 18.1884L26.369 18.5145L26.4596 18.8668L26.7211 19.6927L26.8747 20.3709L26.9964 21.6007C27.0228 21.6949 27.0419 21.791 27.0534 21.8881C27.0585 22.0228 27.0353 22.1004 27.0353 22.1238C27.0353 22.1472 27.0793 22.4189 27.0612 22.6235C27.0353 22.8283 27.0353 22.9886 26.8747 23.1355C26.7141 23.2825 26.6132 24.1607 26.6132 24.1607L26.3258 23.9692C26.3258 23.9692 26.3828 23.7076 26.2481 23.4695C26.1135 23.2314 25.852 23.1821 25.7044 23.221C25.5569 23.2521 25.2619 23.2985 25.166 23.3814C25.0753 23.4642 24.8528 23.7206 24.6481 23.8371C24.3921 23.9907 23.975 24.0028 23.7525 24.0546C23.5272 24.1058 23.2787 24.2594 23.0171 24.4377C22.812 24.5705 22.5954 24.6847 22.3699 24.779L22.3689 24.7799Z" fill="#CCA847"/>
<path fill-rule="evenodd" clip-rule="evenodd" d="M22.3689 30.4369C22.3689 30.4369 22.386 30.448 22.4189 30.466C24.2583 29.6043 25.9063 28.3827 27.2658 26.8735C27.251 26.3496 27.2317 25.8125 27.2105 25.6135C27.1667 25.1914 27.1977 24.7617 27.1848 24.5132C27.1718 24.2647 27.032 23.2523 26.9673 22.9908C26.8974 22.7294 26.7625 22.5999 26.7421 22.5999C26.724 22.6051 26.6151 23.0919 26.6151 23.2143C26.6151 23.3366 26.5891 23.6312 26.5891 23.7063C26.571 23.701 26.5634 23.6551 26.5634 23.6363C26.5374 23.701 26.5064 23.815 26.4934 23.828C26.4804 23.8409 26.5115 23.7193 26.4934 23.6933C26.4753 23.6674 26.4422 23.6803 26.4494 23.6157C26.4524 23.5773 26.4585 23.5392 26.4675 23.5018C26.4675 23.5018 26.3898 23.6157 26.333 23.9056C26.276 24.193 26.276 24.2009 26.2553 24.2266C26.2372 24.2579 26.1336 24.3613 26.1283 24.4002C26.1232 24.47 26.2243 24.54 26.2319 24.5787C26.2371 24.6436 26.1413 24.9438 26.1103 25.0907C26.0792 25.2377 26.0922 25.5256 26.0591 25.6732C26.0331 25.8079 26.0078 25.8855 25.9193 25.9424C25.984 25.9553 26.0461 25.9734 26.0461 25.9734C26.0461 25.9734 26.1367 26.3566 25.9063 26.6829C25.8235 26.7967 25.8029 26.8486 25.7148 26.9522C25.5412 27.1437 25.4066 27.3618 25.3936 27.5036C25.3847 27.4618 25.3786 27.4193 25.3755 27.3766C25.3755 27.3766 25.1064 27.69 24.9924 27.8687C24.8449 28.0991 24.6403 28.0861 24.5828 28.1431C24.5253 28.2001 24.5128 28.3035 24.5316 28.3865C24.4804 28.3993 24.3841 28.4175 24.3193 28.6169C24.2882 28.7203 24.2106 28.8217 24.0889 28.8913C23.9672 28.9609 23.8196 28.9819 23.7445 29C23.8092 29.0181 23.8351 29.0181 23.8662 29.0388C23.8274 29.1034 23.6487 29.2045 23.4494 29.334C23.25 29.4557 23.1541 29.6342 23.105 29.7508C23.0538 29.8595 22.9782 29.9295 22.8565 29.9424C22.9077 29.9735 22.9835 30.0459 23.0222 30.0692C22.9652 30.0822 22.8686 30.0822 22.6961 30.2298C22.5148 30.38 22.4527 30.4241 22.3697 30.437L22.3689 30.4369Z" fill="#C39D3C"/>
<path fill-rule="evenodd" clip-rule="evenodd" d="M18.7665 31.6366C18.8656 31.5671 18.973 31.5102 19.0861 31.4672C19.4899 31.3067 19.9171 31.2757 20.0854 31.224C20.246 31.1728 20.3728 31.1021 20.5721 31.0634C20.5668 31.1088 20.5624 31.1514 20.5576 31.1917C19.9699 31.3765 19.3715 31.525 18.7656 31.6366H18.7665Z" fill="#D2BA6B"/>
<path fill-rule="evenodd" clip-rule="evenodd" d="M26.2144 21.0155C26.2144 21.0155 26.1316 21.4633 25.984 21.7456C25.8364 22.0279 25.6768 22.4187 25.6768 22.4187C25.6778 22.3306 25.6882 22.2429 25.7079 22.1571C25.5215 22.2658 25.0684 22.5274 24.9399 22.6438C24.8182 22.7525 24.6136 22.9442 24.5619 23.0348C24.6835 22.6776 24.8103 22.3566 24.8312 22.209C24.6448 22.3436 23.7747 23.0607 23.3218 23.5345L21.9107 24.6763C21.7479 24.7641 21.5802 24.8426 21.4084 24.9115C21.1652 25.0149 20.8778 25.1029 20.6655 25.1859C20.7225 25.0331 20.813 24.8983 20.94 24.769C21.0746 24.6421 21.4784 24.2046 21.5405 24.001C21.5975 23.7886 21.6105 23.6618 21.5354 23.4831C21.4654 23.5012 21.305 23.5091 21.1963 23.5402C21.0876 23.5712 20.971 23.6876 20.971 23.6876C20.971 23.6876 21.0538 23.2138 21.2325 22.766C21.0978 22.7711 20.8674 22.8099 20.8674 22.8099C20.8674 22.8099 21.1885 22.2714 21.7378 21.8961C21.5696 21.9319 21.405 21.983 21.246 22.0487C20.9249 22.1834 20.5729 22.3827 20.3114 22.4914C20.4589 22.2866 21.4945 20.8086 22.1107 19.4312C22.7251 18.0565 22.9547 17.7044 23.0893 16.9666C23.1591 16.6015 23.1405 16.062 23.1591 15.5789C23.1772 15.0998 23.2368 14.6701 23.1981 14.3827C23.3585 14.582 23.9592 15.1439 23.9799 16.3996C23.998 17.6552 23.4052 19.3511 22.776 20.2649C22.9296 20.3089 23.3276 20.3608 23.7365 19.6505C24.1454 18.9402 24.1405 18.7419 24.2881 18.4466C24.3062 18.5942 24.3009 18.6459 24.3009 18.6459C24.3009 18.6459 24.8965 17.9237 25.1786 17.0149C25.2356 17.4059 25.4039 17.7503 25.1397 18.4674C24.9042 19.1146 24.5962 19.2726 24.5962 19.2726C24.5962 19.2726 24.7489 19.2467 24.974 19.112C25.0129 19.2078 25.0052 19.3168 25.0699 19.3554C25.1346 19.394 25.2227 19.459 25.2356 19.5211C25.3054 19.4175 25.4142 19.2854 25.448 19.1871C25.422 19.3919 25.4039 20.2874 25.4992 20.7431C25.6987 20.725 25.9031 20.712 26.0429 20.3521C25.9472 20.7044 25.9472 20.9165 26.0118 21.2169C26.118 21.1445 26.2137 21.015 26.2137 21.015L26.2144 21.0155Z" fill="#C0993A"/>
<path fill-rule="evenodd" clip-rule="evenodd" d="M19.4874 6.74487C19.4874 6.74487 19.288 6.82764 18.9489 6.82764C18.6538 6.82764 18.7366 6.71381 18.2758 6.71381C17.5665 6.71381 15.0888 7.12341 14.6538 7.1176C14.3715 7.11248 15.6064 7.23929 15.6064 7.23929L18.7626 7.28332L19.3968 7.23212L19.6324 6.75255L19.4874 6.74487Z" fill="#A88F33"/>
<path fill-rule="evenodd" clip-rule="evenodd" d="M11.3036 12.9145C11.3036 12.9145 10.8996 13.2226 10.7288 13.4583C10.5579 13.6939 10.4673 13.8491 10.2731 14.0407C10.3187 14.0425 10.3642 14.0364 10.4077 14.0226C10.4077 14.0226 10.4077 14.0738 10.3767 14.0873C10.4035 14.0843 10.4307 14.0874 10.4562 14.0962C10.4817 14.1051 10.5049 14.1195 10.5241 14.1385C10.4671 14.1696 10.3118 14.3251 10.4335 14.5089C10.5241 14.6487 10.7158 14.6615 10.7158 14.6615C10.7158 14.6615 10.6717 14.7884 10.8556 14.7755C11.2517 14.7574 11.6944 14.5838 11.8988 14.6278C12.1036 14.679 12.22 14.6978 12.3649 14.949C12.5185 15.1975 12.6523 15.2364 12.6523 15.2364C12.6523 15.2364 12.743 15.0059 12.7223 14.6616C12.7966 14.4761 12.8378 14.2789 12.844 14.0791L12.7093 13.0876L12.1217 12.3445L11.3606 12.7665L11.3036 12.914V12.9145Z" fill="#E3C571"/>
<path fill-rule="evenodd" clip-rule="evenodd" d="M12.0259 12.7668C12.0259 12.7668 12.0829 12.9015 12.3211 12.9143C12.2952 12.9713 12.2952 12.9791 12.303 13.023C12.3082 13.067 12.3158 13.1317 12.3158 13.1317C12.3421 13.119 12.3658 13.1017 12.3858 13.0805C12.3988 13.1375 12.3728 13.228 12.3858 13.2928C12.3938 13.3323 12.4068 13.3705 12.4246 13.4067C12.4283 13.3978 12.4327 13.3892 12.4375 13.3809C12.4426 13.3679 12.4887 13.5207 12.6162 13.6369C12.6161 13.619 12.6205 13.6014 12.629 13.5857C12.631 13.6182 12.6417 13.6495 12.6601 13.6763C12.6505 13.6718 12.6418 13.6657 12.6343 13.6582C12.6343 13.6582 12.6471 14.0678 12.7171 14.2796C12.7288 14.2659 12.7392 14.2512 12.7481 14.2356C12.7481 14.2228 12.743 14.3496 12.73 14.4404C12.712 14.531 12.7249 14.6578 12.7249 14.6578C12.7716 14.6211 12.8229 14.5906 12.8775 14.5672C12.9552 14.536 13.0823 14.4402 13.1598 14.2279C13.2047 14.1077 13.2394 13.9838 13.2634 13.8577C13.2884 13.9059 13.3057 13.9578 13.3146 14.0113C13.3199 14.076 13.4416 14.0424 13.4416 14.0424L13.4675 13.7601L13.6211 13.1206L13.7609 12.7245L14.434 11.6761L15.6502 10.7395L16.7117 10.9829L17.6074 9.766L16.0644 8.83911L14.6041 8.99186L13.2789 10.8274L12.2175 12.4922L12.0259 12.7667V12.7668Z" fill="#D8B65B"/>
<path fill-rule="evenodd" clip-rule="evenodd" d="M19.6738 10.1106C19.6738 10.1106 19.5832 10.1287 19.3217 10.2642C19.0602 10.3997 18.879 10.4427 18.778 10.6421C18.6769 10.8414 18.6692 10.9995 18.6692 10.9995C18.6692 10.9995 18.8479 10.9218 18.9515 10.8959C19.0602 10.8701 19.1819 10.8778 19.169 10.9218C19.1565 10.952 19.1392 10.98 19.1178 11.0046C19.1178 11.0046 19.3226 10.9995 19.3171 11.1005C19.3116 11.2015 19.2783 11.3128 19.2396 11.362C19.2007 11.4132 19.0403 11.4889 19.0222 11.5485C18.9781 11.6702 19.0403 11.6753 19.0169 11.7736C18.9988 11.8695 18.9135 12.0559 18.6337 12.382C18.3463 12.7083 18.2241 12.9387 18.2241 12.9387C18.2241 12.9387 18.0844 12.6773 18.0118 12.452C17.9606 12.4778 17.6857 12.6305 17.6857 12.6305L17.0488 10.4119L17.0616 10.2642C17.0616 10.2642 17.1186 10.1944 17.1315 10.0649C17.0358 10.0338 17.0228 10.0079 16.8958 9.88637C16.7689 9.76486 16.6654 9.61706 16.4533 9.51602C16.4222 9.45902 16.3833 9.38154 16.228 9.35031C16.0727 9.31907 15.9795 9.29347 15.9795 9.29347C15.9795 9.29347 16.0623 9.26224 16.1012 9.19756C16.0053 9.21053 15.9278 9.24159 15.7181 9.23647C15.5058 9.23118 15.4824 9.2235 15.366 9.24159C15.2496 9.25968 15.11 9.31156 15.0579 9.13288C15.0009 9.08884 14.8792 9.12776 14.7757 9.28033C14.6721 9.43291 14.6359 9.55476 14.4365 9.61433C14.4225 9.7022 14.3918 9.78655 14.3459 9.86282C14.2889 9.95873 14.1983 10.0545 14.0766 10.1968C13.8849 10.4221 13.916 10.7923 13.6105 11.0746C13.3025 11.3567 13.6617 10.2926 13.6617 10.2926L14.1536 9.11496L15.5542 7.74536L17.729 7.5979L17.9413 8.7243L19.0029 9.08936L19.6734 10.112L19.6738 10.1106Z" fill="#D3AE4D"/>
<path fill-rule="evenodd" clip-rule="evenodd" d="M20.0181 10.3591L19.1042 9.04139L18.4647 8.54936C18.4647 8.54936 18.0091 7.7107 17.978 7.68476C17.9521 7.66667 17.5223 7.62008 17.2479 7.60199L17.2991 7.7288C17.359 7.74825 17.4122 7.78415 17.4527 7.83239C17.5744 7.97217 17.652 8.23619 17.375 8.51847C17.4837 8.55721 17.5286 8.56967 17.6235 8.55721C17.5278 8.67122 17.3104 8.91459 17.2974 9.1269C17.2844 9.30029 17.3931 9.35201 17.3931 9.35201C17.3931 9.35201 17.2274 9.54366 17.2197 9.86401C17.298 9.77575 17.3836 9.69433 17.4757 9.62064C17.6674 9.46704 17.9314 9.29432 18.1101 9.18561C18.1077 9.23123 18.1138 9.2769 18.1282 9.32026C18.1282 9.32026 18.462 9.04583 18.7426 9.16752C18.8694 9.22452 18.8124 9.40321 18.8124 9.40321C18.8124 9.40321 18.986 9.33852 19.1076 9.46021C19.2293 9.58189 19.4027 9.89507 19.4908 10.0169C19.5295 10.0739 19.6306 10.1826 19.734 10.3507C19.8753 10.5864 19.9933 10.8353 20.0862 11.0938C20.0914 10.9902 20.1122 10.8453 20.291 10.8453L20.0192 10.3586L20.0181 10.3591Z" fill="#CAA13E"/>
<path fill-rule="evenodd" clip-rule="evenodd" d="M6.3172 14.1028C6.3172 14.1028 6.25252 13.9422 6.3172 13.6291C6.38188 13.3159 6.48292 13.1683 6.51654 12.7075C6.55016 12.2467 6.85053 11.6719 6.85053 11.6719L7.68151 11.294L8.26929 11.4544L8.44268 12.2415L7.6996 12.6511C7.6996 12.6511 7.66086 12.8245 7.45111 12.9643C7.24136 13.1041 6.9514 13.2128 6.88159 13.3553C6.83987 13.4426 6.80941 13.5348 6.79097 13.6298C6.79097 13.6298 6.57866 13.5857 6.45186 13.7255C6.3172 13.868 6.32232 13.9948 6.3172 14.1035V14.1028Z" fill="#F4EFC8"/>
<path fill-rule="evenodd" clip-rule="evenodd" d="M7.9949 13.8931C7.9949 13.8931 7.92493 13.9371 7.87322 14.0467C7.82202 13.9639 7.69965 13.4719 7.69453 13.0292C7.68941 12.5865 7.66296 12.4767 7.76536 12.3242C7.86776 12.1716 8.26934 12.0108 8.21233 11.736C8.15533 11.4746 7.91708 11.3659 7.62456 11.441C7.41976 11.4922 7.26735 11.9277 7.05504 12.1451C6.89445 12.3108 6.70296 12.2849 6.65125 12.3755C6.58127 12.4972 6.64595 12.6189 6.6253 12.6966C6.62001 12.7225 6.55533 12.8623 6.43877 13.0305C6.20325 13.3697 5.80457 13.8487 5.75269 14.2785C5.77078 14.0351 5.75798 14.03 5.82266 13.7607L5.78375 13.696L6.03975 12.8572L6.20546 12.166L6.57581 11.0085L7.2281 9.82543L7.86247 9.11597L8.52261 9.16L8.60026 10.1516L8.97829 12.0132L9.77308 12.9918L8.49922 13.8491L7.99439 13.8931H7.9949Z" fill="#EBCC73"/>
<path fill-rule="evenodd" clip-rule="evenodd" d="M8.39097 14.2448C8.39097 14.2448 8.28226 14.2707 8.24334 14.2501C8.20443 14.2294 8.16586 14.206 8.17866 14.1801C8.19146 14.1542 8.26144 14.1103 8.26144 14.0895C8.26287 14.0707 8.25692 14.052 8.24484 14.0375C8.23277 14.023 8.21552 14.0138 8.19675 14.0118C8.13719 14.0041 8.1191 14.0429 8.1191 14.0429C8.1191 14.0429 8.0621 13.999 8.01568 13.9917C8.04314 13.9883 8.07078 13.9866 8.09845 13.9864C8.0269 13.954 7.95101 13.9322 7.87317 13.9217C7.93785 13.883 8.06483 13.769 8.1476 13.769C8.23037 13.769 8.28226 13.7562 8.26929 13.7121C8.25632 13.6681 8.19163 13.6034 8.12183 13.5775C8.1476 13.5464 8.16586 13.4998 8.10374 13.3727C8.03889 13.2459 8.06483 13.1604 8.08565 13.1295C8.10374 13.0906 8.16842 13.0208 8.19948 12.9767C8.23054 12.9327 8.25649 12.8731 8.3082 12.8421C8.33414 12.824 8.41691 12.7909 8.49986 12.7593C8.59048 12.7282 8.66557 12.6893 8.71729 12.7282C8.77429 12.767 8.74835 12.8189 8.74835 12.8189C8.74835 12.8189 8.92704 12.754 9.08746 12.837C9.24806 12.9144 9.63906 12.9638 9.63906 12.9638L9.77917 13.246L8.85228 14.0408L8.46914 14.2325L8.39148 14.2453L8.39097 14.2448Z" fill="#E5C66B"/>
<path fill-rule="evenodd" clip-rule="evenodd" d="M9.67766 12.9456C9.67766 12.9456 9.39025 13.1372 9.32557 13.207C9.36431 13.2123 9.429 13.2383 9.40306 13.277C9.37199 13.3157 9.18563 13.4504 9.08203 13.5774C8.97332 13.7042 8.86972 13.8648 8.83354 13.9424C8.7948 14.0122 8.49955 14.2169 8.39868 14.2426C8.61099 14.2426 9.03817 13.9812 9.1986 13.9812C9.19348 14.0588 9.24263 14.1469 9.33325 14.1546C9.42388 14.1623 9.68534 14.2116 10.0374 13.9941C10.3895 13.7818 10.2731 13.6238 10.4206 13.5204C10.7029 13.3338 10.8167 13.1681 10.972 13.0647C11.1273 12.9613 11.2077 12.9377 11.2077 12.9377C11.2077 12.9377 11.2128 12.8601 11.2589 12.8679C11.2715 12.8694 11.2835 12.8742 11.2935 12.882C11.3036 12.8897 11.3113 12.9001 11.3159 12.9119C11.3159 12.9119 11.5852 12.7203 11.9303 12.6686C11.9222 12.665 11.9158 12.6585 11.9122 12.6505C11.9122 12.6505 11.938 12.6375 11.9433 12.6245C11.9433 12.6245 11.9613 12.5986 11.9743 12.6116C11.9873 12.6245 12.0054 12.7203 12.0313 12.7592C12.0883 12.7333 12.197 12.4899 12.197 12.4899L12.4587 11.7417V11.0582L12.2539 11.0971L10.7179 11.7494L9.78569 12.7152L9.67698 12.9456H9.67766Z" fill="#E6BD62"/>
<path fill-rule="evenodd" clip-rule="evenodd" d="M14.0996 9.59278C14.1827 9.57262 14.2624 9.5403 14.336 9.49687C14.3049 9.57981 14.3049 9.67044 14.1703 9.86721C14.0356 10.064 14.0305 10.0925 13.9218 10.297C13.8131 10.5093 13.8001 10.8148 13.6965 10.9492C13.7429 10.9267 13.7927 10.9119 13.844 10.9054C13.844 10.9054 13.7405 10.996 13.6965 11.0917C13.6525 11.1875 13.5748 11.3868 13.3833 11.5087C13.1918 11.6305 12.9483 11.708 12.6868 11.9954C12.4252 12.2775 12.1561 12.6349 12.0212 12.7634C12.0912 12.6417 12.187 12.3984 12.2129 12.2379C12.2388 12.0775 12.2076 11.8857 12.2516 11.6736C12.2957 11.4614 12.2957 11.3085 12.5076 10.9381C12.7196 10.5678 13.0824 9.28114 13.0824 9.28114L13.8643 9.03265L14.1 9.59193L14.0996 9.59278Z" fill="#B6933F"/>
<path fill-rule="evenodd" clip-rule="evenodd" d="M13.5352 9.11903C13.5352 9.11903 13.2997 9.45814 13.235 9.75852C13.1703 10.0589 13.2297 10.0329 13.191 10.1806C13.1678 10.2706 13.1678 10.365 13.191 10.455C13.2725 10.3236 13.3842 10.2135 13.5168 10.1338C13.7395 9.99933 13.9207 9.90341 14.0288 9.78958C14.1375 9.66789 14.2281 9.46855 14.4636 9.31581C14.3679 9.30284 14.2332 9.2588 14.2076 9.26461C14.3035 9.15589 14.5908 8.99017 14.8807 8.79084C15.1681 8.58604 15.15 8.50343 15.6161 8.29897C15.4634 8.32492 15.3909 8.286 15.2639 8.29897C15.3151 8.19026 15.4943 8.13838 15.6735 7.95986C15.8527 7.78134 15.5596 7.51715 15.5596 7.51715L14.1943 8.34301L13.5342 9.11971L13.5352 9.11903Z" fill="#C49937"/>
<path fill-rule="evenodd" clip-rule="evenodd" d="M9.83044 8.50276L9.86151 8.25427L10.2525 7.62775L10.6616 6.52746V5.0232L10.6305 4.15332L10.6952 3.58363L10.7444 3.40255L10.7962 3.33258L11.1301 3.50598L11.591 4.1325L11.6351 5.34167L11.1871 7.24972L9.9081 8.64526L9.83044 8.50276Z" fill="#DFC068"/>
<path fill-rule="evenodd" clip-rule="evenodd" d="M10.848 3.26258C10.848 3.26258 10.6432 3.26787 10.5995 4.11967C10.5558 4.97147 10.5346 5.4193 10.5036 5.84135C10.4725 6.26341 10.4001 6.51958 10.3638 6.76825C10.3274 7.01691 10.3068 7.35585 10.1904 7.56304C10.1392 7.65878 10.0298 7.95916 9.77344 8.18444C9.48604 8.43293 9.05664 8.6065 8.99161 8.61947C8.87761 8.64524 8.30024 8.70224 8.06472 8.83178C7.98195 8.87581 7.83944 8.92752 7.68158 9.07515C7.36823 9.35726 6.95147 9.86209 6.65109 10.4705C6.19029 11.3793 5.72949 13.9449 5.72949 13.9449L5.83309 13.7716C5.83309 13.7716 5.84606 13.5412 6.07646 13.1372C6.30174 12.7334 6.23705 12.2803 6.55023 11.5061C6.67191 11.211 6.82466 10.8279 7.01103 10.5016C7.30628 9.97081 7.66349 9.51513 8.02342 9.26663C8.61103 8.86284 9.25837 8.77477 9.25837 8.77477L9.95486 8.31397C9.95486 8.31397 10.0765 8.07845 10.2371 7.80914C10.4623 7.43129 10.7491 7.00923 10.8118 6.39568C10.9077 5.48688 10.6771 4.89142 10.6901 4.35297C10.7031 3.81452 10.7082 3.4184 10.8171 3.32249C10.926 3.22657 10.8481 3.26292 10.8481 3.26292L10.848 3.26258Z" fill="#A88F33"/>
<path fill-rule="evenodd" clip-rule="evenodd" d="M10.8479 7.32738C10.8479 7.32738 11.1551 6.57133 11.2957 5.90078C11.3216 5.76612 11.3734 5.63164 11.3863 5.52292C11.451 4.88856 11.4691 4.62709 11.3863 4.28013C11.3216 4.02413 11.0732 3.79339 10.9436 3.61453C10.8168 3.42799 10.7572 3.35853 10.7832 3.31928C10.8091 3.28002 10.91 3.21585 11.0083 3.22353C11.1128 3.22657 11.2156 3.25084 11.3104 3.29484C11.4052 3.33885 11.4901 3.40169 11.5599 3.47953C11.7592 3.70993 11.9171 4.49193 11.9171 4.49193L12.0832 5.52378L12.5052 6.8234L10.8482 7.32841L10.8479 7.32738Z" fill="#C99E3D"/>
<path fill-rule="evenodd" clip-rule="evenodd" d="M13.7345 6.54044C13.7345 6.54044 13.6775 6.56621 13.5741 6.54044C13.5785 6.58271 13.5712 6.62537 13.5529 6.66373C13.5346 6.7021 13.5061 6.73467 13.4705 6.75787C13.3618 6.71384 12.3441 6.8019 12.3441 6.8019C12.3441 6.8019 11.8703 6.71896 11.7227 6.09244C11.6193 5.6755 11.8004 5.10087 11.7408 4.72284C11.6502 4.16613 11.5234 4.05724 11.5104 3.88402C11.4974 3.71079 11.4845 3.66659 11.4845 3.55787C11.4275 3.5449 11.3938 3.52681 11.337 3.52681C11.324 3.47561 11.3498 3.43089 11.293 3.34027C11.324 3.35324 11.5363 3.37918 11.7848 3.6147C11.9896 3.80636 11.9896 3.87616 12.0205 3.91508C12.0593 3.95382 12.3726 4.22228 12.5073 4.48988C12.6419 4.75749 12.9034 5.61082 12.9629 5.7506C12.981 5.8076 13.0199 5.8646 13.1165 5.99397C13.2667 6.18051 13.4867 6.4889 13.7352 6.5401L13.7345 6.54044Z" fill="#B58634"/>
<path fill-rule="evenodd" clip-rule="evenodd" d="M12.0571 3.92804C12.214 4.1814 12.3549 4.44428 12.479 4.71515C12.6318 5.05939 12.7224 5.34167 12.914 5.57207C12.8105 5.27187 12.6266 4.68153 12.5179 4.47178C12.3962 4.24992 12.1478 4.01098 12.0571 3.92821V3.92804Z" fill="#A88F33"/>
<path fill-rule="evenodd" clip-rule="evenodd" d="M10.2965 8.18444C10.2965 8.18444 10.0351 8.24912 9.54834 8.50546C9.38774 8.58823 9.23516 8.65804 9.08754 8.72289C8.70405 8.89629 8.29274 9.05654 7.96643 9.14495C7.99237 9.17601 8.00517 9.18881 8.00517 9.18881C8.00517 9.18881 8.00517 9.31578 8.07514 9.38815C8.0364 9.42706 7.51843 9.77914 7.67135 10.9571C7.77477 10.9183 7.89645 10.8665 7.91455 10.8665C7.94578 10.8718 7.95346 10.9571 7.9922 10.9571C8.03094 10.9571 8.15792 10.9059 8.29257 10.7318C8.28745 10.8018 8.2098 11.506 8.62657 11.9797C8.70422 11.8891 8.901 11.5887 8.901 11.5887L8.90612 11.493C8.90612 11.493 8.92421 11.159 9.0331 10.8535C9.14198 10.548 9.35412 10.3227 9.35412 10.3227L10.4619 8.74081L10.2962 8.18427L10.2965 8.18444Z" fill="#E6C367"/>
<path fill-rule="evenodd" clip-rule="evenodd" d="M9.26091 10.5072C9.21019 10.543 9.15431 10.571 9.09519 10.59C9.0771 10.5253 9.05116 10.3026 9.2039 10.0851C9.38259 9.82351 9.77342 9.4844 9.88213 9.21475C9.95211 9.04118 9.92104 8.60632 10.5424 8.0496C11.1638 7.49289 11.407 7.3014 11.407 7.3014L12.4116 6.79657L13.6465 7.28331L13.033 9.688L12.5566 10.8144L10.6622 10.4572L9.26074 10.5072H9.26091Z" fill="#DCBA5A"/>
<path fill-rule="evenodd" clip-rule="evenodd" d="M9.98401 9.85425L10.2197 9.55916V9.34941C10.2197 9.34941 10.4812 9.27944 10.7633 8.99204C11.0454 8.70464 11.4364 8.15321 11.7808 8.18683C12.1252 8.22575 12.1588 8.93504 12.1718 9.13455C12.1848 9.33406 12.2288 9.78683 12.2986 10.0304C12.3762 10.2737 11.4598 11.1953 11.4598 11.1953L10.8373 11.6691L9.98401 9.85425Z" fill="#E9CE77"/>
<path fill-rule="evenodd" clip-rule="evenodd" d="M10.7133 12.3112C10.7133 12.3112 10.9049 12.0108 10.7645 11.9461C10.8472 11.7598 11 11.563 11 11.563C11 11.563 11.1087 11.2938 11.4608 10.9624C11.8129 10.631 12.0305 10.4108 12.0875 10.1883C12.1226 10.0432 12.1417 9.89476 12.1445 9.74554C12.1825 9.77664 12.2232 9.80434 12.2662 9.82832C12.3232 9.85426 12.5923 10.0768 12.5536 10.5248C12.5148 10.9728 12.3488 11.1592 12.3488 11.1592C12.3488 11.1592 12.1883 11.3196 12.0745 11.4025C11.9526 11.4853 11.9088 11.5811 11.7041 11.5889C11.7252 11.5722 11.7488 11.559 11.7741 11.55C11.7741 11.55 11.5618 11.5242 11.4478 11.6277C11.3338 11.7311 11.0915 12.0497 10.9698 12.1456C10.8481 12.2233 10.7138 12.3113 10.7138 12.3113L10.7133 12.3112Z" fill="#CDAE50"/>
<path fill-rule="evenodd" clip-rule="evenodd" d="M19.3217 7.27548C19.0158 7.16401 18.6944 7.10112 18.3691 7.08912C17.8253 7.07103 17.0305 7.10209 16.2513 7.10721C15.4124 7.11233 14.6513 6.8198 13.595 6.76809C13.4216 6.6645 12.9806 6.21138 11.604 7.17189C11.6868 7.16677 12.6034 6.95958 12.9217 7.35843C13.2427 7.75455 13.1521 8.42766 13.1083 8.58808C13.0253 8.94546 12.756 9.46582 12.6475 9.83088C12.5389 10.1959 12.5645 10.3878 12.4869 10.6438C12.4092 10.8998 12.2384 11.0269 12.3392 11.322C12.4739 11.2392 12.544 11.2392 12.769 10.7344C12.9939 10.2296 12.9477 9.86962 13.3206 9.44244C13.6856 9.0127 14.2934 8.42492 14.5245 8.2773C14.7555 8.12967 16.5904 7.17701 18.5116 8.08581C18.9749 8.03666 19.3219 7.27531 19.3219 7.27531L19.3217 7.27548Z" fill="#D2A83E"/>
<path fill-rule="evenodd" clip-rule="evenodd" d="M12.3779 6.9232C12.376 6.90374 12.3717 6.88459 12.3651 6.86619C12.3471 6.82833 12.3235 6.7934 12.2951 6.7626C12.2951 6.7626 11.8394 6.67983 11.609 6.7056C11.2051 6.74963 10.84 7.24934 10.6692 7.50568C10.4983 7.76202 10.286 8.15797 10.0556 8.3626C10.0582 8.34266 10.0536 8.32248 10.0427 8.3056C10.0427 8.3056 10.0556 8.32369 10.0299 8.34963C10.0041 8.37557 10.0039 8.38837 10.0169 8.40083L10.0558 8.43957C10.0686 8.43957 10.426 8.27897 10.9127 7.82517C11.4305 7.3514 11.8266 7.10837 12.0338 7.02508C12.1443 6.97813 12.2598 6.94394 12.3781 6.9232H12.3779Z" fill="#C29637"/>
<path fill-rule="evenodd" clip-rule="evenodd" d="M21.217 4.97662C21.217 4.97662 21.134 5.08005 21.0304 5.19405C20.8 5.43742 20.4997 5.71168 20.2433 5.99397C20.0001 6.26328 19.7257 6.47303 19.4175 6.82511C19.1092 7.1772 18.7519 7.56803 18.6614 7.68203C18.5786 7.79604 18.514 7.98241 18.514 8.07815C18.4699 8.04709 18.4182 8.01347 18.4182 8.01347C18.44 8.05411 18.466 8.09233 18.4959 8.12747C18.5605 8.2181 18.6614 8.33227 18.7133 8.4019C18.7769 8.49055 18.8226 8.59079 18.8478 8.69699C18.8788 8.70211 19.0782 8.74102 19.3268 8.33193C19.5755 7.92284 19.9015 7.47501 19.9015 7.47501L20.4193 6.70599L20.7456 6.0537L21.1552 5.32359L21.2175 4.97662H21.217Z" fill="#AC8132"/>
<path fill-rule="evenodd" clip-rule="evenodd" d="M21.7477 4.45367C21.7477 4.45367 21.4344 4.70967 21.3127 4.86327C21.191 5.01687 20.9031 5.41999 20.9031 5.41999L21.0067 5.40702L21.5323 4.9411L21.7371 4.57604L21.7475 4.45436L21.7477 4.45367Z" fill="#A88F33"/>
<path fill-rule="evenodd" clip-rule="evenodd" d="M21.6518 25.0285C21.6518 25.0285 21.6466 24.8162 21.7658 24.6893C21.8874 24.5624 22.1955 24.376 22.4959 23.677C22.7962 22.9779 22.8297 22.82 22.8297 22.82C22.8297 22.82 22.2912 23.2808 21.9593 23.3895C22.037 23.229 22.081 23.1151 22.1199 23.0322C22.0759 22.9934 21.8895 22.9494 21.8714 22.9287C21.9748 22.8252 22.0318 22.5714 22.2416 22.4031C22.5109 22.1983 23.0028 21.8464 23.385 21.5327C23.7673 21.219 24.519 20.4894 24.6149 20.2771C24.6719 20.3599 24.6847 20.4116 24.6847 20.4116C24.6847 20.4116 24.3068 20.9036 24.11 21.2168C23.9365 21.4861 23.9494 21.6388 23.9494 21.6388L24.3068 21.4852C24.3068 21.4852 24.4102 21.8684 23.9418 22.4511C24.1466 22.3734 24.2292 22.42 24.3456 22.3551C24.1539 22.477 23.8899 22.6427 23.6414 23.0982C23.398 23.5539 23.0666 24.0847 22.5075 24.4159C21.9637 24.7655 21.6504 25.0269 21.6504 25.0269L21.6518 25.0285Z" fill="#A67A2E"/>
<path fill-rule="evenodd" clip-rule="evenodd" d="M20.2485 7.54497C20.2485 7.54497 20.0362 7.98751 20.0052 8.33191C20 8.41486 19.9792 8.47954 19.9792 8.57528C19.9741 8.88333 19.9973 9.22774 19.928 9.38817C19.9021 9.32348 19.8891 9.27945 19.8632 9.25368C19.8244 9.3624 19.7545 9.70151 19.6975 9.82832C19.6717 9.74554 19.6147 9.45814 19.62 9.11903C19.6253 8.77991 19.6328 8.71506 19.6328 8.64526C19.62 8.74868 19.55 8.88863 19.5241 8.9714C19.4853 8.9016 19.4413 8.81097 19.3894 8.73588C19.3583 8.78708 19.3196 8.86268 19.286 8.9016C19.2807 8.87054 19.2679 8.78759 19.26 8.6712C19.2549 8.53654 19.2471 8.36314 19.2549 8.32679C19.2677 8.25699 19.3766 7.98256 19.607 7.73134C19.8814 7.43096 20.1637 6.85377 20.2465 6.67508C20.3293 6.49639 20.6813 5.75348 20.6813 5.75348H20.9507L20.5597 6.64402C20.5597 6.64402 20.3241 7.13076 20.2025 7.30962C20.0808 7.48848 19.8244 8.00099 19.7104 8.20033C19.7932 8.09161 19.8632 8.03461 19.9461 7.93101C20.0263 7.85848 20.2489 7.54531 20.2489 7.54531L20.2485 7.54497Z" fill="#8C6228"/>
<path fill-rule="evenodd" clip-rule="evenodd" d="M21.7529 4.41986C21.7089 4.55526 21.6394 4.68097 21.5481 4.79021C21.3875 4.98187 21.0431 5.23804 20.875 5.4425C20.7214 5.64183 20.4142 6.18558 20.5538 6.83019C20.605 6.69041 20.7014 6.41342 20.9577 6.10007C21.2141 5.78673 21.4885 5.42696 21.6233 5.14741C21.7578 4.86513 21.7759 4.64258 21.7759 4.64258L21.8271 4.5779L21.7961 4.43027L21.752 4.41986H21.7529Z" fill="#CBA94C"/>
<path fill-rule="evenodd" clip-rule="evenodd" d="M26.9955 21.5927C26.9955 21.5927 26.8919 21.3106 26.8608 21.0543C26.8298 20.7979 26.912 20.7471 26.8168 20.4537C26.7598 20.275 26.6564 20.3001 26.6304 20.275C26.6045 20.2499 26.5864 19.9799 26.5915 19.8323C26.5966 19.6847 26.5864 19.4932 26.5605 19.4102C26.5217 19.3792 26.4958 19.3532 26.4388 19.1618C26.3741 18.9701 26.343 18.8744 26.312 18.8175C26.2809 18.7607 26.1901 18.7088 26.1901 18.6518C26.1901 18.5378 26.2937 18.4784 26.2937 18.447C26.2886 18.3823 26.2109 18.4342 26.1901 18.4159C26.1643 18.3849 26.255 18.1985 26.2214 18.1726C26.2084 18.1598 26.1178 18.2685 26.0944 18.2374C26.0684 18.2062 26.0374 17.8981 25.9908 17.6937C25.9469 17.4943 25.9002 17.3494 25.895 17.2899C25.8899 17.2329 25.5377 16.2283 25.4523 15.985C25.3836 15.7793 25.3257 15.5702 25.2789 15.3584C25.253 15.2368 25.2349 14.9881 25.2219 15.014C25.209 15.04 25.2168 15.1668 25.196 15.1617C25.1779 15.1564 25.1132 14.7138 25.0926 14.6439C25.0745 14.5739 24.9656 14.3367 24.939 14.165C24.913 13.9914 24.8562 13.5383 24.8173 13.2302C24.7784 12.9222 24.7603 12.7954 24.7603 12.7182C24.7666 12.5296 24.7562 12.3407 24.7292 12.1538C24.678 11.8275 24.5756 11.4314 24.4858 11.2012C24.3124 10.7661 23.8515 9.65289 23.769 9.3759C23.769 9.30592 23.8597 9.34483 23.8597 9.34483C23.8597 9.34483 24.0848 9.90923 24.2505 10.3441C24.4111 10.7791 24.5638 11.1623 24.6027 11.2012C24.6338 11.2399 24.8772 11.6671 24.9859 12.3661C25.0946 13.0652 25.1334 13.7098 25.1982 14.1395C25.2293 14.3443 25.2552 14.5616 25.3199 14.779C25.3897 15.0147 25.4984 15.2581 25.6409 15.6308C25.7626 15.9442 25.8532 16.2056 25.9024 16.4309C25.9594 16.7183 25.9594 16.9357 25.993 17.0783C26.0242 17.1999 26.0707 17.4431 26.1795 17.7951C26.2884 18.147 26.4487 18.6003 26.5574 18.8824C26.7699 19.4468 26.8646 19.918 26.8967 20.1692C26.925 20.4281 27.0209 21.3239 26.995 21.5931L26.9955 21.5927Z" fill="#A88F33"/>
<path fill-rule="evenodd" clip-rule="evenodd" d="M21.7658 4.38882L21.7528 4.41988C21.7528 4.41988 21.7916 4.43285 21.7839 4.48473C21.7844 4.55572 21.7801 4.62666 21.7709 4.69704C21.7581 4.78767 21.7322 4.85747 21.727 4.91447C21.727 5.03616 21.7451 5.17594 21.5734 5.5229C21.5222 5.61864 21.4907 5.70142 21.4647 5.75842C21.4 5.8982 21.3871 5.91902 21.3301 5.9837C21.4207 5.9325 21.747 5.7277 21.9126 5.75842C21.7987 5.8231 21.6252 5.95008 21.5164 6.1158C21.5424 6.12092 21.6511 6.14174 21.8236 6.1158C22.111 6.07176 22.4321 5.96817 22.7142 5.98882C23.0224 6.00691 22.9007 5.61864 22.9007 5.61864L22.5451 4.83682L21.8719 4.36322L21.7658 4.38899V4.38882Z" fill="#BE9C44"/>
<path fill-rule="evenodd" clip-rule="evenodd" d="M23.5211 10.2453C23.5211 10.2453 23.2207 9.94489 23.099 8.91406C22.9773 7.87846 23.0033 6.35406 23.0033 6.35406L22.7599 5.75861C22.7599 5.75861 22.7087 5.36249 22.5812 5.21503C22.4537 5.06758 22.2033 4.81892 22.0893 4.69723C21.9753 4.57554 21.846 4.40983 21.7683 4.38389C21.8071 4.3192 21.9806 3.95415 22.6459 3.94903C23.3111 3.94391 23.5163 4.31408 23.5857 4.44874C23.6552 4.5834 23.9689 5.16554 24.0853 6.27487C24.194 7.38284 24.1993 7.46578 24.1812 7.84893C24.1682 8.06124 24.0983 8.5531 23.9764 9.07858C23.8651 9.52402 23.7434 10.0212 23.5207 10.2463L23.5211 10.2453Z" fill="#A17C34"/>
<path fill-rule="evenodd" clip-rule="evenodd" d="M22.5792 11.1281C22.6793 11.1353 22.7793 11.1128 22.8666 11.0633C22.9624 11.0581 23.3093 11.1022 23.5759 10.7631C23.594 10.8405 23.6408 11.0505 23.5189 11.2368C23.5838 11.172 23.6795 11.1462 23.6925 11.1281C23.6976 11.2239 23.7882 11.5189 23.4051 12.2361C23.5085 12.1223 23.6302 12.1274 23.7389 12.1144C23.7442 12.2491 23.8166 12.702 23.6251 12.9455C23.4983 13.1113 23.2911 13.0594 23.2911 13.0594C23.2941 13.0232 23.2941 12.9868 23.2911 12.9507C23.286 12.8807 23.26 12.8109 23.2783 12.7643C23.1782 12.7186 23.087 12.6554 23.009 12.5778C22.7837 12.3655 22.4912 12.0031 22.4705 11.7338C22.4446 11.4334 22.7139 11.3688 22.7139 11.3688C22.6913 11.3486 22.6721 11.325 22.6569 11.2988C22.6439 11.2549 22.6309 11.1849 22.5792 11.1281Z" fill="#8C6228"/>
<path fill-rule="evenodd" clip-rule="evenodd" d="M20.5824 7.87113C20.5824 7.87113 20.5694 7.85303 20.4996 7.93581C20.5126 7.85303 20.5256 7.77521 20.5307 7.70012C20.5637 7.63059 20.6065 7.56612 20.6577 7.50863C20.6188 7.58611 20.5928 7.65609 20.5928 7.65609C20.5928 7.65609 20.6887 7.4774 20.8285 7.36868C20.9243 7.29103 21.0459 7.25485 21.0976 7.18231C21.1547 7.10466 21.1417 7.09169 21.1547 7.07872C21.1547 7.07872 21.2816 6.99595 21.4758 6.75241C21.5016 6.72134 21.5405 6.68772 21.5665 6.65666C21.6103 6.63857 21.7139 6.59198 21.8356 6.52969C21.9626 6.45988 22.1049 6.36414 22.193 6.32489C22.3664 6.24723 22.5504 6.25508 22.6357 6.13323C22.7004 6.11514 22.7702 5.92092 22.7574 5.75537C22.8531 5.79411 23.345 6.09961 23.5134 6.7676C23.6351 7.24137 23.4175 7.97148 23.3269 8.32373C23.2363 8.67599 23.2235 8.93728 23.0965 9.09771C22.9359 9.31019 22.4183 9.60971 22.2913 9.75802C22.1826 9.8797 21.8564 10.1878 21.8692 10.4103C21.8822 10.576 22.0867 10.6663 22.1309 10.6977C22.1751 10.7291 22.1747 10.7677 22.2577 10.7489C22.3406 10.7301 22.3715 10.6919 22.4053 10.6919C22.444 10.697 22.444 10.7049 22.4621 10.7049C22.4753 10.7045 22.4883 10.7027 22.501 10.6996C22.501 10.6996 22.4881 10.9353 21.9366 11.0068C21.8977 11.0121 21.859 11.0249 21.8097 11.0327C21.8745 11.0017 21.9133 11.0017 21.9832 10.9059C21.9056 10.8929 21.6829 10.88 21.6259 10.8619C21.644 10.8308 21.7035 10.7479 21.7527 10.7091C21.7967 10.6704 21.7475 10.6579 21.7088 10.6781C21.6421 10.7235 21.5781 10.7727 21.5171 10.8255C21.4525 10.8825 21.3955 10.9602 21.2919 11.0303C21.2608 10.9267 21.2659 10.73 21.3878 10.5876C21.3565 10.5927 21.297 10.6834 21.2402 10.6653C21.2299 10.5708 21.236 10.4753 21.2582 10.383C21.2893 10.2664 21.4576 10.062 21.4576 10.062L22.2705 8.60943L22.4439 7.50914L20.5824 7.87078V7.87113Z" fill="#92723A"/>
<path fill-rule="evenodd" clip-rule="evenodd" d="M20.5386 7.93322C20.5386 7.93322 20.4946 7.96428 20.5826 8.02384C20.5697 8.04193 20.5386 8.10661 20.4997 8.15065C20.4558 8.20185 20.4091 8.23359 20.391 8.27762C20.3522 8.36824 20.3212 8.43037 20.3212 8.46928C20.3212 8.50819 20.3082 8.75668 20.1995 8.91711C20.1606 8.97411 20.1165 9.06986 20.0855 9.13454C20.0208 9.24837 19.9638 9.33934 19.9508 9.39054C19.925 9.48116 19.907 9.72965 19.907 9.72965C19.907 9.72965 19.964 9.65968 19.9846 9.63391C19.9534 9.69859 19.9198 9.76839 19.8706 9.82028C19.9017 9.79434 19.9923 9.72965 20.145 9.595C20.3573 9.41648 20.6888 9.11611 21.0927 8.8782C20.9709 8.92223 20.8675 8.92223 20.7847 8.9352C20.8494 8.87052 21.4319 8.187 21.7374 8.12231C21.7559 8.09879 21.7651 8.06927 21.7633 8.03937L21.5017 8.0136L20.9709 8.12743L20.8934 7.71783L20.5386 7.9327V7.93322Z" fill="#B18E3E"/>
<path fill-rule="evenodd" clip-rule="evenodd" d="M21.3826 10.2633C21.3826 10.2633 21.3127 10.3331 21.248 10.5067C21.1982 10.4547 21.1555 10.3963 21.121 10.3331C21.0253 10.1727 20.8778 9.96809 20.5334 10.0847C20.5283 9.97594 20.5204 9.91893 20.5334 9.84128C20.5904 9.82848 20.7638 9.6887 20.9372 9.48408C21.0591 9.3443 21.1729 9.1837 21.2505 8.97924C21.3017 8.94033 21.3903 8.87565 21.5065 8.80056C21.6723 8.68672 21.8716 8.53124 21.9027 8.35785C21.825 8.38891 21.6593 8.46656 21.4106 8.45376C21.5065 8.40973 21.654 8.36314 21.6359 8.17148C21.6748 8.14554 21.7059 8.12745 21.7059 8.12745C21.6767 8.11771 21.646 8.11332 21.6153 8.11448C21.61 8.09638 21.6023 8.07061 21.5583 8.08341C21.5142 8.09621 21.507 8.09638 21.5012 8.11448C21.4832 8.11977 21.4236 8.11448 21.3796 8.14571C21.3355 8.17694 21.2138 8.28019 21.1673 8.29828C21.1853 8.26722 21.2111 8.2208 21.2111 8.2208C21.2111 8.2208 21.0843 8.2336 20.9937 8.272C20.828 8.329 20.6365 8.4326 20.4423 8.53346C20.4604 8.5024 20.4682 8.48226 20.481 8.47646C20.4938 8.47066 20.525 8.46366 20.525 8.45837C20.525 8.45308 20.5122 8.40717 20.5199 8.38857C20.578 8.26556 20.6465 8.14776 20.7247 8.03648C20.8153 7.91462 20.8334 7.74123 20.8334 7.74123L21.2295 7.54189L22.3428 7.28589L23.0652 7.32992L22.9746 7.82963L22.5479 8.70208L22.1829 9.49688L21.766 9.98379L21.3828 10.2633H21.3826Z" fill="#543E26"/>
<path fill-rule="evenodd" clip-rule="evenodd" d="M23.1872 8.10084C23.1872 8.10084 22.7521 8.63929 22.6305 8.72223C22.7081 8.55652 23.1872 7.57006 23.3606 7.29563C23.3218 7.26457 23.2699 7.26457 23.3916 6.78363C23.2882 7.02683 23.2519 7.15381 23.1665 7.21849C23.0812 7.28317 23.0706 7.26252 23.0129 7.26252C23.0238 7.24282 23.0283 7.22021 23.0257 7.19784C23.0257 7.19784 22.6607 7.15381 22.4113 7.15381C22.162 7.15381 21.6684 7.28846 21.3938 7.39718C21.1764 7.4878 21.0547 7.4878 20.977 7.54463C20.8994 7.60932 20.8554 7.67929 20.8164 7.69738C20.7854 7.71547 20.6379 7.76206 20.6041 7.81121C20.5731 7.86241 20.5214 7.91993 20.5214 7.9329C20.5214 7.94587 20.5084 7.96413 20.5473 7.95099C20.5601 7.94587 20.656 7.89399 20.7647 7.8293C20.9122 7.74653 21.0909 7.65079 21.2204 7.59379C21.5906 7.44616 21.7072 7.4721 21.8727 7.44104C22.0461 7.40998 22.2948 7.33744 22.4603 7.33744C22.626 7.33232 22.9394 7.33744 23.0119 7.35041C22.9808 7.37636 22.9549 7.40742 22.9679 7.51613C22.9679 7.54719 22.9419 7.58081 22.9167 7.65591C22.8392 7.86822 22.6916 8.2203 22.6095 8.39899C22.4956 8.64219 22.3663 8.84682 22.3023 8.97363C22.2383 9.10043 22.0975 9.43442 21.958 9.61311C21.8186 9.7918 21.7457 9.90052 21.702 9.93943C21.6583 9.97834 21.3447 10.2086 21.368 10.2915C21.425 10.2734 21.785 10.1379 22.0463 9.84368C22.3076 9.54945 22.3596 9.36991 22.5641 9.20932C22.7685 9.04872 22.9291 8.77958 23.0249 8.55703C23.1051 8.34984 23.087 8.28516 23.1879 8.10135L23.1872 8.10084Z" fill="#806031"/>
<path fill-rule="evenodd" clip-rule="evenodd" d="M13.8124 12.1196C13.8124 12.1196 13.7554 12.3552 13.6258 12.4717C13.499 12.5857 13.2737 12.684 13.248 12.8757C13.2169 13.0672 13.4733 13.1631 13.4733 13.1631C13.4733 13.1631 13.3333 13.3935 13.3333 13.5669C13.3333 13.7456 13.3282 13.7792 13.3463 13.95C13.3257 13.9632 13.3083 13.9807 13.2951 14.0012C13.2951 14.0012 13.3079 14.167 13.4349 14.2704C13.5618 14.3738 13.6704 14.4361 13.7351 14.4102C13.7449 14.4313 13.7536 14.4529 13.761 14.475C13.761 14.475 13.8569 14.2316 13.9216 14.0193C13.9863 13.8019 14.0433 13.8328 14.069 13.5403C14.0948 13.2477 14.3762 12.7455 14.3762 12.7455L14.5682 12.3162L14.2551 12.0729L13.8124 12.1195V12.1196Z" fill="#B6903C"/>
<path fill-rule="evenodd" clip-rule="evenodd" d="M14.3949 12.5416C14.3303 12.6079 14.2707 12.6789 14.2166 12.7539C14.1338 12.8679 14.0691 12.9714 13.9474 13.0156C13.8257 13.0598 13.7481 13.0594 13.7558 13.1813C13.7635 13.3031 13.8775 13.3547 13.9421 13.4168C14.0121 13.4815 14.0691 13.5902 14.0381 13.7121C14.0768 13.694 14.1468 13.6731 14.2115 13.5334C14.2761 13.3936 14.7286 12.5418 14.7286 12.5418H14.3949V12.5416Z" fill="#685026"/>
<path fill-rule="evenodd" clip-rule="evenodd" d="M16.1792 10.5765C16.1792 10.5765 16.2179 10.4731 16.1792 10.398C16.1403 10.3204 15.9047 10.2944 15.7882 10.2064C15.6665 10.1157 15.5189 10.0528 15.3972 10.0925C15.4153 10.0485 15.4878 9.95259 15.4282 9.93193C15.3712 9.91384 15.1591 10.0096 15.1021 10.0536C15.0451 10.0977 14.9156 10.1494 14.8898 10.1806C14.864 10.2118 14.8198 10.2712 14.7939 10.2453C14.7679 10.2272 14.7551 10.1806 14.7111 10.2064C14.6671 10.2321 14.4551 10.4057 14.416 10.5067C14.3769 10.6078 14.289 10.8331 14.025 11.0892C13.761 11.3454 13.647 11.5113 13.7246 11.607C13.8023 11.7028 13.8386 11.633 13.8516 11.7157C13.8616 11.797 13.8572 11.8794 13.8386 11.9591C13.8076 12.0938 13.7559 12.2206 13.8257 12.2465C14.0044 12.3035 14.1779 12.1953 14.2167 12.2284C14.2943 12.2982 14.1726 12.5494 14.3564 12.5986C14.543 12.6498 14.7268 12.5546 14.7268 12.5546L15.405 12.1895L16.0575 11.8453L16.3913 11.185L16.2123 10.6335L16.1781 10.5765H16.1792Z" fill="#D4B968"/>
<path fill-rule="evenodd" clip-rule="evenodd" d="M15.5393 12.1533C15.5393 12.1533 15.4253 11.9799 15.5652 11.827C15.7051 11.6741 15.9043 11.6096 15.982 11.5138C15.9672 11.4956 15.9474 11.4821 15.925 11.4751C15.9765 11.3829 16.0552 11.3087 16.1502 11.2626C16.1115 11.2239 16.0596 11.1928 16.0028 11.1928C15.8758 11.1928 15.798 11.2705 15.6816 11.2705C15.5678 11.2705 15.5548 11.2135 15.5548 11.2135C15.5548 11.2135 15.7464 11.1954 15.7282 11.1099C15.7101 11.0192 15.677 11.0192 15.677 11.0192C15.677 11.0192 16.0472 10.8656 16.1118 10.7837C16.1765 10.7018 16.1688 10.605 16.1818 10.5663C16.2257 10.5663 16.482 10.4316 16.5856 10.4886C16.6892 10.5456 16.6167 10.7009 16.6167 10.7009C16.6167 10.7009 16.9302 10.4653 17.0899 10.2342C17.2297 10.2471 17.2947 10.1384 17.3971 10.1384C17.5241 10.1384 17.7235 10.3118 17.7622 10.682C17.7881 10.8943 17.8269 11.016 17.7881 11.3915C17.77 11.6038 17.7752 12.0571 17.8393 12.282C17.8832 12.4607 17.9868 12.4426 17.9868 12.4426C17.9709 12.497 17.9394 12.5456 17.8962 12.5824C17.8262 12.6471 17.8185 12.8181 17.8262 12.8827C17.8365 12.93 17.8495 12.9767 17.8651 13.0225C17.8651 13.0225 17.7823 13.1183 17.7615 13.1831C17.7434 13.2478 17.6581 13.2918 17.5958 13.2918C17.5335 13.2918 17.5647 13.2865 17.482 13.2918C17.3992 13.2971 17.3732 13.3099 17.3214 13.2918C17.2695 13.2737 17.2307 13.2529 17.2516 13.087C17.2696 12.9213 16.6121 12.5356 16.6121 12.5356L15.5369 12.1525L15.5393 12.1533Z" fill="#CCA849"/>
<path fill-rule="evenodd" clip-rule="evenodd" d="M14.3042 13.7894C14.3042 13.7894 14.5397 14.1028 15.5081 14.1028C15.9689 14.1028 16.1295 14.0588 16.2249 14.0328C16.3285 14.0069 16.7167 13.8543 17.1077 13.3933C17.4598 12.9766 17.3822 12.8057 17.3822 12.8057L17.1774 12.7747L16.5118 12.8653L14.5423 13.7041L14.3033 13.7894H14.3042Z" fill="#585136"/>
<path fill-rule="evenodd" clip-rule="evenodd" d="M15.0266 13.8671C15.0266 13.8671 14.1877 14.0536 14.1877 13.5229C14.1877 13.0051 14.7055 12.4613 14.8351 12.3656C14.9697 12.2697 15.2908 12.1608 15.2908 12.1608H16.0649L16.2124 12.5518L16.1477 13.3957L15.0266 13.8669V13.8671Z" fill="#252211"/>
<path fill-rule="evenodd" clip-rule="evenodd" d="M15.8006 12.3191C15.8006 12.3191 15.6402 12.1714 15.2751 12.3703C14.9101 12.5691 14.6148 12.9847 14.5967 13.362C14.5787 13.6958 14.8712 13.9445 15.3269 13.9575C15.666 13.9703 15.8706 13.9315 15.9742 13.9063C15.9482 13.8752 15.8136 13.7069 15.8136 13.7069L15.8008 12.3192L15.8006 12.3191Z" fill="#C3B378"/>
<path fill-rule="evenodd" clip-rule="evenodd" d="M15.6428 12.4017C15.6428 12.4017 15.604 12.3706 15.4892 12.4327C15.3934 12.4839 15.2537 12.6193 15.1449 12.715C15.075 12.772 15.0309 12.7978 14.9913 12.8418C14.8307 13.0335 14.6961 13.3468 14.7739 13.5021C14.8517 13.6575 15.1079 13.8361 15.7604 13.7145L15.6409 12.4019L15.6428 12.4017Z" fill="#E6D89C"/>
<path fill-rule="evenodd" clip-rule="evenodd" d="M15.4305 12.7228C15.4305 12.7228 15.3269 12.8834 15.3269 13.1397C15.3269 13.4012 15.4745 13.818 16.0182 13.849C16.435 13.875 16.7146 13.2485 17.0175 13.0051C17.2479 12.8187 17.3877 12.8134 17.3877 12.8134C17.3877 12.8134 17.1521 12.5574 16.5231 12.2258C15.9017 11.8918 15.2052 11.8478 14.8271 12.3605C15.0058 12.3475 15.5832 12.1999 15.5832 12.1999L15.8655 12.2905L15.4305 12.723V12.7228Z" fill="#252211"/>
<path fill-rule="evenodd" clip-rule="evenodd" d="M16.2434 13.0619C16.2253 13.0232 16.2123 12.9713 16.2874 12.9585C16.3625 12.9457 16.3961 12.9532 16.4221 13.0097C16.448 13.0662 16.4733 13.1133 16.4349 13.1367C16.3961 13.1573 16.2951 13.1367 16.2432 13.0616L16.2434 13.0619ZM16.1217 12.6969C16.1217 12.6969 16.0958 12.715 16.1087 12.6788C16.1139 12.6349 16.1476 12.5571 16.2304 12.5754C16.3132 12.5936 16.2953 12.6841 16.2816 12.71C16.268 12.736 16.1988 12.7798 16.147 12.7612C16.1404 12.7595 16.1343 12.7563 16.1292 12.7518C16.1241 12.7474 16.1201 12.7418 16.1176 12.7355C16.1151 12.7292 16.1141 12.7223 16.1146 12.7156C16.1152 12.7088 16.1174 12.7023 16.121 12.6965L16.1217 12.6969Z" fill="#6F674D"/>
<path fill-rule="evenodd" clip-rule="evenodd" d="M9.11365 12.8624C9.11365 12.8624 9.31845 13.016 9.55636 13.01C9.79188 13.0047 10.0948 12.7615 10.2346 12.606C10.3174 12.5154 10.3882 12.4197 10.465 12.3446C10.5298 12.2799 10.5737 12.2488 10.6048 12.2048C10.6488 12.1536 10.6954 12.0574 10.7188 12.0261C10.6618 12.0702 10.579 12.148 10.4935 12.1997C10.4107 12.2509 10.232 12.3471 10.1595 12.3731C10.0897 12.399 9.3647 12.7827 9.3647 12.7827L9.11365 12.8624Z" fill="#AC924C"/>
<path fill-rule="evenodd" clip-rule="evenodd" d="M9.42664 10.9494C9.42664 10.9494 9.54047 10.8718 9.76063 10.8224C9.97294 10.7712 10.4001 10.7318 10.4001 10.7318L10.7522 10.8854L10.892 11.4162L10.636 11.9678L10.3098 12.1726L9.93949 11.5771L9.42749 10.9504L9.42664 10.9494Z" fill="#9F8E57"/>
<path fill-rule="evenodd" clip-rule="evenodd" d="M8.96585 11.4232L8.84399 11.5142C8.84399 11.5142 8.87523 11.4572 8.901 11.2838C8.92677 11.1104 9.06159 10.6883 9.25837 10.445C9.45515 10.2016 9.45003 10.2146 9.45003 10.2146C9.43192 10.2112 9.41332 10.2118 9.39546 10.2163C9.37759 10.2207 9.36088 10.2289 9.34644 10.2403C9.37238 10.183 9.5381 9.97819 9.70381 9.87579C9.86953 9.77339 9.93421 9.74113 10.1076 9.82459C10.281 9.90804 10.325 9.95139 10.452 9.94627C10.579 9.94115 10.6875 9.8065 10.6875 9.8065C10.6875 9.8065 10.7135 9.88927 10.6177 10.0809C10.522 10.2726 10.144 10.6634 10.144 10.6634L9.35685 11.2019L8.96585 11.4237V11.4232Z" fill="#EAC970"/>
<path fill-rule="evenodd" clip-rule="evenodd" d="M9.54817 10.8848C9.54817 10.8848 10.1179 10.9624 10.2913 10.802C10.2964 10.8201 10.3172 10.8201 10.3172 10.833C10.3158 10.8428 10.3112 10.8519 10.3042 10.8588C10.3231 10.8558 10.3421 10.8541 10.3612 10.8537C10.384 10.8605 10.4075 10.8648 10.4312 10.8667C10.4503 10.8663 10.4693 10.8645 10.4882 10.8614C10.4864 10.8742 10.482 10.8866 10.4753 10.8978C10.4687 10.9089 10.4598 10.9186 10.4493 10.9262C10.4752 10.9262 10.5005 10.9314 10.5005 10.952C10.5005 10.9727 10.5056 11.0349 10.4745 11.0479C10.4488 11.055 10.4214 11.0532 10.3969 11.0426C10.3989 11.0916 10.4123 11.1395 10.4358 11.1826C10.487 11.2783 10.5962 11.3874 10.743 11.356C10.743 11.356 10.8205 11.5423 10.4943 11.9565C10.4505 12.0135 10.4037 12.0912 10.3469 12.1559C10.3244 12.2048 10.3073 12.256 10.2957 12.3086C10.2957 12.3086 10.8473 12.0963 11.0051 11.6121C11.1657 11.1254 11.1968 10.6465 11.1657 10.1987C11.1605 10.0717 11.1398 9.98125 11.1087 9.9164C11.0311 9.7558 10.8135 9.78174 10.7256 9.87236C10.5986 9.99934 10.3863 10.3151 10.0912 10.5325C9.79086 10.7499 9.77806 10.7885 9.54749 10.8848H9.54817Z" fill="#D7BC6B"/>
<path fill-rule="evenodd" clip-rule="evenodd" d="M8.86477 11.5838C8.86477 11.5838 8.75605 11.6485 8.69905 11.891C8.64205 12.1395 8.75025 12.4424 8.81288 12.5381C8.87552 12.6339 9.01768 12.8955 9.3126 12.9085C9.38559 12.9081 9.45778 12.8931 9.5249 12.8645C9.62786 12.8173 9.72442 12.7572 9.81231 12.6858C9.93928 12.59 10.0427 12.5073 10.0297 12.4994C9.99868 12.4864 9.24791 11.865 9.24791 11.865L8.96563 11.55L8.8646 11.5841L8.86477 11.5838Z" fill="#585136"/>
<path fill-rule="evenodd" clip-rule="evenodd" d="M9.57439 12.6141C9.57439 12.6141 9.72714 12.6013 9.81776 12.5443C9.90839 12.4873 9.28699 11.8712 9.28699 11.8712L9.33102 12.5368L9.57439 12.6141Z" fill="#453A25"/>
<path fill-rule="evenodd" clip-rule="evenodd" d="M8.91396 11.537C8.91396 11.537 8.8363 11.6846 8.8363 11.7236C8.82333 11.8504 8.86225 12.249 8.89331 12.3758C8.92437 12.5105 9.09265 12.715 9.31025 12.715C9.44473 12.715 9.63127 12.6322 9.63127 12.6115C9.63127 12.5856 9.43961 12.5603 9.3879 12.4639C9.35684 12.4127 9.34387 12.2854 9.3367 12.1567C9.33158 12.0739 9.33158 11.9833 9.36264 11.9519C9.43261 11.8743 9.44541 11.6515 9.44541 11.6515L9.6939 11.1899H9.36708L8.97608 11.4333L8.91396 11.537Z" fill="#84754B"/>
<path fill-rule="evenodd" clip-rule="evenodd" d="M8.81812 11.6796C8.81812 11.6796 9.07412 11.3404 9.30486 11.2626C9.5356 11.1848 9.63885 11.2316 9.63885 11.2316L9.5042 11.576L9.31254 11.7883L9.32551 11.897C9.32551 11.897 9.29428 12.1844 9.48593 12.3837C9.67759 12.5831 9.81993 12.5754 9.90287 12.5754C9.98582 12.5754 10.2239 12.5054 10.3456 12.218C10.4543 11.9489 10.5449 11.6036 10.3275 11.2575C10.115 10.9131 9.73972 10.8998 9.66718 10.8998C9.59465 10.8998 9.02513 10.9283 8.81812 11.679V11.6796Z" fill="#252211"/>
<path fill-rule="evenodd" clip-rule="evenodd" d="M15.3916 12.8316C15.2958 12.7875 15.3865 12.5184 15.4822 12.4354C15.5779 12.3525 15.6996 12.2569 15.9121 12.2438C15.9896 12.2387 16.0647 12.2878 16.0519 12.3397C16.0338 12.4354 15.8991 12.5701 15.7775 12.6658C15.6092 12.7979 15.5003 12.8807 15.3916 12.8316Z" fill="#F7F7E7"/>
<path fill-rule="evenodd" clip-rule="evenodd" d="M10.2136 11.3636C10.2835 11.3585 10.3742 11.4148 10.3923 11.4906C10.4103 11.5734 10.3482 11.7391 10.2136 11.7391C10.1049 11.7391 10.0479 11.6044 10.0479 11.5657C10.0491 11.5338 10.058 11.5027 10.0738 11.4751C10.0789 11.4672 10.0919 11.3766 10.2136 11.3636Z" fill="#F8F6DE"/>
<path fill-rule="evenodd" clip-rule="evenodd" d="M9.20394 11.4232C9.20394 11.4232 9.02525 11.506 8.94247 11.6792C8.88333 11.8071 8.86544 11.9503 8.89127 12.0888C8.90425 12.1535 8.96893 12.3139 9.01296 12.3709C9.05699 12.4279 9.11656 12.4668 9.16059 12.4616C9.20462 12.4563 9.29507 12.3399 9.29507 12.2701C9.29507 12.2003 9.30036 11.905 9.3857 11.7444C9.46079 11.584 9.20445 11.4234 9.20445 11.4234L9.20394 11.4232Z" fill="#D4C38B"/>
<path fill-rule="evenodd" clip-rule="evenodd" d="M9.22981 11.4102C9.19875 11.4283 9.14703 11.4543 9.15983 11.4879C9.1728 11.519 9.28152 11.5391 9.32043 11.6149C9.36446 11.6925 9.36446 11.7753 9.35149 11.8142C9.38531 11.7981 9.416 11.7762 9.44212 11.7494C9.49912 11.6847 9.56892 11.5968 9.62848 11.5968C9.6674 11.5968 9.70614 11.6149 9.74249 11.6149C9.79949 11.6149 9.85632 11.5968 9.86417 11.5372C9.87697 11.4596 9.75546 11.3896 9.68549 11.4026C9.69846 11.3514 9.71655 11.2758 9.65955 11.2239C9.60254 11.172 9.42403 11.2628 9.38511 11.2887C9.3462 11.3147 9.22981 11.4104 9.22981 11.4104V11.4102Z" fill="#E2D59D"/>
<path fill-rule="evenodd" clip-rule="evenodd" d="M13.3437 16.8497L13.7268 16.7366L13.8356 16.8142C13.8356 16.8142 13.913 16.9799 14.0349 17.0006C13.996 17.0834 13.8949 17.1542 13.9002 17.2129C13.9055 17.2716 13.9572 17.3165 13.9572 17.3165C13.9572 17.3165 13.6128 17.886 14.2912 18.46C14.1306 18.5246 13.9262 18.6136 13.8175 18.6648C13.8949 18.6829 14.0607 18.716 14.1306 18.7788C14.2006 18.8416 14.2006 18.8615 14.2653 18.9005C14.33 18.9394 14.3687 18.9911 14.3559 19.0143C14.3119 18.9883 14.1643 18.9109 14.1385 18.9832C14.1127 19.0556 13.499 19.0273 13.499 19.0273L12.4634 19.2266C12.4634 19.2266 12.5021 19.123 12.3934 19.0273C12.2666 18.9134 12.1113 19.0324 11.9456 18.9056C11.7282 18.7399 11.7203 18.5482 11.6505 18.4758C11.7203 18.4318 11.8628 18.3671 12.2019 18.3222C12.189 18.2963 12.1449 18.2186 12.1709 18.1488C12.2019 18.0582 12.3313 18.0012 12.2926 17.8928C12.3496 17.8799 12.3753 17.8799 12.5178 17.7012C12.6525 17.5225 12.7353 17.4838 12.8389 17.4708C12.9425 17.4578 13.0046 17.4708 13.1962 17.2921C13.3307 17.1653 13.2869 17.0566 13.2869 17.0566C13.2869 17.0566 13.3748 17.0281 13.3439 16.8494L13.3437 16.8497Z" fill="#CBAC5A"/>
<path fill-rule="evenodd" clip-rule="evenodd" d="M12.2124 16.9072C12.2175 16.8813 12.2383 16.8683 12.3781 16.8813C12.5179 16.8942 13.4033 16.7985 13.6441 16.7855C13.8875 16.7674 14.7444 16.7802 15.1613 16.8683C15.5783 16.9564 16.0002 17.06 16.2046 17.1117C16.4094 17.1687 16.4739 17.1892 16.4661 17.2151C16.461 17.241 16.4149 17.2663 16.3884 17.2591C16.3627 17.254 15.6843 17.0468 15.4747 17.0031C15.2651 16.9594 14.5399 16.8425 14.1435 16.8495C13.7733 16.8548 13.6257 16.8444 13.3125 16.8806C12.9992 16.9195 12.4814 16.9712 12.3261 16.9506C12.1725 16.9325 12.2042 16.9325 12.212 16.9065L12.2124 16.9072Z" fill="#D6BC6F"/>
<path fill-rule="evenodd" clip-rule="evenodd" d="M14.2964 18.9364C14.2964 18.9364 14.8272 19.2238 15.0188 19.5759C15.1586 19.8374 14.936 19.9669 14.936 19.9669C14.936 19.9669 15.2364 19.9669 15.1975 20.1326C15.1794 20.2361 14.6797 20.5156 14.3457 20.6632C14.0066 20.8109 14.0196 20.8032 13.8539 20.829C13.6933 20.8549 13.2531 20.7778 13.1625 20.9066C13.0719 21.0355 13.1113 21.1682 13.1365 21.1889C13.1625 21.207 13.3722 21.2329 13.3722 21.2329C13.3722 21.2329 13.3282 21.3546 12.8933 21.3676C12.4585 21.3806 12.3496 21.4114 12.3237 21.4582C12.2977 21.5021 12.4064 21.4763 12.6059 21.5094C12.8053 21.5405 13.0848 21.5606 13.0848 21.5606C13.0848 21.5606 12.9942 21.6383 12.7587 21.7004C12.4894 21.7702 12.0673 21.835 11.9405 21.9127C12.0052 21.9567 12.1011 22.0214 12.1453 22.0265C12.0366 22.0525 11.8837 22.1095 11.8579 22.1301C11.8966 22.1561 11.9485 22.1871 11.9485 22.1871C11.9485 22.1871 11.7309 22.4486 11.6041 22.5134C11.4773 22.5783 10.7472 22.9172 10.496 22.8526C9.86947 22.6868 9.79181 22.0008 9.63907 21.949C9.40867 21.8714 9.29995 22.0265 9.09532 21.9178C9.18595 21.8531 9.23527 21.8144 9.33102 21.7704C9.22742 21.7192 8.69153 21.3794 8.69153 21.3794C8.63549 21.2572 8.57329 21.138 8.50516 21.0222C8.40156 20.8435 8.24916 20.6052 8.13481 20.3955C7.88632 19.9347 7.87335 19.7224 7.64807 19.4609C7.68698 19.4097 7.82147 19.4169 7.82147 19.4169L9.70904 20.0383L13.056 20.1352L13.9264 18.8926L14.2966 18.9366L14.2964 18.9364Z" fill="#DFC677"/>
<path fill-rule="evenodd" clip-rule="evenodd" d="M9.3385 20.8315C9.3587 20.854 9.38224 20.8732 9.4083 20.8885C9.47316 20.9325 9.5689 20.9844 9.63358 21.0619C9.65952 21.0232 9.72421 20.9532 9.83838 21.0619C9.95256 21.1706 10.0944 21.0931 10.1826 21.1189C10.2732 21.1501 10.2784 21.1629 10.2784 21.1629C10.2784 21.1629 10.3296 21.1189 10.4441 21.0723C10.5141 21.0464 10.5968 21.0283 10.6874 21.0025C10.7702 20.9844 10.8608 20.9585 10.9231 20.9585C10.9801 20.9972 11.1846 21.2145 12.0053 20.8938C12.7795 20.5934 12.958 20.5598 13.0875 20.6062C13.1005 20.5752 13.1135 20.5156 13.3128 20.5234C13.3128 20.4407 13.1471 20.1584 13.1471 20.1584L12.2332 19.8452H11.7333L10.2343 20.1196L9.4037 20.5936L9.33901 20.8325L9.3385 20.8315Z" fill="#C4A859"/>
<path fill-rule="evenodd" clip-rule="evenodd" d="M8.83887 20.306C8.83887 20.306 8.85696 20.4458 9.06415 20.5934C9.26895 20.7409 9.33329 20.8289 9.33329 20.8289C9.33329 20.8289 9.3722 20.7777 9.40326 20.7255C9.43432 20.6685 9.46026 20.6038 9.51198 20.5857C9.61557 20.5417 9.85109 20.6245 9.90297 20.6115C9.94701 20.5987 9.93403 20.5081 9.98063 20.5081C10.0893 20.5028 10.1591 20.5779 10.1981 20.5779C10.237 20.5779 10.3325 20.5727 10.3455 20.5521C10.3585 20.5314 10.3636 20.3164 10.5112 20.2128C10.6718 20.099 10.8686 20.1481 10.9208 20.1741C10.9208 20.2128 10.9259 20.3087 11.0295 20.3138C11.1331 20.319 11.1434 20.3009 11.2343 20.3319C11.3253 20.363 11.4337 20.3268 11.4828 20.4794C11.5269 20.4666 11.6305 20.4536 11.6045 20.306C11.6557 20.2673 11.7004 20.2413 11.8093 20.0886C11.8353 20.0498 11.8791 20.0058 11.9129 19.9488C12.0035 19.9488 12.1123 19.9307 12.2571 20.0575C12.2131 20.0886 12.1872 20.1087 12.1744 20.1403C12.2123 20.1778 12.2469 20.2185 12.2778 20.262C12.3167 20.3132 12.3427 20.376 12.3918 20.3889C12.5005 20.42 12.6792 20.376 12.8785 20.3889C13.0702 20.4019 13.2306 20.4717 13.3006 20.5157C13.3265 20.5029 13.3265 20.4977 13.3912 20.5106C13.4559 20.5236 13.5051 20.5287 13.4353 20.4459C13.474 20.464 13.518 20.5029 13.5569 20.464C13.5959 20.4251 13.6267 20.3683 13.7355 20.3553C13.8442 20.3423 13.8831 20.3604 13.9271 20.2466C13.9841 20.1068 13.7873 20.1068 13.7873 20.1068C13.7873 20.1068 13.878 20.0239 13.979 19.9152C14.1007 19.8013 14.2405 19.6537 14.2741 19.4725C14.3311 19.1385 14.0049 19.0946 14.0049 19.0946L12.423 19.5813L10.489 19.4854L8.83989 20.3062L8.83887 20.306Z" fill="#927D49"/>
<path fill-rule="evenodd" clip-rule="evenodd" d="M7.41756 15.7364C7.41756 15.7364 7.36636 15.8011 7.33478 15.9539C7.30321 16.1066 7.31669 16.0885 7.29075 16.1972C7.26481 16.306 6.94617 17.3882 7.06564 17.7532C7.18511 18.1183 7.39196 18.2529 7.52132 18.548C7.54726 18.6127 7.57252 18.6516 7.586 18.7086C7.63004 18.9001 7.59129 19.0477 7.64301 19.2394C7.6611 19.3041 7.70786 19.3792 7.77766 19.4568C7.93126 19.6172 8.18163 19.77 8.28966 19.8787C8.44224 20.0393 8.65984 20.3656 8.93683 20.3965C9.08446 20.4146 9.29421 20.3525 9.4676 20.249C9.6212 20.1531 9.71609 20.0186 9.8772 19.9418C9.99104 19.8848 10.1127 19.8642 10.2214 19.8382C10.4467 19.7942 10.6513 19.787 10.773 19.8123C10.9594 19.8512 11.3995 19.9859 11.6434 19.9859C11.834 19.9828 12.0235 19.9567 12.2078 19.9082C12.578 19.7995 13.0258 19.613 13.3211 19.5302C13.4945 19.479 13.6343 19.4655 13.7768 19.4344C14.0201 19.3774 14.2246 19.2998 14.3412 19.1522C14.2635 19.0615 14.1678 18.9218 13.6498 18.9269C13.0622 18.9399 12.3838 19.266 12.0498 19.3179C11.7158 19.3698 11.5709 19.4136 11.198 19.279C10.8324 19.1429 10.8203 19.053 10.8203 19.053C10.8203 19.053 10.4365 18.7845 10.2759 18.1002C10.1153 17.4158 10.2759 16.9171 10.6928 16.4432C10.8015 16.3215 10.7756 16.2128 10.7756 16.2128C10.7756 16.2128 11.05 15.8426 10.9749 15.496C10.8922 15.1516 10.3614 15.2215 10.3614 15.2215L7.41773 15.7364H7.41756Z" fill="#6E6342"/>
<path fill-rule="evenodd" clip-rule="evenodd" d="M7.86027 16.8887C7.83745 16.9316 7.82671 16.9799 7.82921 17.0284C7.83433 17.0983 7.85515 17.1889 8.06473 17.3935C8.24342 17.572 8.20451 17.7714 8.20451 17.7714C8.20451 17.7714 8.29445 17.7895 8.5385 17.6753C8.73016 17.5847 8.7945 17.7452 8.7945 17.7452C8.85029 17.716 8.91077 17.6967 8.97319 17.6882C9.02975 17.683 9.0845 17.6656 9.13362 17.637C9.13362 17.637 9.3589 17.8674 9.55568 17.9762C9.73436 18.0721 9.83796 18.1368 9.92602 18.0721C10.0088 18.0151 10.0088 17.8985 10.0035 17.8468C9.98297 17.7991 9.95697 17.7539 9.92602 17.7121C9.86902 17.6294 9.7784 17.5335 9.77242 17.4561C9.75945 17.2776 9.90708 17.0651 9.87585 17.0134C9.84461 16.9617 9.72839 16.9487 9.44099 17.0523C9.14335 17.1506 7.85908 16.8892 7.85908 16.8892L7.86027 16.8887Z" fill="#39331F"/>
<path fill-rule="evenodd" clip-rule="evenodd" d="M8.5385 18.0459C8.5385 18.0459 8.39105 17.9062 8.44276 17.2278C8.50536 17.2268 8.56787 17.2329 8.62913 17.2458C8.62913 17.2458 8.70951 17.7715 8.5385 18.0459Z" fill="#292311"/>
<path fill-rule="evenodd" clip-rule="evenodd" d="M7.48745 15.2186C7.50802 15.2034 7.52711 15.1862 7.54445 15.1674C7.49325 15.2631 7.25688 15.6463 7.44854 16.2496C7.6402 16.8502 8.12165 17.298 8.71454 17.3188C9.30744 17.3396 9.61908 17.0495 9.97543 16.6147C10.1152 16.4413 10.2758 16.2237 10.4181 16.0762C10.6304 15.8456 10.7962 15.7809 10.7962 15.5584C10.7962 15.1027 10.3301 14.8981 9.64399 14.6936C8.95791 14.4892 8.33908 14.5144 8.01805 14.6544C7.70488 14.807 7.57022 14.9676 7.48728 15.2188L7.48745 15.2186Z" fill="#252211"/>
<path fill-rule="evenodd" clip-rule="evenodd" d="M9.69057 18.2504L9.74177 18.2245C9.74177 18.2245 9.75457 18.0197 9.83752 18.0251C9.92029 18.0381 9.9592 18.147 9.95135 18.1857C9.94623 18.2245 9.92558 18.2893 9.84264 18.2815C9.73392 18.284 9.69006 18.2504 9.69006 18.2504H9.69057Z" fill="#3F3824"/>
<path fill-rule="evenodd" clip-rule="evenodd" d="M9.46021 17.3805C9.46021 17.3805 9.5114 17.3624 9.57404 17.4245C9.62524 17.4245 9.84847 17.3986 9.91844 17.4426C9.98842 17.4867 10.0091 17.5254 10.0091 17.5254C10.0091 17.5254 9.74761 17.5824 9.6051 17.5254C9.4602 17.4762 9.46021 17.3805 9.46021 17.3805Z" fill="#2D2815"/>
<path fill-rule="evenodd" clip-rule="evenodd" d="M10.6124 17.4192C10.6124 17.4062 10.4726 17.3105 10.325 17.2792C10.299 17.2741 10.2937 17.2922 10.2738 17.2922C10.2608 17.2871 10.2557 17.2482 10.2557 17.2482L10.1717 17.2924C10.1717 17.2924 10.1587 17.3105 10.2028 17.3436C10.2415 17.3746 10.3064 17.4006 10.3245 17.4523C10.3425 17.504 10.3425 17.5221 10.3504 17.5299C10.3555 17.5351 10.4461 17.5299 10.4902 17.504C10.5342 17.4781 10.6171 17.4357 10.6119 17.4187L10.6124 17.4192Z" fill="#82764F"/>
<path fill-rule="evenodd" clip-rule="evenodd" d="M9.30493 17.9449C9.30493 17.9449 9.3307 17.7664 9.50427 17.7585C9.68279 17.7455 9.71658 17.9189 9.71658 17.9189L9.61298 18.0225C9.61298 18.02 9.53533 17.9113 9.30578 17.9449H9.30493Z" fill="#2D2816"/>
<path fill-rule="evenodd" clip-rule="evenodd" d="M10.4312 17.1759C10.4312 17.1759 10.3353 17.2795 10.1231 17.3105C10.105 17.2846 10.0661 17.2329 10.1231 17.1501C10.1801 17.0673 10.2448 17.0414 10.3095 17.0672C10.338 17.0718 10.3646 17.0845 10.3862 17.1038C10.4078 17.123 10.4234 17.148 10.4312 17.1759Z" fill="#574F35"/>
<path fill-rule="evenodd" clip-rule="evenodd" d="M10.8219 17.3028C10.8272 17.2769 10.8091 17.2718 10.8219 17.2588C10.8347 17.2458 10.9049 17.2201 10.9179 17.2329C10.923 17.2382 10.9179 17.2588 10.9179 17.2841C10.9179 17.3093 10.9179 17.3353 10.9049 17.3539C10.8868 17.3798 10.8351 17.3928 10.8091 17.3851C10.7832 17.3774 10.7781 17.3411 10.7781 17.3339C10.7909 17.3288 10.8219 17.3158 10.8219 17.3028ZM11.264 17.0233C11.264 17.0103 11.308 16.9844 11.3339 16.9844C11.3727 16.9844 11.3727 17.0154 11.378 17.0233C11.3908 17.0284 11.3908 17.018 11.4037 17.0414C11.4167 17.0648 11.435 17.1061 11.4218 17.132C11.4087 17.1579 11.3571 17.1759 11.3443 17.1707C11.3263 17.1578 11.2693 17.0414 11.264 17.0233Z" fill="#82764F"/>
<path fill-rule="evenodd" clip-rule="evenodd" d="M10.3741 17.3624C10.3741 17.3624 10.4311 17.3752 10.5088 17.44C10.4829 17.4581 10.4439 17.4787 10.4439 17.4787C10.4439 17.4787 10.4388 17.4192 10.3741 17.3622V17.3624Z" fill="#6E6342"/>
<path fill-rule="evenodd" clip-rule="evenodd" d="M10.2473 16.7927C10.2343 16.7799 10.286 16.7488 10.3171 16.754C10.3482 16.7591 10.3611 16.7799 10.3947 16.785C10.4284 16.7902 10.4337 16.7721 10.4459 16.7591C10.4582 16.7461 10.5029 16.754 10.5106 16.7591C10.5154 16.7648 10.5197 16.7708 10.5236 16.7772C10.5241 16.7673 10.5267 16.7577 10.5311 16.7489C10.5356 16.7401 10.5418 16.7323 10.5494 16.726C10.5593 16.7187 10.5707 16.7137 10.5829 16.7115C10.595 16.7092 10.6075 16.7098 10.6193 16.713C10.6245 16.7311 10.6504 16.7958 10.6453 16.8088C10.6402 16.8217 10.5625 16.84 10.5494 16.8268C10.5623 16.8581 10.6193 16.9228 10.627 16.9356C10.6347 16.9484 10.57 16.9796 10.5442 16.9745C10.5081 16.9719 10.2853 16.8424 10.2466 16.7932L10.2473 16.7927ZM10.5864 16.363C10.5816 16.3499 10.5724 16.339 10.5605 16.3319C10.5424 16.3268 10.4828 16.3319 10.4828 16.363C10.4828 16.394 10.534 16.5678 10.5915 16.6582C10.6564 16.7488 10.7002 16.8238 10.7443 16.8446C10.7581 16.8509 10.7738 16.8517 10.7882 16.8469C10.8026 16.8421 10.8147 16.832 10.8219 16.8187C10.827 16.8057 10.84 16.7099 10.8349 16.4847C10.8298 16.2594 10.8219 16.0419 10.809 16.029C10.796 16.016 10.7443 16.0162 10.7262 16.0419C10.7081 16.0677 10.5915 16.3242 10.5862 16.363H10.5864Z" fill="#585136"/>
<path fill-rule="evenodd" clip-rule="evenodd" d="M10.356 17.6885C10.356 17.6885 10.2654 17.6315 10.1773 17.6705C10.0946 17.7094 10.0997 17.8621 10.0997 17.8621C10.1183 17.8694 10.1384 17.872 10.1583 17.8698C10.1782 17.8675 10.1972 17.8604 10.2137 17.8491C10.2707 17.8104 10.343 17.7457 10.356 17.6887V17.6885Z" fill="#574F35"/>
<path fill-rule="evenodd" clip-rule="evenodd" d="M10.5269 17.8931C10.5218 17.8419 10.4757 17.8419 10.4757 17.8155C10.4789 17.8028 10.4862 17.7916 10.4965 17.7836C10.5068 17.7757 10.5195 17.7714 10.5325 17.7715C10.5585 17.7715 10.5837 17.8025 10.6155 17.8227C10.6465 17.8407 10.6931 17.8739 10.6983 17.9133C10.7034 17.9527 10.6471 18.0607 10.5844 18.0607C10.5218 18.0607 10.5404 17.9442 10.5274 17.8925L10.5269 17.8931ZM11.0266 17.8232C11.0266 17.8232 10.923 17.8542 10.9307 17.8232C10.9384 17.7921 10.9619 17.7844 10.9956 17.7844C11.0126 17.7665 11.0356 17.7555 11.0602 17.7532C11.0743 17.7525 11.0882 17.7571 11.099 17.7662C11.099 17.7662 11.169 17.7351 11.1896 17.7532C11.2103 17.7713 11.1949 17.7713 11.2077 17.7921C11.224 17.8152 11.2347 17.8418 11.2389 17.8698C11.2389 17.8904 11.1613 17.9344 11.099 17.9268C11.0266 17.9112 11.0394 17.8361 11.0266 17.8232ZM11.6298 17.7066C11.6298 17.7066 11.6608 17.7247 11.635 17.7455C11.617 17.7636 11.5263 17.7967 11.4485 17.8025C11.3709 17.8025 11.3011 17.8153 11.3011 17.7895C11.3011 17.7638 11.3657 17.7119 11.4045 17.6989C11.4122 17.6892 11.4221 17.6813 11.4333 17.676C11.4446 17.6706 11.4569 17.6678 11.4693 17.6679C11.5004 17.6679 11.6219 17.6549 11.6557 17.6498C11.6868 17.6445 11.7127 17.6626 11.6944 17.6885C11.6868 17.7066 11.6298 17.7066 11.6298 17.7066ZM11.8084 16.9072C11.8084 16.9072 11.7695 16.99 11.7257 16.99C11.6816 16.9849 11.6816 16.9719 11.6816 16.9589C11.6816 16.9408 11.7257 16.8942 11.7204 16.8813C11.7076 16.8813 11.6763 16.8813 11.6816 16.8502C11.6816 16.8243 11.7257 16.7932 11.7644 16.799C11.7937 16.7749 11.8301 16.7613 11.868 16.7603C11.912 16.7603 11.9508 16.7731 11.9508 16.799C11.9508 16.8249 11.8996 16.8818 11.8808 16.8949C11.8602 16.9156 11.8342 16.929 11.8084 16.9077V16.9072ZM11.2181 18.4372C11.2181 18.4372 11.1669 18.4425 11.1669 18.4683C11.1669 18.4813 11.1797 18.4813 11.198 18.4736C11.2085 18.473 11.2189 18.4712 11.229 18.4683C11.2342 18.4736 11.2342 18.4993 11.2731 18.4993C11.305 18.495 11.3358 18.4845 11.3637 18.4683C11.3947 18.4555 11.4207 18.4423 11.4207 18.4171C11.4077 18.3731 11.3818 18.3522 11.343 18.3522C11.3232 18.351 11.3034 18.3555 11.286 18.3652C11.286 18.3652 11.2731 18.3393 11.229 18.3652C11.185 18.3911 11.1901 18.3911 11.2031 18.4041C11.2263 18.4248 11.2186 18.4382 11.2186 18.4382L11.2181 18.4372ZM10.9256 18.7065C10.9256 18.6936 10.9903 18.6676 11.0084 18.6755C11.0264 18.6806 11.0782 18.7789 11.0782 18.7893C11.0782 18.8023 11.0135 18.8333 10.9875 18.8333C10.9616 18.8333 10.9177 18.7893 10.9177 18.7821C10.9177 18.777 10.9488 18.7693 10.9488 18.7641C10.9565 18.7513 10.9256 18.72 10.9256 18.707V18.7065ZM10.7208 18.3285C10.7338 18.3234 10.7338 18.3104 10.7518 18.2974C10.7575 18.2937 10.764 18.2913 10.7707 18.2904C10.7775 18.2895 10.7843 18.2902 10.7908 18.2923C10.7953 18.2842 10.8016 18.2772 10.8093 18.2718C10.8169 18.2664 10.8256 18.2627 10.8348 18.2611C10.8659 18.256 10.8918 18.2611 10.886 18.2741C10.886 18.313 10.9119 18.3387 10.9119 18.3698C10.9119 18.4009 10.8938 18.4398 10.8292 18.4657C10.7645 18.4838 10.6764 18.4838 10.6634 18.4787C10.6505 18.4736 10.6375 18.4217 10.6505 18.3958C10.6634 18.3698 10.6996 18.3415 10.7204 18.3285H10.7208Z" fill="#82764F"/>
<path fill-rule="evenodd" clip-rule="evenodd" d="M10.8031 18.3461C10.8031 18.3461 10.7591 18.372 10.7591 18.385C10.7552 18.3975 10.7535 18.4106 10.754 18.4237C10.754 18.4314 10.811 18.4186 10.8187 18.4108C10.8212 18.4056 10.8031 18.3596 10.8031 18.3461Z" fill="#6E6342"/>
<path fill-rule="evenodd" clip-rule="evenodd" d="M10.4182 18.2245C10.444 18.2298 10.488 18.2245 10.5217 18.2374C10.5476 18.2504 10.5657 18.2764 10.5397 18.3074C10.5138 18.3385 10.4885 18.3851 10.431 18.3772C10.3663 18.3721 10.3042 18.3385 10.3042 18.3125C10.3031 18.2961 10.3053 18.2797 10.3107 18.2641C10.316 18.2485 10.3244 18.2342 10.3353 18.2219C10.3612 18.2013 10.374 18.2142 10.4181 18.2245H10.4182Z" fill="#585136"/>
<path fill-rule="evenodd" clip-rule="evenodd" d="M10.3871 18.2504C10.3871 18.2504 10.3044 18.315 10.2836 18.3463C10.2576 18.3773 10.1308 18.5378 10.0921 18.5714C10.1049 18.5487 10.1196 18.5271 10.1359 18.5067C10.0847 18.5394 10.0463 18.5888 10.0272 18.6465C9.99615 18.7424 10.2008 18.7941 10.3353 18.833C10.4698 18.8719 10.5218 18.8842 10.5218 18.8842C10.4723 18.8098 10.4298 18.731 10.3948 18.6487C10.3436 18.527 10.3172 18.514 10.3508 18.457C10.3767 18.4 10.4156 18.3613 10.4156 18.3173C10.4001 18.2763 10.3871 18.2504 10.3871 18.2504Z" fill="#574F35"/>
<path fill-rule="evenodd" clip-rule="evenodd" d="M7.43564 18.455C7.45449 18.4585 7.4738 18.4585 7.49265 18.455C7.53139 18.4497 7.93536 18.3014 8.35741 18.328C8.67337 18.3471 8.98654 18.3986 9.29199 18.4816C9.82276 18.6214 10.4829 18.8984 10.9101 19.0564C11.0239 19.1003 11.1354 19.1781 11.2173 19.209C11.5436 19.336 11.5564 19.336 11.748 19.3696C11.9733 19.4007 12.2037 19.3256 12.4445 19.2739C12.7396 19.209 13.2445 19.1779 13.6872 19.1133C13.8303 19.0934 13.9715 19.0614 14.1092 19.0175C14.1092 19.0175 13.7571 19.3696 12.913 19.4964C12.5718 19.5482 12.2251 19.5526 11.8827 19.5094C11.6134 19.4834 11.4349 19.4445 11.3002 19.4058C11.1475 19.3618 10.8341 19.2452 10.4484 19.1498C10.1791 19.0798 9.87874 19.0281 9.5345 18.9634C8.68526 18.8079 7.76367 18.6294 7.4353 18.456L7.43564 18.455Z" fill="#252211"/>
<path fill-rule="evenodd" clip-rule="evenodd" d="M6.48274 16.855C6.27794 17.0284 6.06068 17.1941 5.84855 17.3545L5.20906 17.8459C4.99163 18.0063 4.77932 18.172 4.56172 18.3326C4.34412 18.4932 4.12686 18.6458 3.89612 18.7934C4.10092 18.62 4.31818 18.4594 4.53561 18.3016C4.75304 18.1437 4.97849 17.9889 5.18824 17.8288L5.82772 17.3368C6.04771 17.1763 6.26002 17.0106 6.48274 16.8553V16.855ZM5.35139 18.6673C5.35139 18.6673 5.58179 18.4756 5.8692 18.2065C6.2264 17.8727 6.66399 17.4453 6.80377 17.3678L5.35122 18.6675L5.35139 18.6673Z" fill="#CFB66C"/>
<path fill-rule="evenodd" clip-rule="evenodd" d="M5.35144 18.6671C5.46545 18.5533 5.58713 18.442 5.70882 18.3331L5.89518 18.1727C5.95219 18.1215 6.01704 18.064 6.07387 18.007C6.18771 17.8931 6.29915 17.7713 6.41299 17.6549C6.46941 17.5963 6.52906 17.541 6.59168 17.4892C6.62298 17.4615 6.65774 17.4379 6.6951 17.4192C6.72633 17.4011 6.75995 17.368 6.80381 17.3622C6.77804 17.4011 6.74698 17.4192 6.72104 17.4528C6.68998 17.4787 6.66404 17.5098 6.63827 17.5356C6.58126 17.5926 6.51658 17.6443 6.45958 17.6962C6.33789 17.7998 6.21109 17.901 6.0894 18.0094C5.96772 18.1177 5.85388 18.2346 5.73203 18.3433C5.6001 18.4548 5.47842 18.5635 5.35144 18.6676V18.6671ZM6.89973 17.6315C6.89973 17.6315 6.05578 18.4575 5.88221 18.592L6.89973 17.6315Z" fill="#CFB66C"/>
<path fill-rule="evenodd" clip-rule="evenodd" d="M6.89972 17.6316C6.8238 17.7195 6.7424 17.8025 6.656 17.8801L6.4 18.1235C6.31723 18.2062 6.23941 18.2892 6.15151 18.3719C6.06089 18.4496 5.97812 18.5255 5.8822 18.5972L6.13069 18.3539C6.21364 18.2711 6.30426 18.2013 6.39232 18.1183L6.64082 17.875C6.72615 17.7896 6.80909 17.7067 6.89972 17.6316ZM6.93846 18.0794C6.86067 18.2965 6.769 18.5084 6.66403 18.7138C6.4466 19.1488 6.12045 19.6924 5.97795 19.9696L6.93846 18.0794Z" fill="#CFB66C"/>
<path fill-rule="evenodd" clip-rule="evenodd" d="M6.93842 18.0796C6.93842 18.1753 6.91248 18.2583 6.88142 18.3411C6.85114 18.4239 6.81662 18.5051 6.77799 18.5844C6.73908 18.6621 6.69505 18.745 6.65102 18.8201C6.60699 18.8952 6.55527 18.9727 6.51636 19.0505L6.2549 19.5113C6.16428 19.6649 6.07621 19.8194 5.98047 19.967C6.04515 19.8013 6.13322 19.646 6.21616 19.4932C6.30678 19.3396 6.38956 19.186 6.47216 19.0271C6.51249 18.948 6.54877 18.8668 6.58087 18.7839C6.61962 18.701 6.65836 18.6233 6.68959 18.5482C6.72833 18.4655 6.75939 18.3876 6.7983 18.3127C6.84216 18.2323 6.87852 18.1547 6.93808 18.0796H6.93842Z" fill="#CFB66C"/>
<path fill-rule="evenodd" clip-rule="evenodd" d="M7.86025 20.2025C7.86025 20.2025 7.60425 20.5416 7.62985 20.9714C7.69965 20.7463 7.78772 20.4019 7.86025 20.2025ZM8.10362 20.5425C8.10362 20.5425 8.013 21.4641 7.9379 21.9172C8.04406 21.3934 8.06471 21.4375 8.10362 20.5425ZM9.79937 21.9716C9.79937 21.9716 9.41622 23.098 9.40837 23.411C9.49131 23.0892 9.65174 22.4316 9.79937 21.9708V21.9716Z" fill="#DEC270"/>
<path fill-rule="evenodd" clip-rule="evenodd" d="M10.6952 20.1328C10.6952 20.1328 11.3166 21.158 11.7827 22.033C11.6566 21.5927 11.3664 20.7851 10.6952 20.1328Z" fill="#CBAF59"/>
<path fill-rule="evenodd" clip-rule="evenodd" d="M12.3651 21.6421C12.7063 22.2452 13.014 22.8666 13.2867 23.5036C13.235 23.0634 13.0951 22.3101 12.3651 21.6421Z" fill="#E3C677"/>
<path fill-rule="evenodd" clip-rule="evenodd" d="M17.2739 23.1537C17.3773 23.089 17.582 22.7367 17.7606 22.6488C17.9392 22.5582 18.0738 22.5401 18.2344 22.3614C18.3948 22.1749 18.4392 22.0611 18.791 21.9136C19.283 21.7011 18.9446 21.4267 18.9446 21.4267C18.9988 21.3735 19.0567 21.3242 19.118 21.2792C19.2449 21.1835 19.3924 21.0669 19.3796 20.8623C19.3615 20.5181 19.2968 20.0184 19.0145 19.7284C19.289 19.6714 19.8144 19.6326 20.1409 19.5499C20.5188 19.454 20.6924 19.3193 20.6924 19.3193C20.6924 19.3193 20.4749 18.9491 20.827 18.5764C21.1791 18.2037 21.4665 17.9809 21.6788 17.564C21.4354 17.5329 21.0644 17.4036 20.1176 17.7633C20.1687 17.7874 20.218 17.815 20.2652 17.8461C20.2652 17.8461 19.6827 18.0067 19.4704 18.1854C19.1 18.4986 19.0534 18.7549 18.6522 18.9466C18.251 19.1382 17.847 19.0863 17.5132 19.2416C17.1794 19.397 17.13 19.529 17.0082 19.5861C17.0341 19.6171 17.0031 19.6688 17.0522 19.7129C17.0211 19.7569 16.8399 20.052 16.6561 20.052C16.6742 20.1219 16.8295 20.1737 16.8295 20.1737C16.8295 20.1737 16.7157 20.2566 16.4257 20.2773C16.5731 20.4309 16.7131 20.5983 17.0988 20.8416C17.0677 20.9063 16.9382 21.0022 16.9901 21.1239C17.0471 21.2456 17.1949 21.4113 17.7849 21.546C17.4845 21.5588 17.1326 21.6288 16.6585 21.5641C16.1847 21.5071 16.1071 21.4735 15.8145 21.546C15.8456 21.5771 15.9284 21.577 16.0009 21.6598C15.9232 21.6649 15.4365 21.6028 15.2708 21.8204C15.0974 22.0455 15.0223 22.4159 15.0353 22.6644C14.9446 22.7084 14.8566 22.7861 14.9006 22.9466C14.9446 23.1072 15.175 23.159 15.3227 23.2598C15.4701 23.3685 15.4831 23.4073 15.623 23.3815C15.7705 23.3504 15.9879 23.203 16.1149 23.203C16.2419 23.203 16.3323 23.2987 16.3323 23.2987C16.3323 23.2987 16.6767 23.133 16.7104 23.1641C16.7414 23.1951 16.7155 23.3945 16.7491 23.4255C16.7832 23.4489 17.1712 23.2185 17.2748 23.1537H17.2739Z" fill="#ECD592"/>
</svg>
