<svg width="32" height="29" viewBox="0 0 32 29" fill="none" xmlns="http://www.w3.org/2000/svg">
<path d="M24.1667 9.22798C23.5833 8.89465 22.8333 8.89465 22.1667 9.22798L17.5 11.978L14.3333 13.728L9.75 16.478C9.16667 16.8113 8.41667 16.8113 7.75 16.478L4.16667 14.3113C3.58333 13.978 3.16667 13.3113 3.16667 12.5613V8.39465C3.16667 7.72799 3.5 7.06132 4.16667 6.64465L7.75 4.56132C8.33333 4.22799 9.08333 4.22799 9.75 4.56132L13.3333 6.72798C13.9167 7.06132 14.3333 7.72799 14.3333 8.47799V11.228L17.5 9.39465V6.56132C17.5 5.89465 17.1667 5.22799 16.5 4.81132L9.83333 0.894653C9.25 0.56132 8.5 0.56132 7.83333 0.894653L1 4.89465C0.333333 5.22799 0 5.89465 0 6.56132V14.3947C0 15.0613 0.333333 15.728 1 16.1446L7.75 20.0613C8.33333 20.3946 9.08333 20.3946 9.75 20.0613L14.3333 17.3946L17.5 15.5613L22.0833 12.8947C22.6667 12.5613 23.4167 12.5613 24.0833 12.8947L27.6667 14.978C28.25 15.3113 28.6667 15.978 28.6667 16.728V20.8946C28.6667 21.5613 28.3333 22.228 27.6667 22.6446L24.1667 24.728C23.5833 25.0613 22.8333 25.0613 22.1667 24.728L18.5833 22.6446C18 22.3113 17.5833 21.6446 17.5833 20.8946V18.228L14.4167 20.0613V22.8113C14.4167 23.478 14.75 24.1446 15.4167 24.5613L22.1667 28.478C22.75 28.8113 23.5 28.8113 24.1667 28.478L30.9167 24.5613C31.5 24.228 31.9167 23.5613 31.9167 22.8113V14.8947C31.9167 14.228 31.5833 13.5613 30.9167 13.1447L24.1667 9.22798Z" fill="#8247E5"/>
</svg>
