<svg width="28" height="33" viewBox="0 0 28 33" fill="none" xmlns="http://www.w3.org/2000/svg">
<path d="M3.06271 16.728L3.07959 22.9172L8.33853 26.0118V29.6353L0.0018762 24.7458V14.9182L3.06271 16.728ZM3.06271 10.5388V14.1454L0 12.3337V8.72709L3.06271 6.91534L6.14043 8.72709L3.06271 10.5388ZM10.5348 8.72709L13.5975 6.91534L16.6752 8.72709L13.5975 10.5388L10.5348 8.72709Z" fill="#F0B90B"/>
<path d="M5.27588 21.6344V18.0109L8.33859 19.8226V23.4292L5.27588 21.6344ZM10.5348 27.3097L13.5975 29.1214L16.6752 27.3097V30.9163L13.5975 32.728L10.5348 30.9163V27.3097ZM21.0677 8.72709L24.1304 6.91534L27.2081 8.72709V12.3337L24.1304 14.1454V10.5388L21.0677 8.72709ZM24.1304 22.9172L24.1473 16.728L27.21 14.9163V24.744L18.8733 29.6334V26.0099L24.1304 22.9172Z" fill="#F0B90B"/>
<path d="M21.934 21.6344L18.8713 23.4292V19.8226L21.934 18.0109V21.6344Z" fill="#F0B90B"/>
<path d="M21.9342 11.8217L21.9511 15.4452L16.6771 18.5398V24.744L13.6144 26.5388L10.5517 24.744V18.5398L5.27775 15.4452V11.8217L8.3536 10.0099L13.5957 13.1195L18.8696 10.0099L21.9473 11.8217H21.9342ZM5.27588 5.63437L13.5975 0.728027L21.9342 5.63437L18.8715 7.44611L13.5975 4.33651L8.33859 7.44611L5.27588 5.63437Z" fill="#F0B90B"/>
</svg>
