<svg width="32" height="33" viewBox="0 0 32 33" fill="none" xmlns="http://www.w3.org/2000/svg">
<path fill-rule="evenodd" clip-rule="evenodd" d="M32 16.728C32 25.5647 24.8366 32.728 16 32.728C7.16344 32.728 0 25.5647 0 16.728C0 7.89147 7.16344 0.728027 16 0.728027C24.8366 0.728027 32 7.89147 32 16.728ZM11.4661 23.0952H8.36091C7.70842 23.0952 7.38612 23.0952 7.1896 22.9695C6.97734 22.8319 6.84764 22.6039 6.83191 22.3523C6.82011 22.1205 6.98128 21.8374 7.30358 21.2714L14.9706 7.75727C15.2968 7.1834 15.4619 6.89646 15.6702 6.79034C15.8943 6.67636 16.1616 6.67636 16.3856 6.79034C16.5939 6.89646 16.759 7.1834 17.0852 7.75727L18.6614 10.5087L18.6694 10.5227C19.0218 11.1384 19.2005 11.4506 19.2785 11.7782C19.365 12.1359 19.365 12.5133 19.2785 12.8709C19.1999 13.2011 19.023 13.5156 18.6653 14.1405L14.638 21.2596L14.6276 21.2779C14.2729 21.8986 14.0932 22.2132 13.8441 22.4505C13.5729 22.71 13.2466 22.8986 12.8889 23.0049C12.5627 23.0952 12.1972 23.0952 11.4661 23.0952ZM19.3076 23.0952H23.7569C24.4133 23.0952 24.7435 23.0952 24.9402 22.9657C25.1524 22.8281 25.286 22.596 25.2979 22.3446C25.3092 22.1203 25.1515 21.8482 24.8426 21.3151C24.832 21.297 24.8213 21.2785 24.8104 21.2597L22.5817 17.4471L22.5564 17.4041C22.2432 16.8745 22.0851 16.6071 21.8821 16.5037C21.6582 16.3897 21.3946 16.3897 21.1707 16.5037C20.9663 16.6098 20.8012 16.8889 20.475 17.451L18.2542 21.2637L18.2466 21.2768C17.9215 21.8379 17.759 22.1184 17.7707 22.3485C17.7865 22.6001 17.9162 22.8319 18.1284 22.9695C18.321 23.0952 18.6512 23.0952 19.3076 23.0952Z" fill="#E84142"/>
</svg>
