<svg
  width="33"
  height="32"
  viewBox="0 0 33 32"
  fill="none"
  xmlns="http://www.w3.org/2000/svg"
  style="width: 32px; height: 32px;"
  preserveAspectRatio="xMidYMid meet"
>
  <path
    d="M29.7532 16.5337C29.9221 17.0118 30.308 17.3815 30.793 17.53C31.2778 17.6783 31.8046 17.5881 32.2123 17.2865C32.62 16.9847 32.8606 16.5078 32.8606 16.0006C32.8606 15.4934 32.62 15.0164 32.2123 14.7146C31.8045 14.4131 31.2778 14.3229 30.793 14.4712C30.3079 14.6197 29.9221 14.9893 29.7532 15.4675H26.4563V10.8898L27.7432 9.60294H28.6869C28.8559 10.0811 29.2417 10.4507 29.7267 10.5993C30.2115 10.7476 30.7383 10.6573 31.146 10.3558C31.5537 10.054 31.7943 9.57704 31.7943 9.06985C31.7943 8.56267 31.5537 8.0857 31.146 7.78391C30.7383 7.48236 30.2115 7.39215 29.7267 7.54043C29.2417 7.68895 28.8558 8.05858 28.6869 8.53676H27.5226C27.3812 8.53676 27.2455 8.59294 27.1456 8.6929L25.8243 10.0141L22.7243 8.37259V5.33795H24.4217C24.5907 5.81611 24.9765 6.18573 25.4616 6.33428C25.9464 6.48256 26.4731 6.39236 26.8808 6.0908C27.2885 5.789 27.5292 5.31204 27.5292 4.80486C27.5292 4.29767 27.2885 3.82071 26.8808 3.51892C26.4731 3.21737 25.9464 3.12716 25.4616 3.27544C24.9765 3.42396 24.5907 3.79358 24.4217 4.27177H22.1911C21.8967 4.27177 21.658 4.5105 21.658 4.80491V7.80812L17.3928 5.55131V3.10745C17.871 2.93847 18.2406 2.55265 18.3892 2.06761C18.5375 1.58279 18.4473 1.05605 18.1457 0.648361C17.8439 0.240651 17.3669 0 16.8598 0C16.3526 0 15.8756 0.240627 15.5738 0.648361C15.2723 1.05607 15.1821 1.58279 15.3303 2.06761C15.4789 2.55267 15.8485 2.93849 16.3267 3.10745V5.55131L12.0615 7.80909V4.80491C12.0615 4.66354 12.0054 4.52787 11.9054 4.42791C11.8054 4.32794 11.6698 4.27177 11.5284 4.27177H9.29779C9.12881 3.79361 8.74299 3.42399 8.25795 3.27544C7.77313 3.12716 7.24638 3.21736 6.8387 3.51892C6.43099 3.82072 6.19034 4.29767 6.19034 4.80486C6.19034 5.31204 6.43096 5.78901 6.8387 6.0908C7.24641 6.39235 7.77313 6.48256 8.25795 6.33428C8.74301 6.18576 9.12883 5.81613 9.29779 5.33795H10.9953V8.37259L7.89493 10.0141L6.57371 8.6929H6.57395C6.47399 8.59294 6.33832 8.53676 6.19694 8.53676H5.03262C4.86364 8.0586 4.47782 7.68898 3.99278 7.54043C3.50796 7.39215 2.98122 7.48236 2.57353 7.78391C2.16582 8.08571 1.92517 8.56267 1.92517 9.06985C1.92517 9.57704 2.1658 10.054 2.57353 10.3558C2.98124 10.6573 3.50796 10.7476 3.99278 10.5993C4.47784 10.4508 4.86366 10.0811 5.03262 9.60294H5.97631L7.26323 10.8898V15.4675H3.96634C3.79735 14.9893 3.41154 14.6197 2.9265 14.4712C2.44168 14.3229 1.91493 14.4131 1.50725 14.7146C1.09954 15.0164 0.858887 15.4934 0.858887 16.0006C0.858887 16.5078 1.09951 16.9847 1.50725 17.2865C1.91496 17.5881 2.44168 17.6783 2.9265 17.53C3.41156 17.3815 3.79738 17.0119 3.96634 16.5337H7.26323V21.1113L5.97631 22.3982H5.03262C4.86364 21.9201 4.47782 21.5504 3.99278 21.4019C3.50796 21.2536 2.98122 21.3438 2.57353 21.6454C2.16582 21.9472 1.92517 22.4241 1.92517 22.9313C1.92517 23.4385 2.1658 23.9155 2.57353 24.2172C2.98124 24.5188 3.50796 24.609 3.99278 24.4607C4.47784 24.3122 4.86366 23.9426 5.03262 23.4644H6.19694C6.33832 23.4644 6.47399 23.4082 6.57395 23.3083L7.89517 21.987L10.9952 23.6286V26.6632H9.29778C9.1288 26.185 8.74298 25.8154 8.25795 25.6669C7.77312 25.5186 7.24638 25.6088 6.83869 25.9104C6.43098 26.2122 6.19033 26.6891 6.19033 27.1963C6.19033 27.7035 6.43096 28.1804 6.83869 28.4822C7.2464 28.7838 7.77312 28.874 8.25795 28.7257C8.74301 28.5772 9.12882 28.2076 9.29778 27.7294H11.5284C11.6698 27.7294 11.8054 27.6732 11.9054 27.5733C12.0054 27.4733 12.0615 27.3376 12.0615 27.1962V24.193L16.3267 26.4498V28.8928C15.8485 29.0618 15.4789 29.4476 15.3303 29.9324C15.182 30.4174 15.2723 30.9441 15.5738 31.3519C15.8756 31.7596 16.3526 32 16.8597 32C17.3669 32 17.8439 31.7596 18.1457 31.3519C18.4472 30.9442 18.5375 30.4175 18.3892 29.9324C18.2407 29.4476 17.871 29.0618 17.3928 28.8928V26.4498L21.658 24.1921V27.1962C21.658 27.3376 21.7141 27.4733 21.8141 27.5733C21.9141 27.6732 22.0497 27.7294 22.1911 27.7294H24.4217C24.5907 28.2076 24.9765 28.5772 25.4616 28.7257C25.9464 28.874 26.4731 28.7838 26.8808 28.4822C27.2885 28.1804 27.5292 27.7035 27.5292 27.1963C27.5292 26.6891 27.2885 26.2122 26.8808 25.9104C26.4731 25.6088 25.9464 25.5186 25.4616 25.6669C24.9765 25.8154 24.5907 26.185 24.4217 26.6632H22.7242V23.6286L25.8246 21.987L27.1458 23.3083H27.1456C27.2455 23.4082 27.3812 23.4644 27.5226 23.4644H28.6869C28.8559 23.9426 29.2417 24.3122 29.7267 24.4607C30.2115 24.609 30.7383 24.5188 31.146 24.2172C31.5537 23.9155 31.7943 23.4385 31.7943 22.9313C31.7943 22.4241 31.5537 21.9472 31.146 21.6454C30.7383 21.3438 30.2115 21.2536 29.7267 21.4019C29.2417 21.5504 28.8558 21.92 28.6869 22.3982H27.7432L26.4563 21.1113V16.5337H29.7532ZM31.2545 15.4674C31.4702 15.4674 31.6646 15.5973 31.747 15.7965C31.8296 15.9958 31.7841 16.225 31.6316 16.3775C31.479 16.5301 31.2498 16.5756 31.0506 16.493C30.8514 16.4106 30.7214 16.2162 30.7214 16.0005C30.7214 15.7061 30.9601 15.4674 31.2545 15.4674ZM30.1883 8.53655C30.4039 8.53655 30.5984 8.6665 30.6807 8.86571C30.7633 9.06492 30.7178 9.29412 30.5653 9.44669C30.4127 9.59926 30.1835 9.64472 29.9843 9.56213C29.7851 9.47977 29.6551 9.28532 29.6551 9.06969C29.6551 8.77527 29.8938 8.53655 30.1883 8.53655ZM25.9231 4.27141C26.1388 4.27141 26.3332 4.40137 26.4156 4.60058C26.4982 4.79979 26.4527 5.02899 26.3001 5.18156C26.1476 5.33413 25.9184 5.37959 25.7192 5.29699C25.5199 5.21464 25.39 5.02019 25.39 4.80456C25.39 4.51014 25.6287 4.27141 25.9231 4.27141ZM7.79632 5.3377C7.58069 5.3377 7.38623 5.20774 7.30388 5.00853C7.22129 4.80932 7.26675 4.58012 7.41932 4.42755C7.57188 4.27498 7.80108 4.22952 8.0003 4.31212C8.19951 4.39447 8.32947 4.58892 8.32947 4.80456C8.32947 4.94593 8.2733 5.0816 8.17333 5.18156C8.07337 5.28152 7.9377 5.3377 7.79632 5.3377ZM3.53119 9.60283C3.31555 9.60283 3.1211 9.47288 3.03875 9.27366C2.95616 9.07445 3.00162 8.84525 3.15419 8.69268C3.30675 8.54011 3.53595 8.49466 3.73517 8.57725C3.93438 8.6596 4.06433 8.85405 4.06433 9.06969C4.06433 9.21106 4.00816 9.34673 3.9082 9.44669C3.80824 9.54666 3.67257 9.60283 3.53119 9.60283ZM2.46491 16.5337C2.24927 16.5337 2.05482 16.4037 1.97247 16.2045C1.88988 16.0053 1.93534 15.7761 2.0879 15.6235C2.24046 15.4709 2.46967 15.4255 2.66889 15.5081C2.8681 15.5904 2.99805 15.7849 2.99805 16.0005C2.99805 16.1419 2.94188 16.2776 2.84192 16.3775C2.74195 16.4775 2.60629 16.5337 2.46491 16.5337ZM3.53119 23.4645C3.31555 23.4645 3.1211 23.3346 3.03875 23.1353C2.95616 22.9361 3.00162 22.7069 3.15419 22.5544C3.30675 22.4018 3.53595 22.3563 3.73517 22.4389C3.93438 22.5213 4.06433 22.7157 4.06433 22.9314C4.06433 23.0727 4.00816 23.2084 3.9082 23.3084C3.80824 23.4083 3.67257 23.4645 3.53119 23.4645ZM7.79632 27.7296C7.58069 27.7296 7.38623 27.5997 7.30388 27.4005C7.22129 27.2013 7.26675 26.9721 7.41932 26.8195C7.57188 26.6669 7.80108 26.6215 8.0003 26.7041C8.19951 26.7864 8.32947 26.9809 8.32947 27.1965C8.32947 27.3379 8.2733 27.4735 8.17333 27.5735C8.07337 27.6735 7.9377 27.7296 7.79632 27.7296ZM25.9231 26.6634C26.1388 26.6634 26.3332 26.7933 26.4156 26.9925C26.4982 27.1917 26.4527 27.4209 26.3001 27.5735C26.1476 27.7261 25.9184 27.7715 25.7192 27.6889C25.5199 27.6066 25.39 27.4121 25.39 27.1965C25.39 26.9021 25.6287 26.6634 25.9231 26.6634ZM30.1883 22.3982C30.4039 22.3982 30.5984 22.5282 30.6807 22.7274C30.7633 22.9266 30.7178 23.1558 30.5653 23.3084C30.4127 23.4609 30.1835 23.5064 29.9843 23.4238C29.7851 23.3414 29.6551 23.147 29.6551 22.9314C29.6551 22.6369 29.8938 22.3982 30.1883 22.3982ZM16.8597 1.07256C17.0754 1.07256 17.2698 1.20252 17.3522 1.40173C17.4348 1.60094 17.3893 1.83014 17.2367 1.98271C17.0842 2.13528 16.855 2.18074 16.6558 2.09815C16.4565 2.01579 16.3266 1.82134 16.3266 1.60571C16.3266 1.31129 16.5653 1.07256 16.8597 1.07256ZM16.8597 30.9285C16.6441 30.9285 16.4496 30.7985 16.3673 30.5993C16.2847 30.4001 16.3302 30.1709 16.4827 30.0183C16.6353 29.8658 16.8645 29.8203 17.0637 29.9029C17.2629 29.9853 17.3929 30.1797 17.3929 30.3953C17.3929 30.5367 17.3367 30.6724 17.2367 30.7724C17.1368 30.8723 17.0011 30.9285 16.8597 30.9285ZM25.39 21.0121L16.8597 25.5273L8.32947 21.0121V10.989L16.8597 6.47277L25.39 10.989V21.0121Z"
    fill="url(#paint0_linear_86_3608)"
  ></path>
  <path
    d="M16.6217 7.52645L9.15769 11.2584C8.9768 11.3489 8.8628 11.5336 8.8628 11.7356V20.2659C8.86161 20.4689 8.9761 20.6551 9.15769 20.7457L16.6217 24.4777C16.7716 24.5527 16.9482 24.5527 17.0982 24.4777L24.5621 20.7457C24.7438 20.6551 24.8582 20.4689 24.857 20.2659V11.7356C24.857 11.5336 24.743 11.3489 24.5621 11.2584L17.0982 7.52645C16.9482 7.45147 16.7716 7.45147 16.6217 7.52645ZM23.7908 12.065V19.9366L16.8599 23.4021L9.92907 19.9366V12.065L16.8599 8.59961L23.7908 12.065Z"
    fill="url(#paint1_linear_86_3608)"
  ></path>
  <path
    d="M13.1272 15.8745L12.0076 13.6296C11.8989 13.4049 11.6487 13.2857 11.4057 13.3428C11.1627 13.4002 10.9918 13.6182 10.9947 13.8679V18.6661H12.0609V16.1263L13.1832 18.3715V18.3712C13.2936 18.5928 13.5418 18.7092 13.7827 18.6523C14.0236 18.5957 14.1938 18.3805 14.1935 18.133V13.3347H13.1272V15.8745Z"
    fill="url(#paint2_linear_86_3608)"
  ></path>
  <path
    d="M15.2603 13.8681V18.6664H16.3265V16.5338H17.926V15.4675H16.3265V14.4012H18.4591V13.335H15.7934C15.499 13.335 15.2603 13.5737 15.2603 13.8681Z"
    fill="url(#paint3_linear_86_3608)"
  ></path>
  <path
    d="M20.5912 18.6664H21.6575V14.4012H22.7238V13.335H19.5249V14.4012H20.5912V18.6664Z"
    fill="url(#paint4_linear_86_3608)"
  ></path>
  <defs>
    <linearGradient
      id="paint0_linear_86_3608"
      x1="32.8606"
      y1="32"
      x2="-1.28136"
      y2="29.5251"
      gradientUnits="userSpaceOnUse"
    >
      <stop stop-color="#00ADEF"></stop>
      <stop offset="1" stop-color="#8AC640"></stop>
    </linearGradient>
    <linearGradient
      id="paint1_linear_86_3608"
      x1="24.857"
      y1="24.534"
      x2="7.78227"
      y2="23.3739"
      gradientUnits="userSpaceOnUse"
    >
      <stop stop-color="#00ADEF"></stop>
      <stop offset="1" stop-color="#8AC640"></stop>
    </linearGradient>
    <linearGradient
      id="paint2_linear_86_3608"
      x1="14.1935"
      y1="18.6666"
      x2="10.7692"
      y2="18.5179"
      gradientUnits="userSpaceOnUse"
    >
      <stop stop-color="#00ADEF"></stop>
      <stop offset="1" stop-color="#8AC640"></stop>
    </linearGradient>
    <linearGradient
      id="paint3_linear_86_3608"
      x1="18.4591"
      y1="18.6664"
      x2="15.0349"
      y2="18.5175"
      gradientUnits="userSpaceOnUse"
    >
      <stop stop-color="#00ADEF"></stop>
      <stop offset="1" stop-color="#8AC640"></stop>
    </linearGradient>
    <linearGradient
      id="paint4_linear_86_3608"
      x1="22.7238"
      y1="18.6664"
      x2="19.2995"
      y2="18.5175"
      gradientUnits="userSpaceOnUse"
    >
      <stop stop-color="#00ADEF"></stop>
      <stop offset="1" stop-color="#8AC640"></stop>
    </linearGradient>
  </defs>
</svg>