<svg
  width="31"
  height="33"
  viewBox="0 0 31 33"
  fill="none"
  xmlns="http://www.w3.org/2000/svg"
  preserveAspectRatio="xMidYMid meet"
>
  <path
    d="M30.7131 3.49644C30.669 3.04299 30.2848 2.69658 29.8314 2.69658H25.8826V1.39289C25.8826 0.901661 25.4858 0.504883 24.9946 0.504883H5.80461C5.31338 0.504883 4.9166 0.901649 4.9166 1.39289V2.69658H0.967821C0.514372 2.69658 0.130192 3.04297 0.0861429 3.49644C0.0546531 3.77985 -0.587726 10.4493 2.18335 14.8203C2.3471 15.0785 2.6305 15.236 2.93283 15.236H7.42955C7.883 15.765 8.38683 16.2499 8.95365 16.6908C10.1062 17.5914 10.8367 18.8321 11.0383 20.1735C9.55198 20.3939 8.40571 21.6787 8.40571 23.228C8.40571 23.7003 8.51278 24.1412 8.70171 24.5442H7.5114C7.27838 24.5442 7.05165 24.6387 6.88792 24.8025L4.22388 27.435C4.05384 27.605 3.95937 27.8318 3.95937 28.0648V31.6169C3.95937 32.1081 4.35613 32.5049 4.84738 32.5049H25.9456C26.4368 32.5049 26.8336 32.1081 26.8336 31.6169V28.0648C26.8336 27.8255 26.7391 27.5988 26.5691 27.435L23.905 24.8025C23.7413 24.6387 23.5146 24.5442 23.2816 24.5442H22.0912C22.2802 24.1475 22.3872 23.7003 22.3872 23.228C22.3872 21.6787 21.241 20.4003 19.7547 20.1735C19.9562 18.8258 20.6868 17.5851 21.8393 16.6908C22.3998 16.2499 22.91 15.765 23.3634 15.236H27.8601C28.1624 15.236 28.4458 15.0785 28.6096 14.8203C31.3807 10.4496 30.7383 3.78031 30.7131 3.49644ZM3.437 13.4533C1.76175 10.4429 1.73025 6.21714 1.79952 4.47244H4.917V8.42755C4.917 10.2161 5.36415 11.9355 6.19547 13.4533L3.437 13.4533ZM22.9166 26.3134L25.0579 28.4295V30.7219H5.73609V28.4295L7.87741 26.3134H22.9166ZM20.6053 23.2212C20.6053 23.9454 20.0133 24.5374 19.289 24.5374H11.4983C10.7741 24.5374 10.1821 23.9454 10.1821 23.2212C10.1821 22.4969 10.7741 21.9049 11.4983 21.9049H19.2954C20.0196 21.9112 20.6053 22.4969 20.6053 23.2212ZM24.1006 8.42749C24.1006 11.123 22.8788 13.617 20.7501 15.2796C19.1693 16.514 18.1805 18.246 17.9664 20.129H12.8399C12.6195 18.246 11.6307 16.514 10.0499 15.2796C8.51955 14.0893 7.46778 12.4644 6.98917 10.6506H8.48805C8.97929 10.6506 9.37607 10.2539 9.37607 9.76262C9.37607 9.27137 8.9793 8.87461 8.48805 8.87461H6.70575C6.69946 8.72346 6.69316 7.46388 6.69316 7.46388H9.77281C10.264 7.46388 10.6608 7.06711 10.6608 6.57586C10.6608 6.08462 10.2641 5.68785 9.77281 5.68785H6.69316V2.28068H19.8999V6.84039C19.8999 7.33162 20.2967 7.7284 20.7879 7.7284C21.2792 7.7284 21.6759 7.33164 21.6759 6.84039V2.28068H24.0943V8.42743L24.1006 8.42749ZM27.3566 13.4532H24.5918C25.4232 11.9354 25.8703 10.2224 25.8703 8.42749V4.47238H28.9878C29.0633 6.2169 29.0381 10.4365 27.3566 13.4532Z"
    fill="url(#paint0_linear_208_2819)"
  ></path>
  <defs>
    <linearGradient
      id="paint0_linear_208_2819"
      x1="30.7949"
      y1="32.5049"
      x2="-2.07225"
      y2="30.2122"
      gradientUnits="userSpaceOnUse"
    >
      <stop stop-color="#00ADEF"></stop>
      <stop offset="1" stop-color="#8AC640"></stop>
    </linearGradient>
  </defs>
</svg>