<svg
  width="32"
  height="32"
  viewBox="0 0 32 32"
  fill="none"
  xmlns="http://www.w3.org/2000/svg"
  preserveAspectRatio="xMidYMid meet"
>
  <path
    fill-rule="evenodd"
    clip-rule="evenodd"
    d="M23.7237 15.4481C19.1564 15.4481 15.4478 19.1567 15.4478 23.724C15.4478 28.2914 19.1564 32 23.7237 32C28.2911 32 31.9997 28.2914 31.9997 23.724C31.9997 19.1567 28.2911 15.4481 23.7237 15.4481ZM23.7237 16.5515C27.6819 16.5515 30.8962 19.7659 30.8962 23.724C30.8962 27.6822 27.6819 30.8965 23.7237 30.8965C19.7656 30.8965 16.5512 27.6822 16.5512 23.724C16.5512 19.7659 19.7656 16.5515 23.7237 16.5515ZM23.7237 29.5169C23.5107 29.5169 23.3375 29.6901 23.3375 29.9031C23.3375 30.1162 23.5107 30.2893 23.7237 30.2893C23.9368 30.2893 24.11 30.1162 24.11 29.9031C24.11 29.6901 23.9368 29.5169 23.7237 29.5169ZM25.423 30.0654C25.6294 30.0103 25.7508 29.7984 25.6957 29.5933C25.6405 29.3868 25.4287 29.2644 25.2235 29.3196C25.0171 29.3748 24.8947 29.5866 24.9498 29.793C25.005 29.9982 25.2168 30.1208 25.4233 30.0657L25.423 30.0654ZM22.224 29.3196C22.0188 29.2644 21.807 29.3869 21.7518 29.5933C21.6966 29.7984 21.8181 30.0103 22.0245 30.0654C22.2309 30.1206 22.4427 29.9982 22.4979 29.7928C22.553 29.5864 22.4306 29.3745 22.2242 29.3194L22.224 29.3196ZM20.8269 28.7413C20.6427 28.6341 20.4055 28.6972 20.2996 28.8824C20.1924 29.0667 20.2565 29.3029 20.4407 29.4098C20.625 29.5157 20.8622 29.4529 20.9681 29.2686C21.0752 29.0832 21.0112 28.8472 20.8269 28.7413ZM27.0063 29.41C27.1906 29.3028 27.2546 29.0669 27.1475 28.8826C27.0415 28.6972 26.8043 28.6343 26.6201 28.7415C26.4359 28.8474 26.3718 29.0836 26.479 29.2688C26.5849 29.4531 26.8221 29.5161 27.0063 29.41ZM23.9994 19.8616H23.4476V19.0285C23.4476 18.7241 23.2003 18.4768 22.8959 18.4768C22.5915 18.4768 22.3442 18.7241 22.3442 19.0285V20.0061C22.1653 20.0867 21.9998 20.2002 21.8587 20.3416C21.5508 20.6483 21.3786 21.0655 21.3786 21.5003V22.6367C21.3786 23.0714 21.5508 23.4887 21.8587 23.7953C22.1653 24.1032 22.5826 24.2754 23.0173 24.2754H24.4296C24.572 24.2754 24.7077 24.3315 24.8082 24.432C24.9087 24.5325 24.9649 24.6682 24.9649 24.8106V25.9471C24.9649 26.0894 24.9087 26.2251 24.8082 26.3256C24.7077 26.4261 24.572 26.4823 24.4296 26.4823H23.0173C22.875 26.4823 22.7392 26.4261 22.6387 26.3256C22.5383 26.2251 22.4742 26.1126 22.4821 25.9471C22.4831 25.9249 22.6841 25.1439 22.1434 25.1029C21.574 25.0598 21.3786 25.3093 21.3786 25.9305V25.947C21.3786 26.3818 21.5508 26.799 21.8587 27.1057C21.9998 27.2468 22.1653 27.3606 22.3442 27.4411V28.4187C22.3442 28.7232 22.5915 28.9705 22.8959 28.9705C23.2003 28.9705 23.4476 28.7232 23.4476 28.4187V27.5857H23.9993V28.4187C23.9993 28.7232 24.2466 28.9705 24.5511 28.9705C24.8555 28.9705 25.1028 28.7232 25.1028 28.4187V27.4411C25.2816 27.3606 25.4471 27.2471 25.5883 27.1057C25.8962 26.799 26.0683 26.3818 26.0683 25.947V24.8106C26.0683 24.3759 25.8962 23.9586 25.5883 23.652C25.2816 23.3441 24.8644 23.1719 24.4296 23.1719H23.0173C22.875 23.1719 22.7393 23.1157 22.6388 23.0152C22.5383 22.9148 22.4821 22.779 22.4821 22.6367V21.5002C22.4821 21.3579 22.5383 21.2221 22.6388 21.1217C22.7393 21.0212 22.875 20.965 23.0173 20.965H24.4296C24.572 20.965 24.7077 21.0212 24.8082 21.1217C24.9087 21.2222 24.9649 21.3579 24.9649 21.5002V21.5167C24.9649 21.8212 25.2122 22.0685 25.5166 22.0685C25.5166 22.0685 26.0683 22.0143 26.0683 21.5002C26.0683 21.0655 25.8962 20.6482 25.5883 20.3416C25.4471 20.2005 25.2816 20.0867 25.1028 20.0061V19.0285C25.1028 18.7241 24.8555 18.4768 24.5511 18.4768C24.2466 18.4768 23.9993 18.7241 23.9993 19.0285L23.9994 19.8616ZM19.6274 27.8197C19.4761 27.6697 19.2313 27.6697 19.0811 27.8197C18.9298 27.971 18.9298 28.2158 19.0811 28.366C19.2311 28.5173 19.4761 28.5173 19.6274 28.366C19.7774 28.216 19.7774 27.971 19.6274 27.8197ZM28.3655 28.366C28.5168 28.216 28.5168 27.971 28.3655 27.8197C28.2155 27.6697 27.9705 27.6697 27.8192 27.8197C27.6692 27.971 27.6692 28.2158 27.8192 28.366C27.9705 28.5173 28.2153 28.5173 28.3655 28.366ZM29.4094 27.0066C29.5153 26.8224 29.4525 26.5852 29.2683 26.4793C29.0828 26.3722 28.8468 26.4362 28.7409 26.6204C28.6338 26.8047 28.6968 27.0419 28.8821 27.1478C29.0663 27.2549 29.3025 27.1909 29.4094 27.0066ZM18.7058 26.6204C18.5999 26.4362 18.3637 26.3722 18.1785 26.4793C17.9942 26.5852 17.9312 26.8224 18.0373 27.0066C18.1445 27.1909 18.3804 27.2549 18.5647 27.1478C18.7502 27.0419 18.813 26.8047 18.7058 26.6204ZM13.5163 25.9307H5.24037V18.7582C5.24037 18.4538 4.99308 18.2065 4.68864 18.2065C4.38421 18.2065 4.13691 18.4538 4.13691 18.7582V26.4825C4.13691 26.7869 4.38421 27.0342 4.68864 27.0342H13.5163C13.8208 27.0342 14.0681 26.7869 14.0681 26.4825C14.0681 26.178 13.8208 25.9307 13.5163 25.9307ZM18.1277 25.2233C18.0726 25.0169 17.8607 24.8945 17.6543 24.9497C17.4492 25.0048 17.3265 25.2167 17.3817 25.4231C17.4368 25.6295 17.6487 25.7509 17.8538 25.6957C18.0602 25.6406 18.1827 25.4287 18.1275 25.2236L18.1277 25.2233ZM30.0653 25.4231C30.1205 25.2167 29.9981 25.0048 29.7926 24.9497C29.5862 24.8945 29.3744 25.0169 29.3192 25.2233C29.2641 25.4285 29.3865 25.6403 29.5929 25.6955C29.7981 25.7507 30.0099 25.6292 30.0651 25.4228L30.0653 25.4231ZM17.9304 23.7238C17.9304 23.5108 17.7572 23.3376 17.5442 23.3376C17.3311 23.3376 17.158 23.5108 17.158 23.7238C17.158 23.9369 17.3311 24.11 17.5442 24.11C17.7572 24.11 17.9304 23.9369 17.9304 23.7238ZM30.2892 23.7238C30.2892 23.5108 30.116 23.3376 29.9029 23.3376C29.6899 23.3376 29.5167 23.5108 29.5167 23.7238C29.5167 23.9369 29.6899 24.11 29.9029 24.11C30.116 24.11 30.2892 23.9369 30.2892 23.7238ZM18.1277 22.2243C18.1829 22.0191 18.0605 21.8073 17.8541 21.7521C17.6489 21.697 17.4371 21.8184 17.3819 22.0248C17.3267 22.2312 17.4492 22.443 17.6546 22.4982C17.861 22.5534 18.0728 22.4309 18.128 22.2245L18.1277 22.2243ZM30.0653 22.0245C30.0101 21.8181 29.7983 21.6967 29.5931 21.7519C29.3867 21.8071 29.2643 22.0189 29.3195 22.2241C29.3747 22.4305 29.5865 22.5529 29.7929 22.4977C29.9981 22.4425 30.1207 22.2307 30.0656 22.0243L30.0653 22.0245ZM18.7066 20.8273C18.8137 20.643 18.7507 20.4058 18.5654 20.2999C18.3812 20.1928 18.145 20.2568 18.0381 20.441C17.9322 20.6253 17.995 20.8625 18.1792 20.9684C18.3647 21.0755 18.6007 21.0115 18.7066 20.8273ZM29.4102 20.441C29.303 20.2568 29.0671 20.1928 28.8828 20.2999C28.6973 20.4058 28.6345 20.643 28.7417 20.8273C28.8476 21.0115 29.0838 21.0755 29.269 20.9684C29.4533 20.8625 29.5163 20.6253 29.4102 20.441ZM28.3663 19.0816C28.2163 18.9304 27.9712 18.9304 27.82 19.0816C27.67 19.2316 27.67 19.4767 27.82 19.628C27.9712 19.778 28.216 19.778 28.3663 19.628C28.5175 19.4767 28.5175 19.2319 28.3663 19.0816ZM19.6281 19.628C19.7781 19.4767 19.7781 19.2319 19.6281 19.0816C19.4769 18.9304 19.2321 18.9304 19.0818 19.0816C18.9306 19.2316 18.9306 19.4767 19.0818 19.628C19.2318 19.778 19.4769 19.778 19.6281 19.628ZM20.8276 18.7065C21.0119 18.6006 21.0759 18.3644 20.9688 18.1792C20.8628 17.9949 20.6257 17.9319 20.4414 18.038C20.2572 18.1452 20.1931 18.3812 20.3003 18.5654C20.4062 18.7509 20.6434 18.8137 20.8276 18.7065ZM27.007 18.0378C26.8228 17.9319 26.5856 17.9947 26.4797 18.179C26.3725 18.3644 26.4366 18.6004 26.6208 18.7063C26.805 18.8135 27.0422 18.7504 27.1481 18.5652C27.2553 18.3809 27.1913 18.1447 27.007 18.0378ZM22.2247 18.1282C22.4311 18.0731 22.5535 17.8612 22.4983 17.6548C22.4431 17.4497 22.2313 17.327 22.0249 17.3822C21.8185 17.4373 21.6971 17.6492 21.7522 17.8543C21.8074 18.0607 22.0193 18.1832 22.2244 18.128L22.2247 18.1282ZM25.4237 17.3824C25.2173 17.3272 25.0055 17.4497 24.9503 17.6551C24.8951 17.8615 25.0175 18.0733 25.2239 18.1285C25.4291 18.1837 25.6409 18.0612 25.6961 17.8548C25.7513 17.6497 25.6299 17.4378 25.4235 17.3827L25.4237 17.3824ZM23.7244 17.1585C23.5114 17.1585 23.3382 17.3317 23.3382 17.5447C23.3382 17.7578 23.5114 17.9309 23.7244 17.9309C23.9375 17.9309 24.1106 17.7578 24.1106 17.5447C24.1106 17.3317 23.9375 17.1585 23.7244 17.1585ZM8.27596 0C3.70864 0 0 3.70864 0 8.27596C0 12.8433 3.70864 16.5519 8.27596 16.5519C12.8433 16.5519 16.5519 12.8433 16.5519 8.27596C16.5519 3.70864 12.8433 0 8.27596 0ZM8.27596 1.10346C12.2341 1.10346 15.4485 4.31782 15.4485 8.27596C15.4485 12.2341 12.2341 15.4485 8.27596 15.4485C4.31782 15.4485 1.10346 12.2341 1.10346 8.27596C1.10346 4.31782 4.31782 1.10346 8.27596 1.10346ZM8.27596 14.0688C8.06291 14.0688 7.88975 14.242 7.88975 14.455C7.88975 14.6681 8.06291 14.8412 8.27596 14.8412C8.48902 14.8412 8.66218 14.6681 8.66218 14.455C8.66218 14.242 8.48902 14.0688 8.27596 14.0688ZM6.77645 13.8713C6.57128 13.8161 6.35945 13.9385 6.30428 14.1449C6.24911 14.3501 6.37054 14.5619 6.57694 14.6171C6.78335 14.6723 6.99517 14.5499 7.05035 14.3444C7.10552 14.138 6.9831 13.9262 6.7767 13.871L6.77645 13.8713ZM9.97549 14.6171C10.1819 14.5619 10.3033 14.3501 10.2481 14.1449C10.193 13.9385 9.98115 13.8161 9.77597 13.8713C9.56957 13.9265 9.44715 14.1383 9.50233 14.3447C9.5575 14.5499 9.76933 14.6725 9.97573 14.6173L9.97549 14.6171ZM5.3796 13.2929C5.19536 13.1858 4.95816 13.2489 4.85225 13.4341C4.74511 13.6183 4.80915 13.8545 4.99339 13.9614C5.17763 14.0673 5.41482 14.0045 5.52073 13.8203C5.62788 13.6348 5.56384 13.3989 5.3796 13.2929ZM11.559 13.9616C11.7432 13.8545 11.8073 13.6185 11.7001 13.4343C11.5942 13.2488 11.357 13.186 11.1728 13.2932C10.9885 13.3991 10.9245 13.6353 11.0316 13.8205C11.1376 14.0047 11.3747 14.0678 11.559 13.9616ZM18.4831 6.06842H26.759V13.2409C26.759 13.5454 27.0063 13.7927 27.3107 13.7927C27.6152 13.7927 27.8625 13.5454 27.8625 13.2409V5.51669C27.8625 5.21226 27.6152 4.96496 27.3107 4.96496H18.4831C18.1786 4.96496 17.9313 5.21226 17.9313 5.51669C17.9313 5.82113 18.1786 6.06842 18.4831 6.06842ZM8.11051 4.25093C7.96149 4.25758 7.81371 4.27088 7.66912 4.2928V3.64056C7.66912 3.33612 7.42183 3.08883 7.11739 3.08883C6.81296 3.08883 6.56566 3.33612 6.56566 3.64056V4.62825C5.19743 5.2716 4.24839 6.66303 4.24839 8.2751C4.24839 10.034 5.37846 11.5313 6.95187 12.0798V12.9096C6.95187 13.2141 7.19917 13.4614 7.5036 13.4614C7.80804 13.4614 8.05534 13.2141 8.05534 12.9096V12.2973C8.12824 12.3005 8.20213 12.3027 8.27603 12.3027C8.34992 12.3027 8.42382 12.3005 8.49672 12.2973V12.9096C8.49672 13.2141 8.74402 13.4614 9.04845 13.4614C9.35289 13.4614 9.60018 13.2141 9.60018 12.9096V12.0798C10.1078 11.9032 10.5689 11.6274 10.9618 11.2766C11.1879 11.0725 11.2079 10.7239 11.0037 10.4976C10.8007 10.2703 10.4519 10.2515 10.2246 10.4545C9.70811 10.918 9.02412 11.1993 8.27584 11.1993C6.66151 11.1993 5.35167 9.88946 5.35167 8.27512C5.35167 6.66079 6.66151 5.35095 8.27584 5.35095C9.02386 5.35095 9.70814 5.63223 10.2246 6.09576C10.452 6.29872 10.8007 6.28 11.0037 6.05265C11.2079 5.82654 11.1879 5.47777 10.9618 5.27361C10.4719 4.83543 9.87384 4.5155 9.21397 4.35786V3.64061C9.21397 3.33617 8.96667 3.08888 8.66224 3.08888C8.3578 3.08888 8.11051 3.33617 8.11051 3.64061V4.25093ZM4.17991 12.3711C4.02868 12.2211 3.78385 12.2211 3.6336 12.3711C3.48237 12.5224 3.48237 12.7672 3.6336 12.9175C3.7836 13.0687 4.02868 13.0687 4.17991 12.9175C4.32992 12.7675 4.32992 12.5224 4.17991 12.3711ZM12.9181 12.9175C13.0693 12.7675 13.0693 12.5224 12.9181 12.3711C12.7681 12.2211 12.523 12.2211 12.3718 12.3711C12.2218 12.5224 12.2218 12.7672 12.3718 12.9175C12.523 13.0687 12.7678 13.0687 12.9181 12.9175ZM13.9619 11.5581C14.0679 11.3738 14.0051 11.1366 13.8208 11.0307C13.6353 10.9236 13.3994 10.9876 13.2935 11.1718C13.1863 11.3561 13.2494 11.5933 13.4346 11.6992C13.6188 11.8063 13.8551 11.7423 13.9619 11.5581ZM3.25837 11.1718C3.15245 10.9876 2.91624 10.9236 2.73102 11.0307C2.54678 11.1366 2.48372 11.3738 2.58988 11.5581C2.69702 11.7423 2.93299 11.8063 3.11723 11.6992C3.3027 11.5933 3.36551 11.3561 3.25837 11.1718ZM2.68003 9.7748C2.62486 9.5684 2.41303 9.44598 2.20663 9.50115C2.00145 9.55633 1.87879 9.76815 1.93397 9.97456C1.98914 10.181 2.20096 10.3024 2.40614 10.2472C2.61254 10.192 2.73496 9.98022 2.67979 9.77505L2.68003 9.7748ZM14.6176 9.97456C14.6728 9.76815 14.5504 9.55633 14.3449 9.50115C14.1385 9.44598 13.9267 9.5684 13.8715 9.7748C13.8164 9.97997 13.9388 10.1918 14.1452 10.247C14.3504 10.3021 14.5622 10.1807 14.6174 9.97431L14.6176 9.97456ZM14.8415 8.27529C14.8415 8.06223 14.6683 7.88908 14.4553 7.88908C14.2422 7.88908 14.0691 8.06223 14.0691 8.27529C14.0691 8.48835 14.2422 8.6615 14.4553 8.6615C14.6683 8.6615 14.8415 8.48835 14.8415 8.27529ZM2.48272 8.27529C2.48272 8.06223 2.30956 7.88908 2.09651 7.88908C1.88345 7.88908 1.7103 8.06223 1.7103 8.27529C1.7103 8.48835 1.88345 8.6615 2.09651 8.6615C2.30956 8.6615 2.48272 8.48835 2.48272 8.27529ZM14.6176 6.57602C14.5625 6.36962 14.3506 6.24819 14.1455 6.30336C13.9391 6.35853 13.8167 6.57036 13.8718 6.77553C13.927 6.98194 14.1388 7.10435 14.3452 7.04918C14.5504 6.99401 14.6731 6.78218 14.6179 6.57578L14.6176 6.57602ZM2.68008 6.77578C2.73525 6.57061 2.61284 6.35878 2.40644 6.30361C2.20126 6.24843 1.98943 6.36986 1.93426 6.57627C1.87909 6.78267 2.0015 6.9945 2.20692 7.04967C2.41333 7.10485 2.62515 6.98243 2.68033 6.77603L2.68008 6.77578ZM3.25842 5.37873C3.36556 5.19449 3.30251 4.9573 3.11728 4.85139C2.93304 4.74424 2.69683 4.80828 2.58993 4.99252C2.48402 5.17676 2.54683 5.41396 2.73107 5.51987C2.91654 5.62701 3.1525 5.56297 3.25842 5.37873ZM13.962 4.99252C13.8549 4.80828 13.6189 4.74424 13.4346 4.85139C13.2492 4.9573 13.1864 5.19449 13.2935 5.37873C13.3994 5.56297 13.6356 5.62701 13.8209 5.51987C14.0051 5.41396 14.0682 5.17676 13.962 4.99252ZM12.9181 3.63312C12.7681 3.48189 12.523 3.48189 12.3718 3.63312C12.2218 3.78312 12.2218 4.0282 12.3718 4.17943C12.523 4.32944 12.7679 4.32944 12.9181 4.17943C13.0694 4.0282 13.0694 3.78337 12.9181 3.63312ZM4.17996 4.17943C4.32997 4.0282 4.32997 3.78337 4.17996 3.63312C4.02873 3.48189 3.7839 3.48189 3.63365 3.63312C3.48242 3.78312 3.48242 4.0282 3.63365 4.17943C3.78365 4.32944 4.02873 4.32944 4.17996 4.17943ZM5.37946 3.25801C5.5637 3.1521 5.62774 2.91589 5.52059 2.73066C5.41468 2.54642 5.17749 2.48337 4.99325 2.58953C4.80901 2.69667 4.74497 2.93264 4.85211 3.11688C4.95803 3.30235 5.19522 3.36516 5.37946 3.25801ZM11.5588 2.58931C11.3746 2.4834 11.1374 2.54621 11.0315 2.73045C10.9244 2.91592 10.9884 3.15188 11.1726 3.2578C11.3569 3.36494 11.5941 3.30189 11.7 3.11666C11.8071 2.93242 11.7431 2.69621 11.5588 2.58931ZM9.97535 1.93386C9.76894 1.87869 9.55712 2.0011 9.50194 2.20652C9.44677 2.41292 9.56918 2.62475 9.77559 2.67992C9.98076 2.7351 10.1926 2.61268 10.2478 2.40628C10.3029 2.2011 10.1815 1.98928 9.9751 1.9341L9.97535 1.93386ZM6.77632 2.67967C6.98272 2.6245 7.10513 2.41267 7.04996 2.20627C6.99479 2.00109 6.78296 1.87843 6.57656 1.93361C6.37015 1.98878 6.24872 2.20061 6.3039 2.40578C6.35907 2.61218 6.5709 2.7346 6.77607 2.67943L6.77632 2.67967ZM8.27583 1.7097C8.06277 1.7097 7.88961 1.88285 7.88961 2.09591C7.88961 2.30897 8.06277 2.48212 8.27583 2.48212C8.48888 2.48212 8.66204 2.30897 8.66204 2.09591C8.66204 1.88285 8.48888 1.7097 8.27583 1.7097Z"
    fill="url(#paint0_linear_86_3536)"
  ></path>
  <defs>
    <linearGradient
      id="paint0_linear_86_3536"
      x1="31.9997"
      y1="32"
      x2="-2.14013"
      y2="29.5254"
      gradientUnits="userSpaceOnUse"
    >
      <stop stop-color="#00ADEF"></stop>
      <stop offset="1" stop-color="#8AC640"></stop>
    </linearGradient>
  </defs>
</svg>