<svg
  width="35"
  height="32"
  viewBox="0 0 35 32"
  fill="none"
  xmlns="http://www.w3.org/2000/svg"
  style="width: 34.17px; height: 32px;"
  preserveAspectRatio="xMidYMid meet"
>
  <path
    d="M9.69358 0.0186762C8.78654 0.102403 7.9423 0.486151 7.44342 1.03735C6.98641 1.54669 6.66197 2.21651 6.47707 3.04331C6.41428 3.33287 6.40381 3.49334 6.40381 4.1492C6.40032 5.16439 6.49103 5.64931 6.85733 6.56333C6.94106 6.77614 7.01083 6.96103 7.01083 6.9715C7.01083 6.98196 6.11077 6.99243 5.00836 6.99243C3.42453 6.99243 2.95008 7.0029 2.74774 7.04127C1.31043 7.32036 0.214998 8.49254 0.0370787 9.94032C-0.011762 10.338 -0.011762 11.8381 0.0335901 12.2254C0.0545218 12.3893 0.0963853 12.6161 0.127783 12.7312C0.204533 13.0208 0.455713 13.551 0.64061 13.8092C0.815041 14.0534 1.23368 14.4651 1.46393 14.622C1.85116 14.8837 2.43725 15.1105 2.88379 15.1732L3.06869 15.1977V21.0062C3.06869 26.0752 3.07567 26.8636 3.12451 27.1811C3.44895 29.365 5.04325 31.1756 7.17829 31.7791C7.95625 31.9989 7.21317 31.9849 16.7615 31.9954C22.7585 32.0058 25.5877 31.9989 25.9017 31.971C27.1995 31.8663 28.3472 31.3709 29.2682 30.5267C30.1578 29.7103 30.737 28.6951 31.0195 27.4532L31.0963 27.1043L31.1067 21.1527L31.1172 15.2046L31.3823 15.1593C31.8638 15.0791 32.3696 14.8697 32.7743 14.5802C33.015 14.4092 33.4267 13.9906 33.5837 13.7604C33.8209 13.408 34.0197 12.9301 34.1244 12.4521C34.1907 12.1486 34.1872 10.0624 34.1209 9.731C33.8628 8.44719 32.9766 7.47735 31.7068 7.09011C31.4521 7.01336 31.4137 7.01336 29.3136 6.99941C28.1379 6.99592 27.1751 6.98196 27.1751 6.9715C27.1751 6.96103 27.2274 6.83195 27.2937 6.68194C27.9705 5.14346 27.9984 3.31193 27.3669 1.97579C27.1472 1.51529 26.9413 1.21876 26.6239 0.915252C25.975 0.297766 25.1726 0.0082103 24.0876 0.00472168C23.8016 0.00472168 23.4388 0.0221648 23.2853 0.0465851C21.1014 0.384981 18.8512 1.88858 17.5325 3.88756C17.372 4.12827 17.2116 4.37596 17.1732 4.43876L17.1034 4.55737L16.8836 4.20153C15.687 2.24791 13.6008 0.681514 11.5286 0.175664C10.9181 0.0256534 10.2448 -0.0336532 9.69358 0.0186762ZM10.6774 2.16069C12.2228 2.39094 13.9811 3.62242 14.9788 5.16439C15.2789 5.63536 15.687 6.51798 15.7812 6.89475L15.8022 6.99243H12.6833H9.56102L9.41798 6.80753C8.82492 6.01911 8.50396 5.09462 8.50396 4.16665C8.50396 3.48288 8.647 2.94563 8.9226 2.57932C9.22611 2.17813 9.83313 2.03161 10.6774 2.16069ZM24.74 2.20953C25.2738 2.38047 25.5773 2.88283 25.6819 3.77592C25.7308 4.212 25.6854 4.74925 25.5529 5.24812C25.4447 5.65978 25.0819 6.39936 24.8307 6.73078L24.6458 6.97499L21.5305 6.98545C18.471 6.99243 18.4186 6.99243 18.4186 6.92615C18.4186 6.81451 18.6175 6.30168 18.8338 5.85863C19.2036 5.10509 19.6257 4.52946 20.2502 3.92593C21.2584 2.9561 22.441 2.32117 23.5643 2.14674C23.8923 2.09441 24.4714 2.1258 24.74 2.20953ZM16.0394 11.0985L16.0289 13.0801H9.57497H3.12102L2.92217 12.9998C2.67797 12.9022 2.41632 12.6719 2.29422 12.4451C2.14421 12.1695 2.11979 11.9463 2.13374 10.9695C2.14421 10.1601 2.15467 10.0624 2.22096 9.89845C2.35701 9.55657 2.62912 9.29492 2.96403 9.1798C3.10358 9.13096 3.79781 9.12398 9.58544 9.12049H16.0464L16.0394 11.0985ZM31.3335 9.21817C31.5917 9.34725 31.801 9.55308 31.9266 9.81124L32.0417 10.045V11.0916V12.1381L31.9405 12.3544C31.7661 12.7347 31.4277 12.9894 31.0091 13.0626C30.8521 13.0871 28.895 13.0975 24.4714 13.0905L18.157 13.0801L18.1465 11.0985L18.1395 9.12049L24.6528 9.12747L31.1695 9.13793L31.3335 9.21817ZM16.0568 22.4714C16.0603 26.4589 16.0778 29.7557 16.0952 29.801L16.1266 29.8813L12.1705 29.8673C8.65397 29.8569 8.18999 29.8499 7.98765 29.7975C6.75965 29.4906 5.83866 28.6951 5.42002 27.5788C5.18628 26.9578 5.19675 27.2578 5.19675 20.9434V15.2256H10.6216H16.0464L16.0568 22.4714ZM28.9822 21.0934L28.9717 26.9648L28.8915 27.2439C28.5601 28.3951 27.6914 29.3161 26.5925 29.6789C26.3866 29.7452 26.0762 29.8185 25.9017 29.8394C25.6959 29.8638 24.2935 29.8778 21.8235 29.8778H18.0628L18.0907 29.7975C18.1081 29.7557 18.1256 26.4589 18.1291 22.4714L18.1395 15.2256H23.5643H28.9892L28.9822 21.0934Z"
    fill="url(#paint0_linear_86_3575)"
  ></path>
  <path
    d="M26.6515 0.939666C26.7178 1.00595 26.7771 1.06177 26.7876 1.06177C26.798 1.06177 26.7527 1.00595 26.6864 0.939666C26.6201 0.873382 26.5608 0.817564 26.5503 0.817564C26.5399 0.817564 26.5852 0.873382 26.6515 0.939666Z"
    fill="url(#paint1_linear_86_3575)"
  ></path>
  <path
    d="M14.075 4.06212C14.1482 4.13886 14.218 4.20166 14.2285 4.20166C14.2389 4.20166 14.1831 4.13886 14.1098 4.06212C14.0366 3.98537 13.9668 3.92257 13.9563 3.92257C13.9459 3.92257 14.0017 3.98537 14.075 4.06212Z"
    fill="url(#paint2_linear_86_3575)"
  ></path>
  <path
    d="M8.4834 4.1668C8.4834 4.23308 8.49038 4.26099 8.50084 4.2261C8.50782 4.19471 8.50782 4.13889 8.50084 4.104C8.49038 4.0726 8.4834 4.10051 8.4834 4.1668Z"
    fill="url(#paint3_linear_86_3575)"
  ></path>
  <path
    d="M11.12 6.98207C11.9922 6.98905 13.4051 6.98905 14.2598 6.98207C15.118 6.97858 14.4063 6.97509 12.6794 6.97509C10.9526 6.97509 10.2513 6.97858 11.12 6.98207Z"
    fill="url(#paint4_linear_86_3575)"
  ></path>
  <path
    d="M19.9637 6.98207C20.8219 6.98905 22.2243 6.98905 23.086 6.98207C23.9442 6.97858 23.2395 6.97509 21.5231 6.97509C19.8067 6.97509 19.102 6.97858 19.9637 6.98207Z"
    fill="url(#paint5_linear_86_3575)"
  ></path>
  <path
    d="M28.0888 6.98207C28.6016 6.98905 29.4493 6.98905 29.9726 6.98207C30.4959 6.97858 30.0773 6.97509 29.0412 6.97509C28.005 6.97509 27.5759 6.97858 28.0888 6.98207Z"
    fill="url(#paint6_linear_86_3575)"
  ></path>
  <path
    d="M16.0186 11.0811L16.0117 13.0626L9.63794 13.0731L3.26074 13.08L9.63794 13.0905C14.7139 13.094 16.0186 13.087 16.0291 13.0521C16.0396 13.0312 16.0431 12.1311 16.0396 11.0566L16.0291 9.10301L16.0186 11.0811Z"
    fill="url(#paint7_linear_86_3575)"
  ></path>
  <path
    d="M18.1572 11.109V13.0801H24.5344H30.9081L24.5414 13.0731L18.1747 13.0626L18.1642 11.0985L18.1572 9.13794V11.109Z"
    fill="url(#paint8_linear_86_3575)"
  ></path>
  <path
    d="M0.975719 14.2314C1.042 14.2977 1.10131 14.3535 1.11177 14.3535C1.12224 14.3535 1.07689 14.2977 1.0106 14.2314C0.944321 14.1651 0.885015 14.1093 0.874549 14.1093C0.864083 14.1093 0.909435 14.1651 0.975719 14.2314Z"
    fill="url(#paint9_linear_86_3575)"
  ></path>
  <path
    d="M33.1723 14.2383L33.0537 14.3708L33.1863 14.2522C33.3049 14.1371 33.3328 14.1092 33.3049 14.1092C33.2979 14.1092 33.2386 14.1685 33.1723 14.2383Z"
    fill="url(#paint10_linear_86_3575)"
  ></path>
  <path
    d="M16.0293 22.3598C16.0293 26.2915 16.0328 27.8963 16.0363 25.9252C16.0433 23.9506 16.0433 20.7341 16.0363 18.7735C16.0328 16.8129 16.0293 18.4247 16.0293 22.3598Z"
    fill="url(#paint11_linear_86_3575)"
  ></path>
  <path
    d="M18.1572 22.3598C18.1572 26.2915 18.1607 27.8963 18.1642 25.9252C18.1712 23.9506 18.1712 20.7341 18.1642 18.7735C18.1607 16.8129 18.1572 18.4247 18.1572 22.3598Z"
    fill="url(#paint12_linear_86_3575)"
  ></path>
  <defs>
    <linearGradient
      id="paint0_linear_86_3575"
      x1="34.1724"
      y1="4.76837e-7"
      x2="-2.25871"
      y2="2.81999"
      gradientUnits="userSpaceOnUse"
    >
      <stop stop-color="#00ADEF"></stop>
      <stop offset="1" stop-color="#8AC640"></stop>
    </linearGradient>
    <linearGradient
      id="paint1_linear_86_3575"
      x1="26.7891"
      y1="0.817564"
      x2="26.5327"
      y2="0.835843"
      gradientUnits="userSpaceOnUse"
    >
      <stop stop-color="#00ADEF"></stop>
      <stop offset="1" stop-color="#8AC640"></stop>
    </linearGradient>
    <linearGradient
      id="paint2_linear_86_3575"
      x1="14.2297"
      y1="3.92257"
      x2="13.9367"
      y2="3.94347"
      gradientUnits="userSpaceOnUse"
    >
      <stop stop-color="#00ADEF"></stop>
      <stop offset="1" stop-color="#8AC640"></stop>
    </linearGradient>
    <linearGradient
      id="paint3_linear_86_3575"
      x1="8.50607"
      y1="4.09112"
      x2="8.48176"
      y2="4.09138"
      gradientUnits="userSpaceOnUse"
    >
      <stop stop-color="#00ADEF"></stop>
      <stop offset="1" stop-color="#8AC640"></stop>
    </linearGradient>
    <linearGradient
      id="paint4_linear_86_3575"
      x1="14.6239"
      y1="6.97509"
      x2="14.616"
      y2="7.15541"
      gradientUnits="userSpaceOnUse"
    >
      <stop stop-color="#00ADEF"></stop>
      <stop offset="1" stop-color="#8AC640"></stop>
    </linearGradient>
    <linearGradient
      id="paint5_linear_86_3575"
      x1="23.4518"
      y1="6.97509"
      x2="23.4439"
      y2="7.15541"
      gradientUnits="userSpaceOnUse"
    >
      <stop stop-color="#00ADEF"></stop>
      <stop offset="1" stop-color="#8AC640"></stop>
    </linearGradient>
    <linearGradient
      id="paint6_linear_86_3575"
      x1="30.1982"
      y1="6.97509"
      x2="30.1852"
      y2="7.15481"
      gradientUnits="userSpaceOnUse"
    >
      <stop stop-color="#00ADEF"></stop>
      <stop offset="1" stop-color="#8AC640"></stop>
    </linearGradient>
    <linearGradient
      id="paint7_linear_86_3575"
      x1="16.0409"
      y1="9.10301"
      x2="3.03599"
      y2="12.1237"
      gradientUnits="userSpaceOnUse"
    >
      <stop stop-color="#00ADEF"></stop>
      <stop offset="1" stop-color="#8AC640"></stop>
    </linearGradient>
    <linearGradient
      id="paint8_linear_86_3575"
      x1="30.9081"
      y1="9.13794"
      x2="17.9455"
      y2="12.1771"
      gradientUnits="userSpaceOnUse"
    >
      <stop stop-color="#00ADEF"></stop>
      <stop offset="1" stop-color="#8AC640"></stop>
    </linearGradient>
    <linearGradient
      id="paint9_linear_86_3575"
      x1="1.11328"
      y1="14.1093"
      x2="0.856937"
      y2="14.1276"
      gradientUnits="userSpaceOnUse"
    >
      <stop stop-color="#00ADEF"></stop>
      <stop offset="1" stop-color="#8AC640"></stop>
    </linearGradient>
    <linearGradient
      id="paint10_linear_86_3575"
      x1="33.3149"
      y1="14.1092"
      x2="33.0362"
      y2="14.1294"
      gradientUnits="userSpaceOnUse"
    >
      <stop stop-color="#00ADEF"></stop>
      <stop offset="1" stop-color="#8AC640"></stop>
    </linearGradient>
    <linearGradient
      id="paint11_linear_86_3575"
      x1="16.0415"
      y1="17.9386"
      x2="16.0284"
      y2="17.9386"
      gradientUnits="userSpaceOnUse"
    >
      <stop stop-color="#00ADEF"></stop>
      <stop offset="1" stop-color="#8AC640"></stop>
    </linearGradient>
    <linearGradient
      id="paint12_linear_86_3575"
      x1="18.1694"
      y1="17.9386"
      x2="18.1563"
      y2="17.9386"
      gradientUnits="userSpaceOnUse"
    >
      <stop stop-color="#00ADEF"></stop>
      <stop offset="1" stop-color="#8AC640"></stop>
    </linearGradient>
  </defs>
</svg>