<svg
  width="32"
  height="33"
  viewBox="0 0 32 33"
  fill="none"
  xmlns="http://www.w3.org/2000/svg"
  style="width: 32px; height: 32px;"
  preserveAspectRatio="xMidYMid meet"
>
  <path
    d="M21.7488 16.675C22.6903 16.6797 23.5859 17.083 24.2133 17.7849C24.2686 17.8451 24.323 17.9081 24.3745 17.9726V17.9729C24.4812 18.1127 24.6427 18.2005 24.8183 18.2137C24.9936 18.2268 25.1665 18.1641 25.2927 18.0416C25.5643 17.7734 25.5916 17.3439 25.356 17.0435C25.2848 16.9547 25.2101 16.8679 25.1337 16.7848C24.2719 15.8208 23.042 15.267 21.7488 15.2603C19.2706 15.2603 17.2264 17.3175 16.9854 19.9436H15.3658C15.0347 19.9714 14.7803 20.2482 14.7803 20.5802C14.7803 20.9123 15.0347 21.1891 15.3658 21.2169H16.9614V22.4597H15.3658C15.0347 22.4872 14.7803 22.764 14.7803 23.0961C14.7803 23.4284 15.0347 23.7052 15.3658 23.7327H16.9854C17.2265 26.3584 19.2706 28.416 21.7488 28.416C23.1601 28.4026 24.4882 27.7461 25.356 26.6328C25.5916 26.3324 25.5645 25.9031 25.2927 25.635C25.1665 25.5122 24.9939 25.4497 24.8183 25.4626C24.6429 25.4758 24.4814 25.5636 24.3748 25.7035C23.7431 26.514 22.7761 26.9917 21.7488 27.0013C19.9891 27.0013 18.5307 25.5765 18.2964 23.7327H22.3482C22.6793 23.7052 22.9338 23.4284 22.9338 23.0961C22.9338 22.764 22.6793 22.4872 22.3482 22.4597H18.2626V21.2169H22.3482C22.6793 21.1891 22.9338 20.9123 22.9338 20.5802C22.9338 20.2479 22.6793 19.9714 22.3482 19.9436H18.2964C18.5308 18.0998 19.9891 16.675 21.7488 16.675Z"
    fill="url(#paint0_linear_208_2854)"
  ></path>
  <path
    d="M21.3345 11.1712C18.5056 11.1712 15.7923 12.295 13.7922 14.2955C11.7917 16.2958 10.668 19.0091 10.668 21.8378C10.668 24.6665 11.7917 27.38 13.7922 29.3801C15.7925 31.3806 18.5058 32.5043 21.3345 32.5043C24.1633 32.5043 26.8767 31.3806 28.8768 29.3801C30.8773 27.3798 32.0011 24.6665 32.0011 21.8378C31.9979 19.0096 30.8731 16.2986 28.8733 14.2987C26.8736 12.2989 24.1625 11.1741 21.3342 11.1709L21.3345 11.1712ZM21.3345 30.6964C18.9851 30.6964 16.7318 29.7632 15.0704 28.102C13.4091 26.4405 12.4756 24.1873 12.4756 21.8378C12.4756 19.4883 13.4091 17.2351 15.0704 15.5736C16.7318 13.9124 18.9851 12.9788 21.3345 12.9788C23.684 12.9788 25.9372 13.9124 27.5987 15.5736C29.2599 17.2351 30.1932 19.4883 30.1932 21.8378C30.1907 24.1865 29.2564 26.4383 27.5957 28.099C25.935 29.7597 23.6832 30.694 21.3345 30.6964Z"
    fill="url(#paint1_linear_208_2854)"
  ></path>
  <path
    d="M1.76855 27.4384V22.7813C3.53517 23.9308 6.4484 24.6799 9.67147 25.0147C9.50927 24.4205 9.3932 23.8146 9.324 23.2027C4.60891 22.6355 1.76838 21.2059 1.76838 20.1506V15.4921C3.58713 16.6761 6.61985 17.4368 9.95575 17.7562C10.1668 17.1692 10.4233 16.5992 10.7226 16.0518C5.17692 15.6223 1.76826 14.0166 1.76826 12.8594V8.20461C4.23799 9.81199 8.94546 10.6414 13.6134 10.6414C14.8237 10.6414 16.0358 10.5843 17.2117 10.4737H17.2119C18.5329 9.99332 19.928 9.74827 21.3337 9.74954C21.4099 9.74954 21.4848 9.754 21.5604 9.75524C22.9345 9.44993 24.2507 8.92635 25.459 8.20463V10.475C26.0694 10.698 26.6607 10.9703 27.2269 11.2887V5.57191C27.2251 2.24521 20.3773 0.504883 13.6134 0.504883C6.84894 0.504883 0.00190478 2.24521 0 5.57191V27.4381C0 30.7646 6.84831 32.5049 13.6134 32.5049C14.2635 32.5049 14.914 32.4885 15.5596 32.4565H15.5594C14.6916 31.9821 13.8848 31.4032 13.1571 30.733C6.19002 30.6529 1.76777 28.7546 1.76777 27.4381L1.76855 27.4384ZM13.6144 2.27244C20.8455 2.27244 25.4595 4.22706 25.4595 5.57278C25.4595 6.91851 20.8449 8.87312 13.6144 8.87312C6.38319 8.87312 1.76855 6.91851 1.76855 5.57278C1.76855 4.22706 6.38319 2.27244 13.6144 2.27244Z"
    fill="url(#paint2_linear_208_2854)"
  ></path>
  <defs>
    <linearGradient
      id="paint0_linear_208_2854"
      x1="25.5161"
      y1="28.416"
      x2="14.0422"
      y2="27.7373"
      gradientUnits="userSpaceOnUse"
    >
      <stop stop-color="#00ADEF"></stop>
      <stop offset="1" stop-color="#8AC640"></stop>
    </linearGradient>
    <linearGradient
      id="paint1_linear_208_2854"
      x1="32.0011"
      y1="32.5043"
      x2="9.24121"
      y2="30.8546"
      gradientUnits="userSpaceOnUse"
    >
      <stop stop-color="#00ADEF"></stop>
      <stop offset="1" stop-color="#8AC640"></stop>
    </linearGradient>
    <linearGradient
      id="paint2_linear_208_2854"
      x1="27.2269"
      y1="32.5049"
      x2="-1.8629"
      y2="30.7108"
      gradientUnits="userSpaceOnUse"
    >
      <stop stop-color="#00ADEF"></stop>
      <stop offset="1" stop-color="#8AC640"></stop>
    </linearGradient>
  </defs>
</svg>