<svg
  width="28"
  height="32"
  viewBox="0 0 28 32"
  fill="none"
  xmlns="http://www.w3.org/2000/svg"
  preserveAspectRatio="xMidYMid meet"
>
  <path
    d="M24.573 25.6493C24.611 25.6493 24.6481 25.6446 24.6854 25.6347C24.6977 25.6315 24.7088 25.6249 24.7204 25.6209C24.7446 25.6118 24.7685 25.6045 24.7909 25.5914L27.5369 24.0069C27.6735 23.9278 27.7571 23.7814 27.7556 23.6239L27.7231 20.461C27.7231 20.4602 27.7239 20.4595 27.7239 20.4587C27.7239 20.4579 27.7231 20.4564 27.7231 20.4554C27.7231 20.4521 27.7224 20.4499 27.7224 20.4471C27.7208 20.4113 27.7168 20.3766 27.7077 20.3423C27.7037 20.3292 27.6962 20.3174 27.6914 20.3043C27.6831 20.2816 27.675 20.2594 27.6637 20.2393C27.6553 20.2246 27.6427 20.2123 27.6327 20.1987C27.6203 20.1823 27.6092 20.1647 27.5946 20.1498C27.5891 20.1443 27.5823 20.1407 27.576 20.136C27.5533 20.1158 27.5304 20.0954 27.5037 20.08L26.033 19.2398C26.3167 18.1801 26.4681 17.0854 26.4681 15.9783C26.4681 14.8123 26.2998 13.6627 25.9859 12.5518L27.5372 11.6549C27.6737 11.5768 27.7574 11.4301 27.7559 11.2727L27.7234 8.11047C27.7234 8.10971 27.7241 8.10896 27.7241 8.1082C27.7241 8.10744 27.7234 8.10593 27.7234 8.10492L27.7231 8.10467C27.7231 8.09837 27.7208 8.09308 27.7208 8.08678C27.7193 8.05504 27.7161 8.02254 27.7077 7.99231C27.703 7.97517 27.6939 7.96056 27.6868 7.94418C27.6798 7.92554 27.6737 7.90614 27.6634 7.88901C27.6543 7.87263 27.6407 7.85953 27.6301 7.84491C27.6186 7.82955 27.6082 7.81317 27.5944 7.79931C27.5888 7.79377 27.582 7.791 27.5757 7.78546C27.553 7.7653 27.5301 7.74565 27.5034 7.73028L24.7753 6.1712C24.6402 6.09386 24.4752 6.09461 24.3402 6.17196L22.7639 7.08198C21.1918 5.51536 19.2535 4.40126 17.1185 3.83761L17.0999 1.99789C17.0999 1.99638 17.1006 1.99563 17.1006 1.99462C17.1006 1.99386 17.0999 1.99311 17.0999 1.99235V1.9921C17.0999 1.9858 17.0976 1.97975 17.0976 1.97346C17.0961 1.94171 17.0928 1.90996 17.0845 1.87973C17.0797 1.8626 17.0706 1.84723 17.0636 1.83085C17.0565 1.81221 17.0505 1.79281 17.0402 1.77568C17.0311 1.76031 17.0175 1.74721 17.0069 1.73234C16.9953 1.71697 16.985 1.69984 16.9711 1.68674C16.9656 1.6812 16.9588 1.67767 16.9525 1.67288C16.9298 1.65273 16.9069 1.63232 16.8802 1.6172L14.1531 0.057352C14.019 -0.0197439 13.853 -0.0187377 13.718 0.0581079L10.9729 1.64311C10.9722 1.64361 10.9714 1.64437 10.9707 1.64513H10.9699C10.9651 1.6484 10.9616 1.65319 10.9561 1.65596C10.9291 1.67385 10.9024 1.69249 10.8802 1.71592C10.8722 1.72399 10.8671 1.73306 10.8601 1.74137C10.8429 1.76228 10.825 1.78269 10.8119 1.80562C10.8049 1.81796 10.8011 1.83258 10.7948 1.84694C10.7857 1.86785 10.7747 1.88826 10.7694 1.91043C10.7661 1.92202 10.7661 1.93462 10.7646 1.94696C10.7598 1.97191 10.7548 1.9966 10.7548 2.02205V2.02532V2.02608L10.7726 3.81541C8.59502 4.37424 6.62128 5.50149 5.02364 7.09984L3.39858 6.17118C3.26353 6.09383 3.09851 6.09459 2.96346 6.17194L0.218442 7.75643C0.217686 7.75718 0.21693 7.75794 0.216174 7.75794L0.215418 7.75869C0.200049 7.76701 0.188459 7.7796 0.174853 7.79044C0.157721 7.80278 0.139832 7.81387 0.125975 7.82848C0.109598 7.84385 0.098261 7.8635 0.0846562 7.88139C0.0763416 7.89374 0.0645003 7.90558 0.0569417 7.91868C0.0453518 7.93959 0.0375408 7.96277 0.0292262 7.98621C0.0244392 7.99855 0.0176372 8.01039 0.0146141 8.02349C0.00907115 8.04441 0.00831461 8.06759 0.00629875 8.09026C0.00478702 8.10563 0 8.1205 0 8.13587V8.13813V8.13965L0.0317467 11.3079C0.0332583 11.4631 0.117156 11.6057 0.251192 11.6831L1.81104 12.5744C1.50114 13.6775 1.33838 14.8211 1.33838 15.9783C1.33838 17.077 1.48729 18.1621 1.76695 19.2141L0.218968 20.1072C0.218212 20.108 0.217456 20.1087 0.216701 20.1087L0.215945 20.1095C0.200576 20.1178 0.188986 20.1304 0.175381 20.1413C0.158248 20.1536 0.140359 20.1647 0.126502 20.1793C0.110126 20.1947 0.0987875 20.2143 0.0851827 20.2322C0.0768681 20.2445 0.0650269 20.2564 0.0574682 20.2695C0.0458783 20.2904 0.0380683 20.3136 0.0297537 20.337C0.0249666 20.3494 0.0181637 20.3612 0.0151406 20.3743C0.00959775 20.3952 0.00884213 20.4184 0.00682627 20.4411C0.0053146 20.4564 0.00052752 20.4713 0.00052752 20.4867V20.4889V20.4905L0.0322732 23.6587C0.0337849 23.8139 0.117683 23.9565 0.252479 24.0339L2.97957 25.5922C3.04634 25.631 3.12116 25.6496 3.196 25.6496C3.23404 25.6496 3.27184 25.6448 3.30912 25.635C3.31542 25.6335 3.32147 25.6295 3.32777 25.6269C3.358 25.6179 3.38647 25.6075 3.41469 25.5912L4.90146 24.733C6.51775 26.3956 8.53257 27.5667 10.7684 28.1401L10.787 30.0091C10.7885 30.1643 10.8724 30.3069 11.0072 30.3843L13.7343 31.9426C13.8018 31.9814 13.8759 32 13.9515 32C13.9895 32 14.0266 31.9952 14.0639 31.9854C14.0762 31.9821 14.0873 31.9756 14.0989 31.9715C14.1231 31.9625 14.147 31.9552 14.1694 31.9421L16.9154 30.3576C17.052 30.2784 17.1356 30.1321 17.1341 29.9746L17.1147 28.1202C19.311 27.542 21.2916 26.3861 22.8871 24.7527L24.357 25.5922C24.4233 25.6308 24.4981 25.6494 24.5729 25.6494L24.573 25.6493ZM26.8796 23.377L25.0021 24.4607L24.989 23.1203L24.9807 22.2954L26.8582 21.2111L26.8796 23.377ZM26.4105 20.4617L24.5398 21.5418L22.6902 20.4844L24.5601 19.4043L26.4105 20.4617ZM21.7303 20.0299L19.2463 18.5965L19.1949 13.4351L21.9308 11.8554L24.3563 13.2432C24.4238 13.2812 24.4979 13.3006 24.5735 13.3006C24.6115 13.3006 24.6486 13.2951 24.6859 13.286C24.699 13.282 24.7108 13.2752 24.7232 13.2706C24.7466 13.2623 24.7695 13.2553 24.7914 13.2422L24.7947 13.2406L25.2039 13.0041C25.4584 13.9718 25.5944 14.9685 25.5944 15.9793C25.5944 16.9327 25.4735 17.8755 25.2472 18.7918L24.7756 18.5227C24.6415 18.4462 24.4755 18.4469 24.3405 18.5235L21.7303 20.0299ZM26.8797 11.0271L25.0021 12.1115L24.989 10.767L24.9807 9.94467L25.7436 9.50452L26.8585 8.86104L26.8797 11.0271ZM24.5599 7.05311L26.4095 8.11057L24.5396 9.19068L22.69 8.13321L24.5599 7.05311ZM24.1074 9.9488L24.1173 10.9574L24.1289 12.1065L22.2793 11.049L22.2574 8.89211L24.1074 9.9488ZM16.9145 5.54247C17.051 5.46336 17.1347 5.31773 17.1332 5.16027L17.1284 4.7448C18.948 5.26583 20.6053 6.21945 21.9792 7.53465L21.5955 7.75662C21.5947 7.75737 21.594 7.75813 21.5932 7.75888H21.5924C21.5877 7.76216 21.5841 7.76695 21.5786 7.76972C21.5516 7.78761 21.5249 7.80625 21.5027 7.82918C21.4947 7.83724 21.4896 7.84631 21.4826 7.85462C21.4655 7.87554 21.4476 7.89594 21.4345 7.91887C21.4274 7.93122 21.4236 7.94583 21.4173 7.96019C21.4083 7.9811 21.3972 8.00151 21.3919 8.02368C21.3886 8.03527 21.3886 8.04787 21.3871 8.06021C21.3823 8.08516 21.3773 8.10985 21.3773 8.1353V8.13857V8.13933L21.4075 11.1496L18.7517 12.683L14.3149 10.1471V7.04413L16.9145 5.54247ZM10.8972 13.8506L9.8181 13.2333L13.8662 10.8967L17.8788 13.1904L13.8317 15.5275L10.8972 13.8506ZM13.4454 20.9565L9.4331 18.6628L9.38674 13.9926L13.3993 16.2864L13.4454 20.9565ZM18.3272 13.9416L18.3736 18.62L14.319 20.9611L14.3018 19.2532L14.2716 16.282L18.3272 13.9416ZM16.2572 4.91425L14.3797 5.99861L14.3666 4.65574L14.3583 3.83189L15.1212 3.39174L16.236 2.74825L16.2572 4.91425ZM13.9377 0.940781L15.7873 1.99895L13.9173 3.07803L12.1892 2.09041L12.0673 2.02063L13.9377 0.940781ZM12.5331 3.29171L13.485 3.83668L13.4948 4.84299L13.5064 5.99314L11.6568 4.93568L11.6349 2.77876L12.5331 3.29171ZM10.7818 4.7165L10.7866 5.1947C10.7881 5.3499 10.872 5.49251 11.0068 5.56985L13.4412 6.96213V10.1342L9.01639 12.6895L6.37773 11.1662L6.34573 8.10525C6.34573 8.08182 6.34019 8.05965 6.33666 8.03697C6.33439 8.02236 6.33439 8.0075 6.33036 7.99364C6.32406 7.97021 6.31248 7.94955 6.30265 7.92763C6.29711 7.91528 6.29358 7.90143 6.28627 7.88959C6.27645 7.8717 6.26209 7.85784 6.24974 7.84247C6.23891 7.82786 6.22958 7.81299 6.21724 7.79989C6.21169 7.79435 6.20489 7.79158 6.19859 7.78603C6.17592 7.76588 6.15299 7.74623 6.12628 7.73086L5.81084 7.55021C7.21422 6.20101 8.91362 5.23301 10.7818 4.7165ZM8.55862 18.569L6.03232 20.0273L3.39869 18.5226C3.26364 18.446 3.09862 18.4468 2.96357 18.5234L2.55113 18.7615C2.32916 17.8545 2.211 16.9225 2.211 15.9792C2.211 14.9754 2.34605 13.9847 2.59648 13.0241L2.97945 13.2435C3.04622 13.2816 3.12104 13.301 3.19587 13.301C3.23392 13.301 3.27171 13.2954 3.309 13.2863C3.32135 13.2823 3.33394 13.2755 3.34629 13.271C3.36972 13.2627 3.39265 13.2556 3.41457 13.2425L3.41683 13.241L5.81943 11.8543L8.50775 13.4055L8.55862 18.569ZM5.50245 11.0277L3.62495 12.1121L3.62092 11.737L3.60303 9.94536L5.48054 8.86171L5.50245 11.0277ZM3.18326 7.05376L5.03284 8.11122L3.16288 9.19132L1.69907 8.35509L1.31283 8.13413L3.18326 7.05376ZM0.902631 11.0497L0.880712 8.89276L2.73029 9.94945L2.74339 11.3117L2.75145 12.1071L0.902631 11.0497ZM0.902631 23.4006L0.880712 21.2437L2.73029 22.3004L2.74339 23.6554L2.75145 24.4571L0.902631 23.4006ZM3.16288 21.5423L1.69907 20.706L1.31283 20.4851L3.18279 19.405L5.03237 20.4624L3.16288 21.5423ZM3.62495 24.4622L3.62092 24.0691L3.60304 22.2969L5.48054 21.2125L5.50246 23.3785L3.62495 24.4622ZM10.9733 26.4589C10.9726 26.4596 10.9718 26.4604 10.9711 26.4611H10.9703C10.9655 26.4644 10.962 26.4692 10.9565 26.472C10.9295 26.4898 10.9028 26.5085 10.8806 26.5314C10.8726 26.5395 10.8675 26.5485 10.8605 26.5569C10.8433 26.5778 10.8255 26.5982 10.8123 26.6211C10.8053 26.6335 10.8015 26.6481 10.7952 26.6624C10.7861 26.6833 10.7751 26.7037 10.7698 26.7259C10.7665 26.7375 10.7665 26.7501 10.765 26.7625C10.7602 26.7874 10.7552 26.8121 10.7552 26.8375V26.8408V26.8416L10.7592 27.2354C8.8406 26.7012 7.10467 25.6916 5.68291 24.2828L6.16035 24.0077C6.29691 23.9285 6.38056 23.7822 6.37829 23.6247L6.35057 20.8527L8.91416 19.3725L13.4414 21.9606V25.0351L10.9733 26.4589ZM11.6569 29.7513L11.635 27.5944L13.4846 28.6511L13.4944 29.6652L13.506 30.8081L11.6569 29.7513ZM13.9177 27.893L12.0681 26.8355L13.9381 25.7554L15.7884 26.8129L13.9177 27.893ZM14.3797 30.8129L14.3666 29.4725L14.3583 28.6476L16.2358 27.5633L16.2578 29.7293L14.3797 30.8129ZM17.1054 27.2188L17.1006 26.8126C17.1006 26.8119 17.1013 26.8111 17.1013 26.8104C17.1013 26.8096 17.1006 26.8081 17.1006 26.8071C17.1006 26.8038 17.0998 26.8016 17.0998 26.7988C17.0983 26.763 17.0943 26.7282 17.0852 26.694C17.0812 26.6809 17.0736 26.669 17.0688 26.6559C17.0605 26.6332 17.0524 26.6111 17.0411 26.5909C17.0328 26.5763 17.0202 26.564 17.0101 26.5504C16.9978 26.534 16.9867 26.5163 16.9721 26.5015C16.9665 26.4959 16.9597 26.4924 16.9534 26.4876C16.9308 26.4675 16.9078 26.4471 16.8811 26.4317L14.3142 24.9651V21.9727L18.8292 19.3657L21.3807 20.8379L21.4084 23.6594C21.4099 23.8146 21.4938 23.9573 21.6286 24.0346L22.1005 24.3044C20.6979 25.6884 18.9899 26.6849 17.1054 27.2188ZM22.2792 23.4008L22.2572 21.2438L24.1068 22.3005L24.1166 23.3146L24.1282 24.4575L22.2792 23.4008Z"
    fill="url(#paint0_linear_86_3555)"
  ></path>
  <defs>
    <linearGradient
      id="paint0_linear_86_3555"
      x1="27.7559"
      y1="32"
      x2="-1.89469"
      y2="30.1358"
      gradientUnits="userSpaceOnUse"
    >
      <stop stop-color="#00ADEF"></stop>
      <stop offset="1" stop-color="#8AC640"></stop>
    </linearGradient>
  </defs>
</svg>