<svg
  width="32"
  height="33"
  viewBox="0 0 32 33"
  fill="none"
  xmlns="http://www.w3.org/2000/svg"
  preserveAspectRatio="xMidYMid meet"
>
  <path
    d="M28.5586 20.7885C27.6506 20.7885 26.8332 21.1833 26.2681 21.81L18.8637 17.2127C19.0899 16.7503 19.2181 16.2305 19.2181 15.6821C19.2181 15.2821 19.1496 14.8982 19.0249 14.5398L25.0768 11.8757C25.6413 12.5811 26.5095 13.0339 27.4813 13.0339C29.1817 13.0339 30.5641 11.6509 30.5641 9.95085C30.5641 8.25107 29.1819 6.86804 27.4813 6.86804C25.7815 6.86804 24.3985 8.25107 24.3985 9.95085C24.3985 10.2081 24.4307 10.4581 24.4907 10.6968L18.362 13.3944C17.8572 12.8138 17.1647 12.3996 16.3795 12.2495L16.3798 6.59927C17.7644 6.29696 18.8056 5.06181 18.8056 3.58798C18.8056 1.88791 17.4218 0.504883 15.7227 0.504883C14.0227 0.504883 12.6396 1.88791 12.6396 3.58798C12.6396 5.06188 13.68 6.29697 15.0646 6.59927V12.2497C14.5577 12.3466 14.0892 12.5537 13.6852 12.8445L6.06703 6.39082C6.35651 5.92153 6.5243 5.36903 6.5243 4.77778C6.5243 3.078 5.14128 1.69497 3.44149 1.69497C1.74143 1.69497 0.358398 3.078 0.358398 4.77778C0.358398 6.47785 1.74143 7.86088 3.44149 7.86088C4.07366 7.86088 4.66297 7.66853 5.15273 7.3403L12.7786 13.8005C12.5164 14.2095 12.3366 14.6755 12.2637 15.1759L7.18728 16.6323C6.66343 15.6749 5.64682 15.0243 4.48073 15.0243C2.78095 15.0243 1.39792 16.4073 1.39792 18.1073C1.39792 19.8071 2.78095 21.1902 4.48073 21.1902C6.18051 21.1902 7.56382 19.8071 7.56382 18.1073C7.56382 18.0356 7.55973 17.9655 7.55537 17.8956L12.33 16.5257C12.5605 17.452 13.1619 18.2326 13.9659 18.7019L11.7824 26.3431C11.7385 26.3406 11.694 26.339 11.6493 26.339C9.94948 26.339 8.56701 27.722 8.56701 29.4221C8.56701 31.1221 9.94976 32.5049 11.6493 32.5049C13.3493 32.5049 14.7321 31.1221 14.7321 29.4221C14.7321 28.2281 14.0497 27.1913 13.0546 26.6792L15.2093 19.1393C15.3771 19.1638 15.5484 19.1772 15.723 19.1772C16.6259 19.1772 17.4503 18.8329 18.0711 18.2684L25.6159 22.9527C25.525 23.2427 25.4764 23.5516 25.4764 23.8713C25.4764 25.5711 26.8586 26.9536 28.5593 26.9536C30.259 26.9536 31.6421 25.5708 31.6421 23.8713C31.6415 22.1712 30.2583 20.7885 28.559 20.7885L28.5586 20.7885ZM27.4811 8.18332C28.4563 8.18332 29.2486 8.97621 29.2486 9.95078C29.2486 10.9253 28.4563 11.7185 27.4811 11.7185C26.5068 11.7185 25.7137 10.9254 25.7137 9.95078C25.7139 8.97593 26.5071 8.18332 27.4811 8.18332ZM3.44207 6.54521C2.4675 6.54521 1.67433 5.75231 1.67433 4.77774C1.67433 3.80317 2.46743 3.01028 3.44207 3.01028C4.41636 3.01028 5.20954 3.80317 5.20954 4.77774C5.20926 5.75259 4.41615 6.54521 3.44207 6.54521ZM13.4168 29.422C13.4168 30.3966 12.6239 31.1898 11.6491 31.1898C10.6745 31.1898 9.88164 30.3967 9.88164 29.422C9.88164 28.4474 10.6745 27.6546 11.6491 27.6546C12.6242 27.6546 13.4168 28.4475 13.4168 29.422Z"
    fill="url(#paint0_linear_208_2802)"
  ></path>
  <defs>
    <linearGradient
      id="paint0_linear_208_2802"
      x1="31.6421"
      y1="32.5049"
      x2="-1.74157"
      y2="30.1392"
      gradientUnits="userSpaceOnUse"
    >
      <stop stop-color="#00ADEF"></stop>
      <stop offset="1" stop-color="#8AC640"></stop>
    </linearGradient>
  </defs>
</svg>