<svg
  width="33"
  height="33"
  viewBox="0 0 33 33"
  fill="none"
  xmlns="http://www.w3.org/2000/svg"
  preserveAspectRatio="xMidYMid meet"
>
  <path
    d="M29.1728 15.266C29.008 14.5543 28.3688 14.0469 27.6374 14.0534H22.3656L25.5748 10.8442L26.3656 11.635L32.013 5.98757L31.2684 5.24295L28.4677 8.03701L22.8862 2.45545L24.0921 1.2495L23.3475 0.504883L19.2882 4.56418L19.8154 5.09136L18.9126 5.99413C18.8138 6.09298 18.682 6.1457 18.537 6.1457H16.6853C15.9868 6.1457 15.3146 6.42247 14.8204 6.91671L12.369 9.3747C11.8747 9.86893 11.598 10.5411 11.598 11.2396V11.4175H11.0708C10.2009 11.4175 9.48924 12.1292 9.48924 12.9991V14.0534H3.99336C3.26187 14.0534 2.62269 14.5542 2.45797 15.2659L0.0461284 25.4077C0.0197693 25.5263 0 25.6515 0 25.7767V27.7603C0 28.4324 0.421745 29.0255 1.05436 29.2496V32.5049H2.10872V29.3418H29.5221V32.5049H30.5765V29.2496C31.2091 29.0255 31.6309 28.4258 31.6309 27.7603V25.7767C31.6309 25.6515 31.6177 25.5329 31.5847 25.4077L29.1728 15.266ZM22.1417 3.19983L27.7232 8.78139L26.3591 10.1455L20.7776 4.56394L22.1417 3.19983ZM12.6524 11.2395C12.6524 10.8178 12.8172 10.4158 13.1137 10.1192L15.5717 7.66123C15.8682 7.36469 16.2702 7.19995 16.692 7.19995H18.5437C18.9654 7.19995 19.3674 7.03521 19.6639 6.73867L20.5601 5.8359L24.8237 10.0995L19.6639 15.2593C19.2883 15.6349 18.6755 15.6349 18.2998 15.2593C17.9242 14.8837 17.9242 14.2709 18.2998 13.8952L19.2883 12.9067C20.112 12.083 20.112 10.7453 19.2883 9.92158C18.8929 9.52619 18.3591 9.30216 17.799 9.30216H17.5288C16.9687 9.30216 16.4349 9.52621 16.0395 9.92158L14.5436 11.4174H12.6523L12.6524 11.2395ZM16.0329 11.4174L16.7776 10.6728C16.9752 10.4751 17.2454 10.3631 17.5222 10.3631H17.7924C18.2207 10.3565 18.6095 10.6135 18.7677 11.0155C18.8204 11.1407 18.8468 11.279 18.8533 11.4174L16.0329 11.4174ZM10.5437 12.999C10.5437 12.709 10.7809 12.4718 11.0709 12.4718H18.2339L17.5551 13.1505C16.7644 13.9413 16.7644 15.2131 17.5551 16.0039C18.3459 16.7947 19.6177 16.7947 20.4085 16.0039L21.0872 15.3251V20.3795H10.5436L10.5437 12.999ZM3.48608 15.5097C3.5388 15.2724 3.75627 15.1011 4.00008 15.1077H9.48933V20.3795H7.90779V21.4339H23.7232V20.3795H22.1417V15.1077H27.6376C27.8814 15.1077 28.0923 15.2724 28.1516 15.5097L30.4382 25.1242H1.1926L3.48608 15.5097ZM30.5766 27.7602C30.5766 28.0501 30.3393 28.2873 30.0494 28.2873H1.58161C1.29166 28.2873 1.05442 28.0501 1.05442 27.7602V26.1786H30.5766V27.7602Z"
    fill="url(#paint0_linear_208_2836)"
  ></path>
  <defs>
    <linearGradient
      id="paint0_linear_208_2836"
      x1="32.013"
      y1="32.5049"
      x2="-2.14087"
      y2="30.0282"
      gradientUnits="userSpaceOnUse"
    >
      <stop stop-color="#00ADEF"></stop>
      <stop offset="1" stop-color="#8AC640"></stop>
    </linearGradient>
  </defs>
</svg>