<svg width="22" height="24" viewBox="0 0 22 24" fill="none" xmlns="http://www.w3.org/2000/svg">
<path d="M1.04883 7.29601V16.704C1.04883 17.3088 1.36563 17.856 1.89363 18.1632L10.044 22.8672C10.5624 23.1648 11.2056 23.1648 11.724 22.8672L19.8744 18.1632C20.3928 17.8656 20.7192 17.3088 20.7192 16.704V7.29601C20.7192 6.69121 20.4024 6.14401 19.8744 5.83681L11.724 1.13281C11.2056 0.835207 10.5624 0.835207 10.044 1.13281L1.89363 5.83681C1.37523 6.13441 1.05843 6.69121 1.05843 7.29601H1.04883Z" fill="#213147"/>
<path d="M12.6549 13.824L11.4933 17.0112C11.4645 17.0976 11.4645 17.1936 11.4933 17.2896L13.4901 22.7712L15.8037 21.4368L13.0293 13.824C12.9621 13.6512 12.7221 13.6512 12.6549 13.824Z" fill="#12AAFF"/>
<path d="M14.9878 8.4672C14.9206 8.2944 14.6806 8.2944 14.6134 8.4672L13.4518 11.6544C13.423 11.7408 13.423 11.8368 13.4518 11.9328L16.7254 20.9088L19.039 19.5744L14.9878 8.4768V8.4672Z" fill="#12AAFF"/>
<path d="M10.879 1.488C10.9366 1.488 10.9942 1.5072 11.0422 1.536L19.855 6.624C19.9606 6.6816 20.0182 6.7968 20.0182 6.912V17.088C20.0182 17.2032 19.951 17.3184 19.855 17.376L11.0422 22.464C10.9942 22.4928 10.9366 22.512 10.879 22.512C10.8214 22.512 10.7638 22.4928 10.7158 22.464L1.90299 17.376C1.79739 17.3184 1.73979 17.2032 1.73979 17.088V6.9024C1.73979 6.7872 1.80699 6.672 1.90299 6.6144L10.7158 1.5264C10.7638 1.4976 10.8214 1.4784 10.879 1.4784V1.488ZM10.879 0C10.5622 0 10.255 0.0768 9.96699 0.24L1.15419 5.328C0.587787 5.6544 0.242188 6.2496 0.242188 6.9024V17.0784C0.242188 17.7312 0.587787 18.3264 1.15419 18.6528L9.96699 23.7408C10.2454 23.904 10.5622 23.9808 10.879 23.9808C11.1958 23.9808 11.503 23.904 11.791 23.7408L20.6038 18.6528C21.1702 18.3264 21.5158 17.7312 21.5158 17.0784V6.9024C21.5158 6.2496 21.1702 5.6544 20.6038 5.328L11.7814 0.24C11.503 0.0768 11.1862 0 10.8694 0H10.879Z" fill="#9DCCED"/>
<path d="M5.04199 20.9184L5.85799 18.6912L7.48999 20.0448L5.96359 21.4464L5.04199 20.9184Z" fill="#213147"/>
<path d="M10.1301 6.18241H7.89332C7.73012 6.18241 7.57652 6.28801 7.51892 6.44161L2.72852 19.5744L5.04212 20.9088L10.3221 6.44161C10.3701 6.30721 10.2741 6.17281 10.1397 6.17281L10.1301 6.18241Z" fill="white"/>
<path d="M14.0471 6.18241H11.8103C11.6471 6.18241 11.4935 6.28801 11.4359 6.44161L5.96387 21.4368L8.27747 22.7712L14.2295 6.44161C14.2775 6.30721 14.1815 6.17281 14.0471 6.17281V6.18241Z" fill="white"/>
</svg>
