<svg width="10" height="18" viewBox="0 0 10 18" fill="none" xmlns="http://www.w3.org/2000/svg">
<path d="M7.00109 8.26428L3.48547 7.23564C3.07857 7.11845 2.79536 6.73759 2.79536 6.31441C2.79536 5.78381 3.22505 5.35413 3.75565 5.35413H5.91385C6.31099 5.35413 6.70161 5.47457 7.02713 5.69592C7.2257 5.82939 7.49263 5.79683 7.6619 5.63082L8.79471 4.52405C9.02583 4.29944 8.99328 3.92509 8.73612 3.72652C7.93859 3.10152 6.9425 2.75321 5.92036 2.74996V1.18746C5.92036 0.901001 5.68599 0.666626 5.39953 0.666626H4.35786C4.07141 0.666626 3.83703 0.901001 3.83703 1.18746V2.74996H3.75565C1.68208 2.74996 0.0154156 4.53056 0.207473 6.64319C0.344192 8.14384 1.49003 9.36454 2.93534 9.78772L6.27193 10.7643C6.67883 10.8847 6.96203 11.2623 6.96203 11.6855C6.96203 12.2161 6.53234 12.6458 6.00174 12.6458H3.84354C3.44641 12.6458 3.05578 12.5254 2.73026 12.304C2.53169 12.1705 2.26476 12.2031 2.09549 12.3691L0.962681 13.4759C0.731561 13.7005 0.764114 14.0748 1.02127 14.2734C1.8188 14.8984 2.81489 15.2467 3.83703 15.25V16.8125C3.83703 17.0989 4.07141 17.3333 4.35786 17.3333H5.39953C5.68599 17.3333 5.92036 17.0989 5.92036 16.8125V15.2434C7.43729 15.2142 8.85982 14.3125 9.36112 12.8769C10.061 10.8717 8.88586 8.81441 7.00109 8.26428V8.26428Z" fill="white"/>
</svg>
