<svg width="126" height="81" viewBox="0 0 126 81" fill="none" xmlns="http://www.w3.org/2000/svg">
<g clip-path="url(#clip0_86_1030)">
<g opacity="0.1">
<path d="M122.986 19.0883L121.045 28.4609L119.778 27.2489L117.634 28.7638L115.999 26.7439L112.322 29.39L109.197 24.1988L105.703 26.2187L104.314 24.3402L99.861 26.8045L98.5332 23.9766L101.638 9.06934L118.349 12.4831L122.986 19.0883Z" fill="white"/>
<path d="M118.348 12.4829L122.985 19.0881L117.204 17.9166L118.348 12.4829Z" fill="white"/>
<path d="M120.616 30.3192L117.756 44.0549L95.2646 39.4696L98.1246 25.8551L99.4524 28.683L103.906 26.1985L105.274 28.0972L108.788 26.0773L111.914 31.2484L115.591 28.6224L117.225 30.6222L119.37 29.1072L120.616 30.3192Z" fill="white"/>
</g>
<g opacity="0.1">
<path d="M88.4417 28.7237L65.5417 30.1175L63.7236 1.05037L80.7199 0L86.9709 5.17107L88.4417 28.7237Z" fill="white"/>
<path d="M80.7197 0L86.9707 5.17107L81.067 5.53466L80.7197 0Z" fill="white"/>
<path d="M74.3664 19.5732L74.2847 18.9268C74.06 17.5734 74.4277 16.0383 75.6329 14.4627C76.7156 13.0487 77.2876 12.0388 77.2263 10.8874C77.1446 9.59463 76.2866 8.78665 74.6728 8.84725C73.7535 8.90785 72.7526 9.25124 72.1193 9.77643L71.4043 8.22107C72.2214 7.57468 73.6514 7.08989 75.0201 7.0091C77.9617 6.8475 79.3917 8.56446 79.5143 10.5036C79.6164 12.2206 78.7176 13.5133 77.5532 15.0283C76.4909 16.4019 76.1436 17.5532 76.3071 18.8258L76.3683 19.4924L74.3664 19.5732ZM74.0191 23.1485C73.9578 22.2193 74.5707 21.5123 75.4695 21.4719C76.3683 21.4315 77.022 22.0375 77.0629 22.9869C77.1038 23.8757 76.5726 24.5827 75.6125 24.6433C74.7137 24.6837 74.06 24.0373 74.0191 23.1485Z" fill="url(#paint0_linear_86_1030)"/>
</g>
<g opacity="0.1">
<path d="M17.0867 14.6245L14.7784 13.5944L14.4515 14.2811C14.3494 14.4831 14.1451 14.6245 13.9204 14.6245C13.7978 14.6245 13.6752 14.6447 13.5527 14.6649C13.328 14.7053 13.1033 14.6043 12.9807 14.4225L12.5313 13.7964L10.468 15.2507L10.9174 15.8769C11.04 16.0587 11.0604 16.3011 10.9583 16.5031C10.897 16.6243 10.8562 16.7253 10.7949 16.8465C10.7132 17.0485 10.5293 17.2101 10.3046 17.2303L9.52832 17.3111L9.77346 19.7956L10.5497 19.7148C10.7744 19.6946 10.9991 19.7956 11.1217 19.9976C11.1626 20.0582 11.183 20.0986 11.2239 20.1592C11.2647 20.1996 11.3056 20.2602 11.3464 20.3006C11.4894 20.4824 11.5303 20.7046 11.4281 20.9066L11.1013 21.6136L13.4097 22.6437L13.7365 21.9368C13.8387 21.7348 14.0429 21.5934 14.2677 21.5934C14.3902 21.5934 14.5128 21.5732 14.6354 21.553C14.8601 21.5126 15.0848 21.6136 15.2074 21.7954L15.6568 22.4215L17.72 20.9672L17.2706 20.341C17.148 20.1592 17.1276 19.9168 17.2297 19.7148C17.291 19.6138 17.3319 19.4926 17.3932 19.3714C17.4749 19.1694 17.6587 19.0078 17.8834 18.9876L18.6597 18.9068L18.4146 16.4223L17.6383 16.5031C17.4136 16.5233 17.1889 16.4223 17.0663 16.2203C17.0255 16.1597 17.005 16.1193 16.9642 16.0587C16.9233 16.0183 16.8825 15.9577 16.8416 15.9173C16.6986 15.7355 16.6578 15.5133 16.7599 15.2911L17.0867 14.6245ZM15.7793 16.9273C16.4535 17.8565 16.2288 19.129 15.3095 19.7956C14.3698 20.4622 13.0828 20.24 12.4087 19.331C11.7346 18.4018 11.9593 17.1293 12.8785 16.4627C13.8182 15.7961 15.1052 15.9981 15.7793 16.9273Z" fill="white"/>
<path d="M121.25 47.6709L119.718 48.5395L119.983 49.0041C120.065 49.1455 120.065 49.3071 119.963 49.4485C119.922 49.5293 119.861 49.5898 119.84 49.6706C119.758 49.812 119.615 49.8928 119.472 49.8928H118.921V51.6502H119.472C119.636 51.6502 119.779 51.731 119.84 51.8724C119.881 51.9532 119.922 52.034 119.963 52.0946C120.044 52.236 120.065 52.3976 119.983 52.539L119.718 53.0036L121.25 53.8721L121.515 53.4076C121.597 53.2662 121.74 53.1854 121.903 53.2056C121.944 53.2056 121.985 53.2056 122.026 53.2056C122.067 53.2056 122.108 53.2056 122.149 53.2056C122.312 53.2056 122.455 53.2662 122.537 53.4076L122.802 53.8721L124.334 53.0036L124.069 52.539C123.987 52.3976 123.987 52.236 124.089 52.0946C124.13 52.0138 124.191 51.9532 124.212 51.8724C124.294 51.731 124.436 51.6502 124.579 51.6502H125.131V49.8928H124.579C124.416 49.8928 124.273 49.812 124.212 49.6706C124.171 49.5898 124.13 49.5091 124.089 49.4485C124.008 49.3071 123.987 49.1455 124.069 49.0041L124.334 48.5395L122.802 47.6709L122.537 48.1355C122.455 48.2769 122.312 48.3375 122.149 48.3375C122.108 48.3375 122.067 48.3375 122.026 48.3375C121.985 48.3375 121.944 48.3375 121.903 48.3375C121.74 48.3375 121.597 48.2769 121.515 48.1355L121.25 47.6709ZM122.026 49.3475C122.823 49.3475 123.476 49.9938 123.476 50.7816C123.476 51.5694 122.823 52.2158 122.026 52.2158C121.229 52.2158 120.576 51.5694 120.576 50.7816C120.576 49.9938 121.229 49.3475 122.026 49.3475Z" fill="white"/>
<path d="M21.7441 7.15073L20.3345 8.2213L20.6614 8.64549C20.7635 8.76669 20.7635 8.94848 20.7022 9.08988C20.6614 9.17068 20.6205 9.25147 20.6001 9.33227C20.5388 9.47367 20.4162 9.59486 20.2528 9.61506L19.7217 9.67566L19.9464 11.4128L20.4775 11.3522C20.6409 11.332 20.7839 11.4128 20.8861 11.534C20.9269 11.6148 20.9882 11.6754 21.0495 11.736C21.1517 11.8572 21.1925 12.0188 21.1312 12.1602L20.9269 12.6652L22.5612 13.3318L22.7655 12.8268C22.8268 12.6854 22.9698 12.5844 23.1332 12.5844C23.174 12.5844 23.2149 12.5844 23.2558 12.5642C23.2966 12.5642 23.3375 12.544 23.3783 12.544C23.5417 12.5238 23.6847 12.5642 23.7869 12.7056L24.1137 13.1298L25.5233 12.0592L25.1964 11.635C25.0943 11.5138 25.0943 11.332 25.1556 11.1906C25.1964 11.1098 25.2373 11.029 25.2577 10.9482C25.319 10.8068 25.4416 10.6856 25.605 10.6654L26.1361 10.6048L25.9114 8.86768L25.3803 8.92828C25.2169 8.94848 25.0739 8.86768 24.9717 8.74649C24.9309 8.66569 24.8696 8.60509 24.8083 8.54449C24.7062 8.42329 24.6653 8.2617 24.7266 8.1203L24.9309 7.61531L23.2966 6.94873L23.0923 7.45372C23.031 7.59511 22.888 7.69611 22.7246 7.69611C22.6838 7.69611 22.6429 7.69611 22.6021 7.71631C22.5612 7.71631 22.5203 7.73651 22.4795 7.73651C22.3161 7.75671 22.1526 7.71631 22.0709 7.57491L21.7441 7.15073ZM22.745 8.72629C23.5417 8.62529 24.2772 9.17068 24.3793 9.95846C24.4814 10.7462 23.9299 11.4734 23.1332 11.5744C22.3365 11.6754 21.6011 11.13 21.4989 10.3422C21.3968 9.53427 21.9483 8.82728 22.745 8.72629Z" fill="white"/>
</g>
<g opacity="0.1">
<path d="M11.223 52.7207C11.3047 50.7614 11.2638 48.802 11.1413 46.8629C10.8757 42.8432 10.2016 38.8437 9.28231 34.9048C8.77161 32.703 8.1179 30.5215 7.4642 28.3399C7.44377 28.2793 7.34163 28.2995 7.36206 28.3601C9.42531 36.0157 11.1004 43.9137 10.9983 51.8723C10.9574 54.0943 10.7123 56.296 10.4876 58.4978C10.4876 58.5584 10.5897 58.5786 10.5897 58.518C10.9983 56.6394 11.1413 54.6599 11.223 52.7207Z" fill="white"/>
<path d="M7.3624 28.3804C7.3624 28.3804 4.25731 36.1976 4.95187 38.0357C5.64643 39.8739 7.09683 40.2577 7.09683 40.2577C7.09683 40.2577 5.19701 42.9442 6.52484 45.4692C7.85267 47.9941 10.8148 47.8729 11.019 50.7412C10.9782 50.7412 11.1416 38.7831 7.3624 28.3804Z" fill="white"/>
<path d="M10.6511 45.8125C10.6511 45.7923 10.6511 45.7923 10.6511 45.7721C10.2221 40.4596 9.26202 35.1674 7.62777 30.0569C7.62777 30.0367 7.60734 30.0367 7.60734 30.0569C8.22019 32.3394 8.77175 34.6422 9.24159 36.9449C8.83303 36.5409 8.3019 36.2985 7.75034 36.1167C7.72991 36.1167 7.72991 36.1369 7.75034 36.1369C8.32233 36.3793 8.87389 36.6621 9.28245 37.1469C9.36416 37.5913 9.4663 38.0559 9.54802 38.5003C8.85346 37.7327 7.89333 37.3489 6.91278 36.9853C6.89235 36.9853 6.89235 37.0055 6.91278 37.0055C7.91376 37.4095 8.91474 37.9347 9.6093 38.7831C9.85444 40.0758 10.0587 41.3888 10.2426 42.6816C9.73187 42.1564 9.0986 41.7928 8.38361 41.6312C8.36318 41.6312 8.34275 41.6514 8.36318 41.6716C9.0986 41.8736 9.73187 42.2978 10.2426 42.8634C10.2426 42.8634 10.2426 42.8634 10.263 42.8634C10.3243 43.328 10.3856 43.7926 10.4469 44.2369C10.0587 43.9138 9.62973 43.6512 9.13945 43.4694C9.11902 43.4694 9.11902 43.4896 9.13945 43.4896C9.62973 43.6916 10.0587 43.9946 10.4469 44.3379H10.4673C10.5286 44.7823 10.5694 45.2065 10.6103 45.6509C9.8953 44.8025 9.01688 44.1763 7.97505 43.7926C7.95462 43.7926 7.93419 43.8128 7.95462 43.833C8.97603 44.2773 9.87487 44.9641 10.549 45.8125C10.5694 45.8327 10.5899 45.8327 10.6103 45.8327C10.6716 46.4993 10.7329 47.1861 10.7941 47.8527C10.7941 47.8527 10.8146 47.8729 10.8146 47.8527C10.7533 47.1861 10.7124 46.4993 10.6511 45.8125Z" fill="white"/>
<path d="M8.13885 35.3492C7.60772 34.9856 6.91316 34.824 6.25946 34.7634C6.23903 34.7634 6.23903 34.7836 6.25946 34.7836C6.93359 34.8846 7.48515 35.127 8.11843 35.3896C8.13885 35.3896 8.15928 35.3694 8.13885 35.3492Z" fill="white"/>
<path d="M8.52643 43.6109C8.09744 43.3483 7.60716 43.2069 7.11688 43.1261C7.09646 43.1261 7.09646 43.1463 7.11688 43.1463C7.60716 43.2271 8.05658 43.4089 8.506 43.6311C8.52643 43.6715 8.54686 43.6311 8.52643 43.6109Z" fill="white"/>
<path d="M19.4148 38.1569C18.1074 39.0658 16.8613 40.096 15.8194 41.2676C14.6959 42.52 13.8583 43.9339 13.2863 45.5095C12.1015 48.7414 11.4682 52.2157 11.4069 55.6496C11.3661 57.5686 11.5499 59.4673 11.9585 61.3459C11.9789 61.4065 12.0811 61.3863 12.0606 61.3257C11.5499 58.0332 11.5704 54.6599 12.1219 51.3673C12.6531 48.1354 13.4906 44.6207 15.5743 41.9948C16.6978 40.5606 18.1074 39.4294 19.5169 38.2781C19.5782 38.2175 19.4761 38.1165 19.4148 38.1569Z" fill="white"/>
<path d="M11.8564 53.3267C11.8564 53.3267 12.9187 51.5491 14.4917 50.0139C16.0442 48.4788 17.3721 47.388 17.5559 46.3578C17.7602 45.3479 16.0034 44.5803 16.0034 44.5803C16.0034 44.5803 18.1688 44.9641 18.7407 44.0753C19.3332 43.1865 19.6192 37.9952 19.6192 37.9952C19.6192 37.9952 15.6969 40.7626 13.8584 44.6409C12.0403 48.5394 11.8564 53.3267 11.8564 53.3267Z" fill="white"/>
<path d="M18.2504 39.3284C16.5957 40.9242 14.941 42.6411 13.9605 44.7419C13.6336 45.469 13.3476 46.2164 13.1025 46.984C13.0616 47.1456 13.0003 47.287 12.9595 47.4486V47.4688C12.4692 49.0444 12.1424 50.6603 11.8359 52.2561C11.8359 52.2763 11.8564 52.2763 11.8564 52.2561C12.0198 51.4481 12.2036 50.6401 12.4284 49.8119H12.4488C12.7756 49.6705 13.1229 49.5897 13.4702 49.5493C13.4906 49.5493 13.4906 49.5089 13.4702 49.5089C13.1229 49.5291 12.7756 49.5897 12.4488 49.6907C12.6326 48.9636 12.8369 48.2162 13.0821 47.5092C13.8379 47.3274 14.6346 47.2264 15.4109 47.2062V47.186C14.6346 47.1456 13.8788 47.2264 13.1229 47.388C13.1638 47.2668 13.2046 47.1456 13.2455 47.0244C13.7562 46.9032 14.2669 46.8224 14.798 46.7618V46.7416C14.2873 46.7618 13.7766 46.8022 13.2863 46.9234C13.4906 46.2972 13.7358 45.6912 13.9809 45.0852C14.1852 44.5803 14.4507 44.1157 14.7163 43.6713C15.1453 43.5703 15.5334 43.4895 15.9624 43.4491C15.9829 43.4491 15.9829 43.4289 15.9624 43.4289C15.5743 43.4087 15.1657 43.4289 14.798 43.5501C15.0023 43.2269 15.227 42.9037 15.4517 42.5805C16.3301 42.3785 17.229 42.2169 18.1278 42.3785C18.1482 42.3785 18.1482 42.3583 18.1278 42.3583C17.2698 42.1361 16.4118 42.2573 15.5743 42.4391C15.6764 42.3179 15.7581 42.1967 15.8603 42.0755C16.3914 41.9139 16.943 41.8331 17.4945 41.8129C17.515 41.8129 17.515 41.7927 17.4945 41.7927C16.9838 41.7523 16.4527 41.7927 15.9624 41.9341C16.6978 41.0454 17.4945 40.197 18.2912 39.3688C18.3321 39.3082 18.2912 39.288 18.2504 39.3284Z" fill="white"/>
<path d="M18.209 42.8633C17.9435 42.8431 17.6983 42.8027 17.4328 42.8431C17.3919 42.8431 17.4123 42.9037 17.4328 42.9037C17.6983 42.9037 17.9435 42.8835 18.209 42.9037C18.2295 42.8835 18.2295 42.8633 18.209 42.8633Z" fill="white"/>
<path d="M15.3908 47.8932C14.9822 47.8932 14.5737 47.9942 14.1855 48.1356V48.1558C14.5941 48.0548 14.9822 48.0144 15.3908 47.9538C15.4317 47.9336 15.4317 47.8932 15.3908 47.8932Z" fill="white"/>
<path d="M14.5329 46.1559C14.3694 46.1559 14.1856 46.1761 14.0222 46.1963C14.0017 46.1963 14.0017 46.2165 14.0222 46.2165C14.1856 46.2165 14.3694 46.2165 14.5329 46.1963C14.5737 46.1963 14.5737 46.1559 14.5329 46.1559Z" fill="white"/>
<path d="M0.355905 43.6715C1.62245 44.0957 2.86857 44.6612 3.99212 45.3682C5.19738 46.1156 6.19836 47.0852 7.03592 48.2164C8.75188 50.5595 10.0797 53.2258 10.9377 55.9932C11.4075 57.5485 11.714 59.1241 11.8161 60.7401C11.8161 60.8006 11.7344 60.8006 11.7344 60.7401C11.3667 57.9525 10.57 55.2256 9.36473 52.6804C8.17989 50.1959 6.66821 47.5296 4.38025 45.8732C3.13414 44.9642 1.72459 44.3785 0.315048 43.7725C0.233335 43.7321 0.274192 43.6311 0.355905 43.6715Z" fill="white"/>
<path d="M10.0182 54.2154C10.0182 54.2154 8.7312 53.0237 7.11737 52.1349C5.50355 51.2461 4.17572 50.6603 3.76715 49.8726C3.35859 49.0848 4.62514 48.0748 4.62514 48.0748C4.62514 48.0748 2.97046 48.8828 2.2759 48.297C1.60177 47.7112 0.151367 43.5703 0.151367 43.5703C0.151367 43.5703 3.97144 44.9237 6.36153 47.6304C8.75163 50.3573 10.0182 54.2154 10.0182 54.2154Z" fill="white"/>
<path d="M9.81375 53.3671C7.8935 49.812 5.36041 46.6003 1.86719 44.4995C2.78646 45.0853 3.64444 45.7519 4.42071 46.4791C3.70572 46.4589 2.99074 46.5801 2.35746 46.9033C2.33704 46.9033 2.35746 46.9235 2.37789 46.9235C3.07245 46.6811 3.74658 46.5397 4.48199 46.5801C4.50242 46.5801 4.50242 46.5801 4.50242 46.5801C4.62499 46.7013 4.74756 46.8225 4.87013 46.9436C4.50242 46.9638 4.13471 47.0043 3.76701 47.085V47.1052C4.15514 47.0244 4.54328 47.0042 4.93141 47.0042C5.56469 47.6304 6.17753 48.3172 6.72909 49.0242C6.48395 48.9838 6.19796 49.004 5.95282 49.0848C5.93239 49.0848 5.93239 49.1252 5.95282 49.105C6.23882 49.0646 6.50438 49.0848 6.76995 49.0848C6.87209 49.2262 6.97423 49.3474 7.07637 49.4888C6.3001 49.4484 5.52383 49.509 4.74756 49.711C4.72713 49.711 4.74756 49.7312 4.74756 49.7312C5.54426 49.5696 6.32053 49.5292 7.13766 49.5696C7.2398 49.6908 7.32151 49.8322 7.42365 49.9534C6.9538 49.9332 6.50438 49.9938 6.03453 50.115C6.01411 50.115 6.01411 50.1554 6.03453 50.1352C6.50438 50.0342 6.97423 49.9938 7.46451 50.0342C7.87307 50.5998 8.26121 51.1653 8.64934 51.7511C8.44506 51.7107 8.24078 51.7309 8.0365 51.7915C8.01607 51.7915 8.0365 51.8117 8.0365 51.8117C8.26121 51.7915 8.46549 51.8117 8.6902 51.8521C9.03748 52.3773 9.36433 52.9025 9.67075 53.4277C9.77289 53.4479 9.83418 53.4075 9.81375 53.3671Z" fill="white"/>
<path d="M6.85214 50.4177C6.48444 50.3773 6.0963 50.4379 5.74902 50.5591V50.5793C6.11673 50.5187 6.48444 50.4783 6.85214 50.4581C6.87257 50.4581 6.87257 50.4177 6.85214 50.4177Z" fill="white"/>
<path d="M3.50161 46.0953C3.33819 46.0751 3.15433 46.0953 2.99091 46.1155C2.97048 46.1155 2.97048 46.1559 2.99091 46.1357C3.15433 46.1155 3.31776 46.1155 3.50161 46.1155C3.54247 46.1357 3.54247 46.0953 3.50161 46.0953Z" fill="white"/>
<path d="M14.941 65.9311H6.32031L7.546 57.0231L7.85243 54.7406H13.4089L13.7153 57.0231L14.941 65.9311Z" fill="white"/>
<path d="M13.7152 57.0231H7.5459L7.85232 54.7406H13.4088L13.7152 57.0231Z" fill="white"/>
<path d="M14.2056 53.9528H7.07617V55.8919H14.2056V53.9528Z" fill="white"/>
</g>
<path opacity="0.1" d="M63.3557 81.0002C95.7016 81.0002 121.923 78.1605 121.923 74.6576C121.923 71.1546 95.7016 68.3149 63.3557 68.3149C31.0097 68.3149 4.78809 71.1546 4.78809 74.6576C4.78809 78.1605 31.0097 81.0002 63.3557 81.0002Z" fill="white"/>
<path d="M104.478 76.0107H42.2334L51.2422 25.5524H113.487L104.478 76.0107Z" fill="url(#paint1_linear_86_1030)"/>
<path d="M72.5283 20.3207H52.1615L51.2422 25.5524H73.039L72.5283 20.3207Z" fill="url(#paint2_linear_86_1030)"/>
<path d="M49.9752 22.4415C49.9752 22.4415 49.9343 22.3405 49.9139 22.1587C49.8935 21.9971 49.873 21.7749 49.873 21.5527C49.873 21.3305 49.8935 21.1083 49.9139 20.9467C49.9343 20.7851 49.9752 20.6639 49.9752 20.6639C49.9752 20.6639 50.016 20.7649 50.0365 20.9467C50.0569 21.1083 50.0773 21.3305 50.0773 21.5527C50.0773 21.7749 50.0569 21.9971 50.0365 22.1587C49.9956 22.3405 49.9752 22.4415 49.9752 22.4415Z" fill="url(#paint3_linear_86_1030)"/>
<path d="M48.1567 22.9665C48.1567 22.9665 48.075 22.8857 47.9729 22.7645C47.8707 22.6433 47.7482 22.4615 47.6256 22.2595C47.5235 22.0777 47.4213 21.8757 47.36 21.7141C47.2988 21.5525 47.2783 21.4515 47.2783 21.4515C47.2783 21.4515 47.36 21.5323 47.4622 21.6535C47.5643 21.7747 47.6869 21.9565 47.8095 22.1585C47.9116 22.3403 48.0137 22.5423 48.075 22.7039C48.1363 22.8655 48.1567 22.9665 48.1567 22.9665Z" fill="url(#paint4_linear_86_1030)"/>
<path d="M46.8495 24.32C46.8495 24.32 46.7269 24.2998 46.5839 24.2392C46.4205 24.1786 46.2162 24.0776 46.0324 23.9766C45.8485 23.8756 45.6647 23.7342 45.5217 23.6332C45.3991 23.5322 45.3174 23.4514 45.3174 23.4514C45.3174 23.4514 45.4399 23.4716 45.5829 23.5322C45.7464 23.5928 45.9507 23.6938 46.1345 23.7948C46.3184 23.8958 46.5022 24.0372 46.6452 24.1382C46.7678 24.219 46.8495 24.32 46.8495 24.32Z" fill="url(#paint5_linear_86_1030)"/>
<path d="M46.4002 26.1178C46.4002 26.1178 46.2981 26.1582 46.1142 26.1784C45.9508 26.1986 45.7261 26.2188 45.5014 26.2188C45.2767 26.2188 45.052 26.1986 44.8885 26.1784C44.7251 26.1582 44.6025 26.1178 44.6025 26.1178C44.6025 26.1178 44.7047 26.0774 44.8885 26.0572C45.052 26.037 45.2767 26.0168 45.5014 26.0168C45.7261 26.0168 45.9508 26.037 46.1142 26.0572C46.2981 26.0774 46.4002 26.1178 46.4002 26.1178Z" fill="url(#paint6_linear_86_1030)"/>
<path d="M46.9315 27.9155C46.9315 27.9155 46.8498 27.9963 46.7272 28.0973C46.6047 28.1983 46.4208 28.3195 46.2165 28.4407C46.0327 28.5417 45.8284 28.6427 45.665 28.7033C45.5016 28.7639 45.3994 28.7841 45.3994 28.7841C45.3994 28.7841 45.4811 28.7033 45.6037 28.6023C45.7263 28.5013 45.9101 28.3801 46.1144 28.2589C46.2983 28.1579 46.5025 28.0569 46.666 27.9963C46.809 27.9357 46.9315 27.9155 46.9315 27.9155Z" fill="url(#paint7_linear_86_1030)"/>
<path d="M48.2798 29.2084C48.2798 29.2084 48.2593 29.3296 48.1981 29.471C48.1368 29.6326 48.0346 29.8346 47.9325 30.0164C47.8304 30.1981 47.6874 30.3799 47.5852 30.5213C47.4831 30.6425 47.4014 30.7233 47.4014 30.7233C47.4014 30.7233 47.4218 30.6021 47.4831 30.4607C47.5444 30.2991 47.6465 30.0972 47.7486 29.9154C47.8508 29.7336 47.9938 29.5518 48.0959 29.4104C48.1981 29.2892 48.2798 29.2084 48.2798 29.2084Z" fill="url(#paint8_linear_86_1030)"/>
<path d="M50.1178 29.6527C50.1178 29.6527 50.1586 29.7537 50.179 29.9355C50.1995 30.0971 50.2199 30.3193 50.2199 30.5415C50.2199 30.7637 50.1995 30.9859 50.179 31.1475C50.1586 31.3091 50.1178 31.4303 50.1178 31.4303C50.1178 31.4303 50.0769 31.3293 50.0565 31.1475C50.0361 30.9859 50.0156 30.7637 50.0156 30.5415C50.0156 30.3193 50.0361 30.0971 50.0565 29.9355C50.0769 29.7537 50.1178 29.6527 50.1178 29.6527Z" fill="url(#paint9_linear_86_1030)"/>
<path d="M51.916 29.1276C51.916 29.1276 51.9977 29.2084 52.0999 29.3296C52.202 29.4508 52.3246 29.6326 52.4471 29.8345C52.5493 30.0163 52.6514 30.2183 52.7127 30.3799C52.774 30.5415 52.7944 30.6425 52.7944 30.6425C52.7944 30.6425 52.7127 30.5617 52.6106 30.4405C52.5084 30.3193 52.3859 30.1375 52.2633 29.9355C52.1612 29.7537 52.059 29.5518 51.9977 29.3902C51.9569 29.2488 51.916 29.1276 51.916 29.1276Z" fill="url(#paint10_linear_86_1030)"/>
<path d="M53.2236 27.7943C53.2236 27.7943 53.3462 27.8145 53.4892 27.8751C53.6526 27.9357 53.8569 28.0367 54.0408 28.1377C54.2246 28.2387 54.4085 28.3801 54.5515 28.4811C54.674 28.5821 54.7557 28.6629 54.7557 28.6629C54.7557 28.6629 54.6332 28.6427 54.4902 28.5821C54.3268 28.5215 54.1225 28.4205 53.9386 28.3195C53.7548 28.2185 53.5709 28.0771 53.4279 27.9761C53.3053 27.8751 53.2236 27.7943 53.2236 27.7943Z" fill="url(#paint11_linear_86_1030)"/>
<path d="M53.6729 25.9764C53.6729 25.9764 53.775 25.936 53.9588 25.9158C54.1223 25.8956 54.347 25.8754 54.5717 25.8754C54.7964 25.8754 55.0211 25.8956 55.1845 25.9158C55.348 25.936 55.4705 25.9764 55.4705 25.9764C55.4705 25.9764 55.3684 26.0168 55.1845 26.037C55.0211 26.0572 54.7964 26.0774 54.5717 26.0774C54.347 26.0774 54.1223 26.0572 53.9588 26.037C53.7954 26.0168 53.6729 25.9764 53.6729 25.9764Z" fill="url(#paint12_linear_86_1030)"/>
<path d="M53.1621 24.1786C53.1621 24.1786 53.2438 24.0978 53.3664 23.9968C53.489 23.8958 53.6728 23.7746 53.8771 23.6534C54.0609 23.5525 54.2652 23.4515 54.4287 23.3909C54.5921 23.3303 54.6942 23.3101 54.6942 23.3101C54.6942 23.3101 54.6125 23.3909 54.4899 23.4919C54.3674 23.5929 54.1835 23.714 53.9792 23.8352C53.7954 23.9362 53.5911 24.0372 53.4277 24.0978C53.2642 24.1584 53.1621 24.1786 53.1621 24.1786Z" fill="url(#paint13_linear_86_1030)"/>
<path d="M51.793 22.906C51.793 22.906 51.8134 22.7848 51.8747 22.6434C51.936 22.4818 52.0381 22.2798 52.1402 22.098C52.2424 21.9162 52.3854 21.7344 52.4875 21.593C52.5897 21.4718 52.6714 21.391 52.6714 21.391C52.6714 21.391 52.651 21.5122 52.5897 21.6536C52.5284 21.8152 52.4262 22.0172 52.3241 22.199C52.222 22.3808 52.079 22.5626 51.9768 22.704C51.8747 22.8252 51.793 22.906 51.793 22.906Z" fill="url(#paint14_linear_86_1030)"/>
<path d="M104.396 76.0108H42.0085L33.1631 27.3704H95.5303L104.396 76.0108Z" fill="url(#paint15_linear_86_1030)"/>
<path d="M54.776 57.1039C56.2089 57.1039 57.3704 55.9554 57.3704 54.5386C57.3704 53.1218 56.2089 51.9733 54.776 51.9733C53.3432 51.9733 52.1816 53.1218 52.1816 54.5386C52.1816 55.9554 53.3432 57.1039 54.776 57.1039Z" fill="white"/>
<path d="M75.2653 57.1039C76.6981 57.1039 77.8597 55.9554 77.8597 54.5386C77.8597 53.1218 76.6981 51.9733 75.2653 51.9733C73.8324 51.9733 72.6709 53.1218 72.6709 54.5386C72.6709 55.9554 73.8324 57.1039 75.2653 57.1039Z" fill="white"/>
<path d="M68.7493 57.5284L68.6063 57.2658C68.5859 57.2456 67.258 54.8014 64.5615 54.8014C62.1101 54.8014 61.4973 57.1042 61.4769 57.2052L61.3952 57.5082L60.8027 57.3668L60.864 57.0638C60.864 57.0436 61.5994 54.1954 64.5411 54.1954C67.6053 54.1954 69.0761 56.882 69.1374 56.983L69.2804 57.2456L68.7493 57.5284Z" fill="white"/>
</g>
<defs>
<linearGradient id="paint0_linear_86_1030" x1="79.5222" y1="24.6451" x2="70.8255" y2="24.3551" gradientUnits="userSpaceOnUse">
<stop stop-color="#00ADEF"/>
<stop offset="1" stop-color="#8AC640"/>
</linearGradient>
<linearGradient id="paint1_linear_86_1030" x1="113.487" y1="76.0107" x2="37.8609" y2="68.2698" gradientUnits="userSpaceOnUse">
<stop stop-color="#00ADEF"/>
<stop offset="1" stop-color="#8AC640"/>
</linearGradient>
<linearGradient id="paint2_linear_86_1030" x1="73.039" y1="25.5523" x2="51.6161" y2="19.0827" gradientUnits="userSpaceOnUse">
<stop stop-color="#00ADEF"/>
<stop offset="1" stop-color="#8AC640"/>
</linearGradient>
<linearGradient id="paint3_linear_86_1030" x1="50.0773" y1="22.4415" x2="49.8583" y2="22.4397" gradientUnits="userSpaceOnUse">
<stop stop-color="#00ADEF"/>
<stop offset="1" stop-color="#8AC640"/>
</linearGradient>
<linearGradient id="paint4_linear_86_1030" x1="48.1567" y1="22.9665" x2="47.2163" y2="22.927" gradientUnits="userSpaceOnUse">
<stop stop-color="#00ADEF"/>
<stop offset="1" stop-color="#8AC640"/>
</linearGradient>
<linearGradient id="paint5_linear_86_1030" x1="46.8495" y1="24.32" x2="45.2328" y2="24.1133" gradientUnits="userSpaceOnUse">
<stop stop-color="#00ADEF"/>
<stop offset="1" stop-color="#8AC640"/>
</linearGradient>
<linearGradient id="paint6_linear_86_1030" x1="46.4002" y1="26.2188" x2="45.0388" y2="25.3406" gradientUnits="userSpaceOnUse">
<stop stop-color="#00ADEF"/>
<stop offset="1" stop-color="#8AC640"/>
</linearGradient>
<linearGradient id="paint7_linear_86_1030" x1="46.9315" y1="28.7841" x2="45.3148" y2="28.5774" gradientUnits="userSpaceOnUse">
<stop stop-color="#00ADEF"/>
<stop offset="1" stop-color="#8AC640"/>
</linearGradient>
<linearGradient id="paint8_linear_86_1030" x1="48.2798" y1="30.7233" x2="47.3394" y2="30.6838" gradientUnits="userSpaceOnUse">
<stop stop-color="#00ADEF"/>
<stop offset="1" stop-color="#8AC640"/>
</linearGradient>
<linearGradient id="paint9_linear_86_1030" x1="50.2199" y1="31.4303" x2="50.0008" y2="31.4284" gradientUnits="userSpaceOnUse">
<stop stop-color="#00ADEF"/>
<stop offset="1" stop-color="#8AC640"/>
</linearGradient>
<linearGradient id="paint10_linear_86_1030" x1="52.7944" y1="30.6425" x2="51.854" y2="30.603" gradientUnits="userSpaceOnUse">
<stop stop-color="#00ADEF"/>
<stop offset="1" stop-color="#8AC640"/>
</linearGradient>
<linearGradient id="paint11_linear_86_1030" x1="54.7557" y1="28.6629" x2="53.139" y2="28.4562" gradientUnits="userSpaceOnUse">
<stop stop-color="#00ADEF"/>
<stop offset="1" stop-color="#8AC640"/>
</linearGradient>
<linearGradient id="paint12_linear_86_1030" x1="55.4705" y1="26.0774" x2="54.1091" y2="25.1991" gradientUnits="userSpaceOnUse">
<stop stop-color="#00ADEF"/>
<stop offset="1" stop-color="#8AC640"/>
</linearGradient>
<linearGradient id="paint13_linear_86_1030" x1="54.6942" y1="24.1786" x2="53.0775" y2="23.9719" gradientUnits="userSpaceOnUse">
<stop stop-color="#00ADEF"/>
<stop offset="1" stop-color="#8AC640"/>
</linearGradient>
<linearGradient id="paint14_linear_86_1030" x1="52.6714" y1="22.906" x2="51.731" y2="22.8664" gradientUnits="userSpaceOnUse">
<stop stop-color="#00ADEF"/>
<stop offset="1" stop-color="#8AC640"/>
</linearGradient>
<linearGradient id="paint15_linear_86_1030" x1="104.396" y1="76.0108" x2="28.851" y2="67.9914" gradientUnits="userSpaceOnUse">
<stop stop-color="#00ADEF"/>
<stop offset="1" stop-color="#8AC640"/>
</linearGradient>
<clipPath id="clip0_86_1030">
<rect width="125" height="81" fill="white" transform="translate(0.151367)"/>
</clipPath>
</defs>
</svg>
