<svg
  width="29"
  height="25"
  viewBox="0 0 29 25"
  fill="none"
  xmlns="http://www.w3.org/2000/svg"
  style="flex-grow: 0; flex-shrink: 0; width: 28.68px; height: 24px;"
  preserveAspectRatio="xMidYMid meet"
>
  <path
    d="M27.882 23.3067H23.9205V10.4611C23.9205 10.0188 23.5621 9.66058 23.12 9.66058C22.6779 9.66058 22.3195 10.0188 22.3195 10.4611V23.3062L18.0681 23.3064V17.0583C18.0681 16.616 17.7096 16.2577 17.2676 16.2577C16.8255 16.2577 16.4671 16.616 16.4671 17.0583V23.3058L12.2157 23.306V15.4087C12.2157 14.9664 11.8572 14.6082 11.4151 14.6082C10.9731 14.6082 10.6146 14.9664 10.6146 15.4087V23.306L6.363 23.3062V20.1441C6.363 19.7018 6.00456 19.3436 5.56248 19.3436C5.12041 19.3436 4.76196 19.7018 4.76196 20.1441V23.3062H2.30531C1.91717 23.3062 1.60146 22.9903 1.60146 22.6022L1.60125 1.70774C1.60125 1.26548 1.24281 0.907227 0.800733 0.907227C0.35847 0.907227 0 1.26546 0 1.70774V22.6022C0 23.8732 1.03407 24.9072 2.30505 24.9072L27.8819 24.907C28.324 24.907 28.6824 24.5488 28.6824 24.1065C28.6824 23.6642 28.324 23.3062 27.8819 23.3062L27.882 23.3067Z"
    fill="url(#paint0_linear_86_2158)"
  ></path>
  <path
    d="M9.69975 10.5462L5.05979 14.3044C4.7163 14.5826 4.66344 15.087 4.94164 15.4305C5.09981 15.626 5.33105 15.727 5.56419 15.727C5.74131 15.727 5.91947 15.6689 6.06774 15.5487L10.706 11.7915C11.2637 11.3412 12.0079 11.1879 12.6971 11.3821L15.234 12.0981C16.6309 12.4915 18.1555 12.0444 19.116 10.9592L22.8201 6.78589C23.2388 6.31456 23.8409 6.04393 24.4723 6.04393H25.3459L24.9417 6.44807C24.629 6.7604 24.629 7.2673 24.9417 7.58005C25.098 7.73632 25.3029 7.81446 25.5078 7.81446C25.7128 7.81446 25.9177 7.73632 26.0739 7.58005L27.8457 5.80849C27.9959 5.65854 28.0801 5.45489 28.0801 5.24261C28.0801 5.03053 27.9959 4.82688 27.8457 4.67672L26.0739 2.90472C25.7614 2.59198 25.2545 2.59198 24.9417 2.90472C24.629 3.21705 24.629 3.72395 24.9417 4.03671L25.3484 4.44338H24.4723C23.3837 4.44338 22.3452 4.90965 21.6228 5.72341L17.9181 9.89734C17.3615 10.5268 16.4785 10.7857 15.6689 10.5574L13.1316 9.84089C11.9444 9.5073 10.6618 9.77013 9.69982 10.5462L9.69975 10.5462Z"
    fill="url(#paint1_linear_86_2158)"
  ></path>
  <path
    d="M5.56272 6.27682H9.03809C9.48014 6.27682 9.8386 5.91858 9.8386 5.4763C9.8386 5.03404 9.48016 4.67578 9.03809 4.67578L5.56272 4.67599C5.12067 4.67599 4.76221 5.03422 4.76221 5.47651C4.76221 5.91879 5.12065 6.27682 5.56272 6.27682Z"
    fill="url(#paint2_linear_86_2158)"
  ></path>
  <path
    d="M11.6031 6.14361C11.6452 6.17056 11.6932 6.19794 11.7414 6.21584C11.7897 6.2369 11.8377 6.25207 11.8889 6.26112C11.94 6.27313 11.9942 6.27607 12.0485 6.27607C12.0997 6.27607 12.1538 6.27313 12.205 6.26112C12.2561 6.25207 12.3044 6.23711 12.3524 6.21584C12.4006 6.19794 12.4488 6.17056 12.4908 6.14361C12.5329 6.1137 12.575 6.08043 12.6142 6.04126C12.7645 5.89089 12.849 5.68913 12.849 5.47559C12.849 5.42441 12.8429 5.37324 12.8309 5.31933C12.8218 5.26794 12.8069 5.21992 12.7856 5.1719C12.7677 5.12073 12.7405 5.07544 12.7134 5.03354C12.6833 4.98826 12.6502 4.94635 12.614 4.91012C12.5748 4.8739 12.5358 4.84083 12.4905 4.81072C12.4484 4.78081 12.4004 4.75659 12.3522 4.73848C12.3042 4.71763 12.253 4.70226 12.2048 4.69025C11.943 4.63908 11.666 4.72353 11.4795 4.91012C11.4432 4.94634 11.4102 4.98825 11.38 5.03354C11.3531 5.07566 11.3259 5.12073 11.3078 5.1719C11.2867 5.22013 11.2716 5.26793 11.2627 5.31932C11.2507 5.37345 11.2446 5.42462 11.2446 5.47559C11.2446 5.68914 11.3289 5.89089 11.4792 6.04126C11.5188 6.08043 11.5609 6.11349 11.6031 6.14361Z"
    fill="url(#paint3_linear_86_2158)"
  ></path>
  <path
    d="M5.56272 3.34347H9.03809C9.48014 3.34347 9.8386 2.98523 9.8386 2.54295C9.8386 2.10066 9.48016 1.74243 9.03809 1.74243L5.56272 1.74264C5.12067 1.74264 4.76221 2.10087 4.76221 2.54316C4.76221 2.98521 5.12065 3.34347 5.56272 3.34347Z"
    fill="url(#paint4_linear_86_2158)"
  ></path>
  <path
    d="M11.3081 2.84821C11.3262 2.89644 11.3503 2.94467 11.3804 2.987C11.4105 3.02912 11.4435 3.07103 11.4798 3.1102C11.6333 3.26057 11.8348 3.34208 12.0486 3.34208C12.2622 3.34208 12.461 3.26078 12.6143 3.1102C12.6505 3.07103 12.6836 3.02912 12.7137 2.987C12.7438 2.94467 12.7678 2.89644 12.7859 2.84821C12.807 2.80041 12.8222 2.75218 12.8312 2.701C12.8432 2.64982 12.8462 2.59549 12.8462 2.54136C12.8462 2.33077 12.7619 2.12606 12.6145 1.9757C12.3167 1.6777 11.778 1.6777 11.4802 1.9757C11.3328 2.12607 11.2485 2.33077 11.2485 2.54136C11.2485 2.59549 11.2517 2.64982 11.2637 2.701C11.2719 2.75218 11.2869 2.80041 11.3081 2.84821Z"
    fill="url(#paint5_linear_86_2158)"
  ></path>
  <defs>
    <linearGradient
      id="paint0_linear_86_2158"
      x1="28.6824"
      y1="24.9072"
      x2="-1.84993"
      y2="22.2623"
      gradientUnits="userSpaceOnUse"
    >
      <stop stop-color="#00ADEF"></stop>
      <stop offset="1" stop-color="#8AC640"></stop>
    </linearGradient>
    <linearGradient
      id="paint1_linear_86_2158"
      x1="28.0801"
      y1="15.727"
      x2="3.48516"
      y2="12.5434"
      gradientUnits="userSpaceOnUse"
    >
      <stop stop-color="#00ADEF"></stop>
      <stop offset="1" stop-color="#8AC640"></stop>
    </linearGradient>
    <linearGradient
      id="paint2_linear_86_2158"
      x1="9.8386"
      y1="6.27682"
      x2="4.66739"
      y2="5.08832"
      gradientUnits="userSpaceOnUse"
    >
      <stop stop-color="#00ADEF"></stop>
      <stop offset="1" stop-color="#8AC640"></stop>
    </linearGradient>
    <linearGradient
      id="paint3_linear_86_2158"
      x1="12.849"
      y1="6.27607"
      x2="11.1374"
      y2="6.15171"
      gradientUnits="userSpaceOnUse"
    >
      <stop stop-color="#00ADEF"></stop>
      <stop offset="1" stop-color="#8AC640"></stop>
    </linearGradient>
    <linearGradient
      id="paint4_linear_86_2158"
      x1="9.8386"
      y1="3.34347"
      x2="4.66739"
      y2="2.15498"
      gradientUnits="userSpaceOnUse"
    >
      <stop stop-color="#00ADEF"></stop>
      <stop offset="1" stop-color="#8AC640"></stop>
    </linearGradient>
    <linearGradient
      id="paint5_linear_86_2158"
      x1="12.8462"
      y1="3.34208"
      x2="11.1418"
      y2="3.21793"
      gradientUnits="userSpaceOnUse"
    >
      <stop stop-color="#00ADEF"></stop>
      <stop offset="1" stop-color="#8AC640"></stop>
    </linearGradient>
  </defs>
</svg>