<svg
  width="25"
  height="25"
  viewBox="0 0 25 25"
  fill="none"
  xmlns="http://www.w3.org/2000/svg"
  style="flex-grow: 0; flex-shrink: 0;"
  preserveAspectRatio="xMidYMid meet"
>
  <path
    d="M2.07348 22.9299L7.63349 13.7884C7.82203 13.8513 8.04192 13.914 8.29314 13.914C8.82718 13.914 9.29832 13.6941 9.64384 13.3486L13.1621 15.736C13.0051 16.0502 12.9736 16.4271 13.0365 16.7728C13.1621 17.5581 13.7904 18.1864 14.5757 18.312C14.67 18.312 14.7642 18.3433 14.8585 18.3433C15.3925 18.3433 15.9266 18.0921 16.2721 17.6837C16.6176 17.2753 16.7748 16.7099 16.7119 16.1758C16.6805 15.893 16.5549 15.6104 16.3664 15.359L20.8585 8.25963C20.9527 8.29099 21.047 8.32254 21.1413 8.32254C21.2355 8.32254 21.3298 8.3539 21.4241 8.3539C21.9581 8.3539 22.4921 8.10265 22.8377 7.69425C23.1832 7.28585 23.3404 6.72042 23.2774 6.18638C23.1518 5.40107 22.5235 4.77278 21.7382 4.64717C21.1099 4.5529 20.4502 4.77279 20.0418 5.27547C19.6963 5.68389 19.5391 6.24929 19.602 6.78333C19.6649 7.1602 19.8219 7.50588 20.0732 7.75715L15.6126 14.7621C15.4556 14.6992 15.2985 14.6365 15.1415 14.6051C14.6388 14.5422 14.1363 14.668 13.7279 14.9506L10.0838 12.4689C10.1152 12.3119 10.1467 12.1861 10.1467 12.0291C10.1467 10.9924 9.2985 10.1758 8.29333 10.1758C7.28815 10.1758 6.43994 11.024 6.43994 12.0291C6.43994 12.5003 6.59692 12.9087 6.87972 13.2229L1.88494 21.4531V0.814453H0V24.8145H24.0313V22.9297L2.07348 22.9299ZM22.0841 7.09747C21.8642 7.34872 21.55 7.44299 21.2359 7.41163C20.859 7.34872 20.5448 7.03476 20.4819 6.65768C20.4506 6.53205 20.4819 6.40643 20.4819 6.31216C20.5133 6.15518 20.5762 6.02936 20.6704 5.93529C20.7961 5.77831 20.9532 5.68404 21.1416 5.65249C21.2045 5.62113 21.2986 5.62113 21.3615 5.62113H21.5185C21.5498 5.62113 21.5814 5.62113 21.6127 5.65249C21.9582 5.74676 22.2095 6.02936 22.2724 6.37505C22.3355 6.62629 22.2726 6.90909 22.084 7.09745L22.0841 7.09747ZM14.9848 15.5478C15.0161 15.5478 15.0477 15.5478 15.079 15.5792C15.4245 15.6734 15.6758 15.956 15.7387 16.3017C15.77 16.5845 15.7073 16.8358 15.5188 17.0557C15.2989 17.3069 14.9847 17.4012 14.6706 17.3698C14.2937 17.3069 13.9795 16.993 13.9166 16.6159C13.8852 16.4903 13.9166 16.3646 13.9166 16.2704C13.948 16.1134 14.0109 15.9876 14.1051 15.8935C14.2308 15.7365 14.3879 15.6422 14.5763 15.6107C14.6392 15.5793 14.7333 15.5793 14.7962 15.5793C14.8904 15.5478 14.922 15.5478 14.9847 15.5478L14.9848 15.5478ZM7.35128 12.0295C7.35128 11.5269 7.7597 11.1186 8.26219 11.1186C8.70197 11.1186 9.07906 11.4328 9.17311 11.8726C9.17311 11.9355 9.20447 11.9669 9.20447 12.0296C9.20447 12.3437 9.04749 12.595 8.8276 12.7521C8.67062 12.8777 8.48209 12.9407 8.29356 12.9407H8.16794C7.82242 12.8777 7.53964 12.6579 7.44538 12.3439C7.38267 12.2494 7.35128 12.1552 7.35128 12.0295Z"
    fill="url(#paint0_linear_86_2173)"
  ></path>
  <defs>
    <linearGradient
      id="paint0_linear_86_2173"
      x1="24.0313"
      y1="24.8145"
      x2="-1.60686"
      y2="22.9536"
      gradientUnits="userSpaceOnUse"
    >
      <stop stop-color="#00ADEF"></stop>
      <stop offset="1" stop-color="#8AC640"></stop>
    </linearGradient>
  </defs>
</svg>