<svg
  width="27"
  height="24"
  viewBox="0 0 27 24"
  fill="none"
  xmlns="http://www.w3.org/2000/svg"
  style="flex-grow: 0; flex-shrink: 0;"
  preserveAspectRatio="xMidYMid meet"
>
  <path
    d="M26.0838 7.46465V2.92924C26.0838 0.619467 19.783 0 16.0576 0C12.3319 0 6.03082 0.619467 6.03082 2.92924V7.01327C3.60176 7.2833 0.199241 7.95137 0 9.57073V14.2653C0 15.8582 2.98239 16.6458 6.05307 16.9865V21.0708C6.05307 23.3805 12.3539 24 16.0793 24C19.805 24 26.0838 23.3805 26.0838 21.0708V16.3673C25.8583 14.7479 22.4777 14.0796 20.053 13.8142V10.1815C23.1015 9.8451 26.0838 9.05756 26.0838 7.46465ZM16.0576 9.07081C10.7479 9.07081 7.56659 8.00887 7.35876 7.46465L7.35856 4.51786C9.41175 5.54445 13.3939 5.84529 16.0574 5.84529C18.7211 5.84529 22.6945 5.52666 24.7562 4.51786V7.4382C24.5352 8.01777 21.3714 9.07081 16.0574 9.07081H16.0576ZM16.0576 1.32773C21.2919 1.32773 24.4646 2.35868 24.7478 2.92955C24.4513 3.50476 21.2921 4.53571 16.0576 4.53571C10.8232 4.53571 7.65054 3.50476 7.36735 2.92955C7.66385 2.35868 10.8187 1.32773 16.0576 1.32773ZM6.35851 8.3143C7.68594 9.93366 12.8364 10.3983 16.0576 10.3983C16.5311 10.3983 17.0488 10.3983 17.5884 10.3629C16.2035 10.854 13.6062 11.3364 10.0042 11.3364C4.76979 11.3364 1.59711 10.3054 1.31393 9.73456C1.49111 9.4116 2.94674 8.67262 6.35836 8.31429L6.35851 8.3143ZM1.30538 14.2657V11.3187C3.35857 12.3453 7.34075 12.6462 10.0042 12.6462C12.668 12.6462 16.6413 12.3275 18.703 11.3187V14.2434C18.4907 14.8097 15.3138 15.8717 9.99965 15.8717C4.6859 15.8719 1.52637 14.81 1.30538 14.2657ZM16.0578 22.6728C10.7481 22.6728 7.5668 21.6108 7.35896 21.071L7.35876 18.1242C9.41195 19.1508 13.3941 19.4516 16.0576 19.4516C18.7213 19.4516 22.6947 19.133 24.7564 18.1242V21.0445C24.5354 21.6108 21.3716 22.6728 16.0576 22.6728H16.0578ZM24.748 16.5358C24.4472 17.111 21.2878 18.1419 16.0578 18.1419C12.4473 18.1419 9.82772 17.6509 8.4472 17.1641C8.99597 17.1641 9.52239 17.1995 10.0048 17.1995C13.2259 17.1995 18.3719 16.757 19.7038 15.1155C23.1155 15.4738 24.5667 16.2128 24.7481 16.5358L24.748 16.5358Z"
    fill="url(#paint0_linear_86_2149)"
  ></path>
  <defs>
    <linearGradient
      id="paint0_linear_86_2149"
      x1="26.0838"
      y1="24"
      x2="-1.71815"
      y2="21.8098"
      gradientUnits="userSpaceOnUse"
    >
      <stop stop-color="#00ADEF"></stop>
      <stop offset="1" stop-color="#8AC640"></stop>
    </linearGradient>
  </defs>
</svg>