<svg
  width="26"
  height="22"
  viewBox="0 0 26 22"
  fill="none"
  xmlns="http://www.w3.org/2000/svg"
  preserveAspectRatio="xMidYMid meet"
>
  <path
    fill-rule="evenodd"
    clip-rule="evenodd"
    d="M19.4706 20.8887C19.8087 21.1281 20.2444 21.188 20.633 21.041C21.0215 20.8929 21.3071 20.5611 21.3932 20.159C22.3056 15.8708 24.519 5.01692 25.3496 1.11616C25.4126 0.822162 25.3076 0.516611 25.0766 0.320261C24.8456 0.123911 24.5253 0.0672112 24.2397 0.173261C19.8371 1.80286 6.27839 6.89012 0.736511 8.94077C0.384761 9.07097 0.15586 9.40907 0.16741 9.77972C0.18001 10.1514 0.429911 10.4738 0.790061 10.5819C3.27538 11.3253 6.53774 12.3596 6.53774 12.3596C6.53774 12.3596 8.06234 16.9638 8.85719 19.3053C8.95694 19.5993 9.18689 19.8303 9.49034 19.9101C9.79274 19.9889 10.1161 19.9059 10.3419 19.6928C11.6187 18.4874 13.5927 16.6236 13.5927 16.6236C13.5927 16.6236 17.3433 19.3736 19.4706 20.8887ZM7.91009 11.7779L9.67304 17.5928L10.0647 13.9104C10.0647 13.9104 16.876 7.76687 20.759 4.26512C20.8724 4.16222 20.8881 3.99002 20.7936 3.86926C20.7002 3.74851 20.528 3.72016 20.3988 3.80206C15.8985 6.67592 7.91009 11.7779 7.91009 11.7779Z"
    fill="#FAFBFB"
  ></path>
</svg>