<svg
  width="23"
  height="19"
  viewBox="0 0 23 19"
  fill="none"
  xmlns="http://www.w3.org/2000/svg"
  preserveAspectRatio="xMidYMid meet"
>
  <path
    d="M2.99916 3.92998C3.02717 3.65389 2.92187 3.38109 2.71577 3.1954L0.616421 0.666309V0.288574H7.13494L12.1735 11.3386L16.603 0.288574H22.8172V0.666309L21.0222 2.38738C20.8675 2.50533 20.7907 2.69916 20.8227 2.89102V15.5361C20.7907 15.728 20.8675 15.9219 21.0222 16.0399L22.7752 17.7608V18.1386H13.9579V17.7608L15.7738 15.9979C15.9523 15.8194 15.9523 15.767 15.9523 15.4942V5.27313L10.9033 18.0966H10.221L4.34278 5.27313V13.8676C4.29378 14.229 4.41379 14.5927 4.66824 14.854L7.03001 17.7189V18.0966H0.333008V17.7189L2.69478 14.854C2.94736 14.5923 3.06034 14.2261 2.99916 13.8676V3.92998Z"
    fill="#FAFBFB"
  ></path>
</svg>