<svg
  width="20"
  height="22"
  viewBox="0 0 20 22"
  fill="none"
  xmlns="http://www.w3.org/2000/svg"
  preserveAspectRatio="xMidYMid meet"
>
  <path
    d="M19.041 14.8862V1.10498C19.041 0.559473 18.6021 0.120605 18.0566 0.120605H4.60352C2.42969 0.120605 0.666016 1.88428 0.666016 4.05811V17.1831C0.666016 19.3569 2.42969 21.1206 4.60352 21.1206H18.0566C18.6021 21.1206 19.041 20.6817 19.041 20.1362V19.48C19.041 19.1724 18.8975 18.8935 18.676 18.713C18.5037 18.0813 18.5037 16.2808 18.676 15.6491C18.8975 15.4728 19.041 15.1938 19.041 14.8862ZM5.91602 5.6167C5.91602 5.48135 6.02676 5.37061 6.16211 5.37061H14.8574C14.9928 5.37061 15.1035 5.48135 15.1035 5.6167V6.43701C15.1035 6.57236 14.9928 6.68311 14.8574 6.68311H6.16211C6.02676 6.68311 5.91602 6.57236 5.91602 6.43701V5.6167ZM5.91602 8.2417C5.91602 8.10635 6.02676 7.99561 6.16211 7.99561H14.8574C14.9928 7.99561 15.1035 8.10635 15.1035 8.2417V9.06201C15.1035 9.19736 14.9928 9.30811 14.8574 9.30811H6.16211C6.02676 9.30811 5.91602 9.19736 5.91602 9.06201V8.2417ZM16.3094 18.4956H4.60352C3.87754 18.4956 3.29102 17.9091 3.29102 17.1831C3.29102 16.4612 3.88164 15.8706 4.60352 15.8706H16.3094C16.2314 16.572 16.2314 17.7942 16.3094 18.4956Z"
    fill="#FAFBFB"
  ></path>
</svg>  