<svg
  width="25"
  height="24"
  viewBox="0 0 25 24"
  fill="none"
  xmlns="http://www.w3.org/2000/svg"
  preserveAspectRatio="xMidYMid meet"
>
  <path
    d="M12.2923 0.318359C5.68534 0.318359 0.333984 5.66971 0.333984 12.2767C0.333984 17.5683 3.75706 22.0377 8.5105 23.6222C9.10841 23.7268 9.33263 23.368 9.33263 23.0541C9.33263 22.7701 9.31768 21.8284 9.31768 20.8269C6.31315 21.38 5.53586 20.0945 5.29669 19.4218C5.16216 19.078 4.57919 18.0167 4.07096 17.7327C3.65242 17.5085 3.05451 16.9554 4.05602 16.9404C4.99774 16.9255 5.67039 17.8074 5.89461 18.1662C6.97086 19.9749 8.68987 19.4666 9.37748 19.1527C9.48211 18.3754 9.79602 17.8523 10.1398 17.5533C7.47909 17.2543 4.69878 16.2229 4.69878 11.6489C4.69878 10.3484 5.16216 9.27216 5.92451 8.43508C5.80492 8.13612 5.38638 6.91039 6.04409 5.26612C6.04409 5.26612 7.0456 4.95221 9.33263 6.49185C10.2893 6.22279 11.3058 6.08825 12.3222 6.08825C13.3387 6.08825 14.3551 6.22279 15.3118 6.49185C17.5988 4.93727 18.6003 5.26612 18.6003 5.26612C19.2581 6.91039 18.8395 8.13612 18.7199 8.43508C19.4823 9.27216 19.9457 10.3335 19.9457 11.6489C19.9457 16.2379 17.1504 17.2543 14.4897 17.5533C14.9232 17.927 15.2969 18.6445 15.2969 19.7656C15.2969 21.365 15.2819 22.6505 15.2819 23.0541C15.2819 23.368 15.5061 23.7417 16.104 23.6222C18.4781 22.8209 20.5411 21.2953 22.0025 19.26C23.464 17.2247 24.2502 14.7823 24.2507 12.2767C24.2507 5.66971 18.8993 0.318359 12.2923 0.318359Z"
    fill="#FAFBFB"
  ></path>
</svg>