<svg
  width="28"
  height="22"
  viewBox="0 0 28 22"
  fill="none"
  xmlns="http://www.w3.org/2000/svg"
  preserveAspectRatio="none"
>
  <path
    d="M23.7032 1.88978C21.9185 1.0709 20.0048 0.467613 18.0039 0.122047C17.9675 0.115397 17.9311 0.13208 17.9123 0.165447C17.6661 0.60318 17.3935 1.17426 17.2026 1.62308C15.0505 1.30085 12.9094 1.30085 10.8013 1.62308C10.6104 1.16423 10.3279 0.60318 10.0807 0.165447C10.0619 0.13313 10.0255 0.116563 9.989 0.122047C7.98922 0.466447 6.07553 1.06985 4.28972 1.88978C4.27432 1.89643 4.26102 1.90751 4.25227 1.92198C0.622288 7.34511 -0.372108 12.6349 0.11571 17.8591C0.117915 17.8847 0.132264 17.909 0.152133 17.9246C2.54707 19.6834 4.86698 20.7512 7.14385 21.4589C7.18025 21.4699 7.21887 21.4566 7.24208 21.4267C7.78062 20.6912 8.2607 19.9156 8.67242 19.1001C8.69668 19.0524 8.67347 18.9957 8.62388 18.9768C7.86228 18.6879 7.1372 18.3357 6.43965 17.9358C6.38447 17.9036 6.38015 17.8246 6.4309 17.7868C6.57767 17.6769 6.72443 17.5624 6.86467 17.4468C6.88998 17.4257 6.92533 17.4213 6.95508 17.4346C11.5375 19.5267 16.4984 19.5267 21.0268 17.4346C21.0566 17.4202 21.0919 17.4246 21.1184 17.4458C21.2585 17.5613 21.4054 17.6769 21.5532 17.7868C21.604 17.8246 21.6007 17.9036 21.5455 17.9358C20.848 18.3435 20.1229 18.6879 19.3602 18.9757C19.3107 18.9945 19.2885 19.0524 19.3128 19.1001C19.7333 19.9145 20.2134 20.69 20.742 21.4256C20.7641 21.4566 20.8039 21.4699 20.8403 21.4589C23.1281 20.7512 25.448 19.6834 27.843 17.9246C27.864 17.909 27.8773 17.8857 27.8795 17.8602C28.4633 11.8204 26.9016 6.57395 23.7396 1.92303C23.7319 1.90751 23.7187 1.89643 23.7032 1.88978ZM9.35667 14.6781C7.97708 14.6781 6.84028 13.4114 6.84028 11.856C6.84028 10.3005 7.95503 9.03386 9.35667 9.03386C10.7694 9.03386 11.8951 10.3116 11.873 11.856C11.873 13.4114 10.7583 14.6781 9.35667 14.6781ZM18.6605 14.6781C17.281 14.6781 16.1442 13.4114 16.1442 11.856C16.1442 10.3005 17.2588 9.03386 18.6605 9.03386C20.0732 9.03386 21.1989 10.3116 21.1769 11.856C21.1769 13.4114 20.0732 14.6781 18.6605 14.6781Z"
    fill="#FAFBFB"
  ></path>
</svg>