<svg
  width="20"
  height="20"
  viewBox="0 0 20 20"
  fill="none"
  xmlns="http://www.w3.org/2000/svg"
  preserveAspectRatio="xMidYMid meet"
>
  <path
    fill-rule="evenodd"
    clip-rule="evenodd"
    d="M7.70809 6.89461H11.2287V8.64825C11.7358 7.63967 13.0363 6.73346 14.99 6.73346C18.7352 6.73346 19.6243 8.74115 19.6243 12.4248V19.2469H15.8327V13.2637C15.8327 11.1659 15.3255 9.98292 14.0345 9.98292C12.2439 9.98292 11.4998 11.2579 11.4998 13.2627V19.2469H7.70809V6.89461V6.89461ZM1.20633 19.0858H4.998V6.73346H1.20633V19.0858V19.0858ZM5.54115 2.70576C5.54129 3.02357 5.47826 3.33825 5.35573 3.63149C5.23319 3.92473 5.05359 4.19069 4.82737 4.41391C4.36896 4.8695 3.74846 5.12452 3.10216 5.12295C2.457 5.12252 1.83794 4.86815 1.37885 4.41486C1.15345 4.19087 0.974454 3.92462 0.852133 3.63134C0.729812 3.33806 0.666565 3.02353 0.666016 2.70576C0.666016 2.06402 0.921953 1.44977 1.3798 0.996668C1.83848 0.542766 2.45781 0.288291 3.10311 0.288574C3.74959 0.288574 4.36953 0.543564 4.82737 0.996668C5.28427 1.44977 5.54115 2.06402 5.54115 2.70576Z"
    fill="#FAFBFB"
  ></path>
</svg>