<svg width="41" height="41" viewBox="0 0 41 41" fill="none" xmlns="http://www.w3.org/2000/svg">
<path fill-rule="evenodd" clip-rule="evenodd" d="M20.3318 0.493042C31.3647 0.493042 40.3318 9.46105 40.3318 20.493C40.3318 31.525 31.3638 40.493 20.3318 40.493C9.2998 40.493 0.331787 31.525 0.331787 20.493C0.331787 9.46105 9.2998 0.493042 20.3318 0.493042ZM15.9659 16.3044H18.2668C18.857 16.3044 19.2696 16.7764 19.2696 17.3072V28.8121H14.9038V17.3072C14.9038 16.7171 15.3757 16.3044 15.9066 16.3044H15.9659ZM8.53229 30.8174H32.19C32.4849 30.8174 32.7209 31.0534 32.7209 31.3483V33.6492C32.7209 33.9441 32.4849 34.18 32.19 34.18H8.53229C8.2374 34.18 8.00143 33.9441 8.00143 33.6492V31.3483C8.00143 31.0534 8.2374 30.8174 8.53229 30.8174ZM9.29915 20.6697H11.6C12.1902 20.6697 12.6029 21.1417 12.6029 21.6725V28.8112H8.237V21.6725C8.237 21.0824 8.70897 20.6697 9.23981 20.6697H9.29915ZM29.358 6.74656H31.6589C32.2491 6.74656 32.6618 7.21852 32.6618 7.74937V28.871H28.2959V7.74937C28.2959 7.15924 28.7679 6.74656 29.2987 6.74656H29.358ZM22.8094 11.9974H25.1103C25.7005 11.9974 26.1131 12.4694 26.1131 13.0002V28.8705H21.7473V13.0002C21.7473 12.4101 22.2193 11.9974 22.7501 11.9974H22.8094Z" fill="url(#paint0_linear_86_4594)"/>
<defs>
<linearGradient id="paint0_linear_86_4594" x1="40.3318" y1="40.493" x2="-2.3434" y2="37.3997" gradientUnits="userSpaceOnUse">
<stop stop-color="#00ADEF"/>
<stop offset="1" stop-color="#8AC640"/>
</linearGradient>
</defs>
</svg>
