<svg width="40" height="41" viewBox="0 0 40 41" fill="none" xmlns="http://www.w3.org/2000/svg">
<path d="M19.495 1.55932C15.7002 3.14907 12.5463 6.43112 11.2386 10.1747L10.8796 11.1747H13.3412C16.0078 11.1747 18.0848 11.6106 20.3925 12.6362C22.7514 13.6875 22.6745 13.8927 22.5976 7.02086L22.5207 1.0465L21.7514 0.995221C21.3412 0.943939 20.3155 1.20035 19.495 1.55932Z" fill="url(#paint0_linear_86_4626)"/>
<path d="M27.8539 1.61061C27.5975 1.68753 27.5206 3.17471 27.5206 7.73881V13.7388H28.8026C29.7513 13.7388 30.0847 13.8414 30.0847 14.1234C30.0847 14.3286 29.4436 15.4568 28.6744 16.6619C27.9052 17.8414 27.2642 18.9183 27.2642 19.0721C27.2642 19.2004 27.6231 20.0721 28.0334 20.9696C28.9565 22.9439 29.6744 26.4311 29.4949 28.1747L29.3924 29.4311L30.1616 29.2773C32.5975 28.7901 36.5462 25.3286 37.9565 22.4311C39.2642 19.7901 39.6488 17.867 39.4949 15.0209C39.136 8.32856 35.0334 3.3542 28.418 1.53369C28.2898 1.50805 28.0077 1.53369 27.8539 1.61061Z" fill="url(#paint1_linear_86_4626)"/>
<path d="M10.4181 14.9261C5.93091 16.1201 2.49501 19.6524 1.2386 24.3786C0.623219 26.7169 0.725783 30.075 1.49501 32.4382C2.21296 34.6521 3.75142 37.0401 5.16168 38.1843C6.5463 39.3037 9.64886 40.7216 10.7771 40.7713L11.7514 40.7962L11.8283 35.8212C11.854 33.0849 11.8283 30.5974 11.7514 30.274C11.6489 29.8263 11.4437 29.7268 10.5976 29.7268C10.0591 29.7268 9.5463 29.6273 9.44373 29.5029C9.36681 29.3785 10.136 27.9358 11.1617 26.3189C12.9566 23.4334 13.854 22.2642 14.213 22.2642C14.5463 22.2642 18.854 29.2044 18.6745 29.478C18.5976 29.6024 18.0591 29.7268 17.5207 29.7268C16.9822 29.7268 16.4694 29.8014 16.4181 29.9258C16.2386 30.1994 16.1617 32.2889 16.213 36.9157L16.2386 40.9952L17.4181 40.8211C21.5207 40.2738 25.4181 36.6421 26.854 31.9904C27.3925 30.1994 27.3925 26.1945 26.854 24.1547C25.6232 19.5031 21.7771 15.747 17.3155 14.8266C15.495 14.4535 12.0591 14.5032 10.4181 14.9261Z" fill="url(#paint2_linear_86_4626)"/>
<defs>
<linearGradient id="paint0_linear_86_4626" x1="22.6249" y1="0.988688" x2="10.0894" y2="1.86367" gradientUnits="userSpaceOnUse">
<stop stop-color="#00ADEF"/>
<stop offset="1" stop-color="#8AC640"/>
</linearGradient>
<linearGradient id="paint1_linear_86_4626" x1="39.5269" y1="1.52407" x2="26.3886" y2="1.94254" gradientUnits="userSpaceOnUse">
<stop stop-color="#00ADEF"/>
<stop offset="1" stop-color="#8AC640"/>
</linearGradient>
<linearGradient id="paint2_linear_86_4626" x1="27.2578" y1="14.5752" x2="-0.928037" y2="16.6182" gradientUnits="userSpaceOnUse">
<stop stop-color="#00ADEF"/>
<stop offset="1" stop-color="#8AC640"/>
</linearGradient>
</defs>
</svg>
