<svg width="36" height="41" viewBox="0 0 36 41" fill="none" xmlns="http://www.w3.org/2000/svg">
<path d="M18.0028 26.9204C19.7079 26.9204 21.343 26.2431 22.5484 25.0374C23.7542 23.832 24.4314 22.1968 24.4314 20.4918C24.4314 18.7867 23.7541 17.1515 22.5484 15.9461C21.343 14.7404 19.7079 14.0632 18.0028 14.0632C16.2977 14.0632 14.6625 14.7405 13.4572 15.9461C12.2514 17.1515 11.5742 18.7867 11.5742 20.4918C11.5768 22.1959 12.255 23.8295 13.4601 25.0345C14.6652 26.2395 16.2987 26.9177 18.0028 26.9204ZM18.0028 21.2061C17.196 21.2077 16.4384 20.8193 15.969 20.1634C15.4996 19.5074 15.3762 18.6647 15.6383 17.9019C15.8093 17.4041 16.1303 16.9803 16.5476 16.6822C16.9473 16.3965 17.2885 15.9832 17.2885 15.4919C17.2885 15.0974 17.6084 14.7776 18.0028 14.7776C18.3973 14.7776 18.7171 15.0974 18.7171 15.4919C18.7171 15.9834 19.058 16.397 19.4577 16.683C19.665 16.8314 19.8497 17.0115 20.0044 17.2182C20.3259 17.6478 20.5006 18.1694 20.5029 18.7061C20.5029 19.1006 20.183 19.4204 19.7886 19.4204C19.3941 19.4204 19.0743 19.1006 19.0743 18.7061C19.0743 18.2728 18.8131 17.8821 18.4129 17.7163C18.0124 17.5505 17.5516 17.6421 17.2452 17.9485C16.9387 18.2549 16.8472 18.7157 17.013 19.1163C17.1788 19.5164 17.5695 19.7776 18.0028 19.7776C18.8096 19.776 19.5672 20.1644 20.0366 20.8203C20.506 21.4762 20.6294 22.319 20.3673 23.0818C20.1963 23.5795 19.8753 24.0033 19.4581 24.3015C19.0583 24.5872 18.7171 25.0005 18.7171 25.4918C18.7171 25.8863 18.3973 26.2061 18.0028 26.2061C17.6084 26.2061 17.2885 25.8863 17.2885 25.4918C17.2885 25.0003 16.9477 24.5867 16.548 24.3007C16.3407 24.1523 16.156 23.9722 16.0012 23.7654C15.6797 23.3359 15.505 22.8143 15.5028 22.2775C15.5028 21.8831 15.8226 21.5632 16.217 21.5632C16.6115 21.5632 16.9313 21.8831 16.9313 22.2775C16.9313 22.7109 17.1925 23.1015 17.5927 23.2673C17.9932 23.4331 18.454 23.3416 18.7604 23.0352C19.0669 22.7287 19.1584 22.268 18.9926 21.8674C18.8268 21.4672 18.4362 21.2061 18.0028 21.2061Z" fill="url(#paint0_linear_211_2457)"/>
<path d="M18.0029 31.2061C20.8444 31.2061 23.5698 30.0773 25.5791 28.068C27.5884 26.0588 28.7172 23.3334 28.7172 20.4918C28.7172 17.6502 27.5884 14.9248 25.5791 12.9155C23.5699 10.9063 20.8444 9.7775 18.0029 9.7775C15.1613 9.7775 12.4359 10.9063 10.4266 12.9155C8.41739 14.9248 7.28857 17.6502 7.28857 20.4918C7.29208 23.3324 8.42188 26.0556 10.4305 28.0642C12.439 30.0729 15.1623 31.2026 18.0029 31.2061ZM18.0029 12.6346C20.0867 12.6346 22.0852 13.4625 23.5587 14.936C25.0323 16.4095 25.86 18.4079 25.86 20.4918C25.86 22.5757 25.0322 24.5741 23.5587 26.0476C22.0852 27.5212 20.0868 28.3489 18.0029 28.3489C15.919 28.3489 13.9206 27.5211 12.447 26.0476C10.9735 24.5741 10.1457 22.5757 10.1457 20.4918C10.147 18.4083 10.9751 16.4105 12.4483 14.9373C13.9216 13.464 15.9194 12.6359 18.0029 12.6346Z" fill="url(#paint1_linear_211_2457)"/>
<path d="M18.0028 6.20616C18.0028 6.20612 18.0028 6.20605 18.0027 6.20605C15.8358 6.20162 13.6965 6.69231 11.7481 7.64057C11.7467 7.64128 11.7451 7.64165 11.7434 7.64165C11.7403 7.64165 11.7374 7.6403 11.7354 7.63798C11.3343 7.18043 10.7545 6.91875 10.1457 6.92035C9.57751 6.92035 9.0322 7.14611 8.63048 7.5479C8.22877 7.94969 8.00293 8.495 8.00293 9.06317C8.00293 9.63133 8.22869 10.1767 8.63048 10.5784C9.03227 10.9802 9.57758 11.206 10.1457 11.206C10.7139 11.206 11.2593 10.9802 11.661 10.5784C12.0627 10.1766 12.2886 9.63133 12.2886 9.06317C12.2908 9.00806 12.3158 8.95335 12.3654 8.92923C16.3346 6.99976 21.0191 7.23871 24.773 9.567C28.5534 11.9117 30.8556 16.0428 30.8597 20.4919V36.0767C30.8597 36.8062 29.9777 37.1715 29.4618 36.6557L29.2221 36.416C29.222 36.4159 29.222 36.4158 29.222 36.4157C29.222 36.4156 29.2219 36.4155 29.2219 36.4154C28.9416 36.1448 28.4962 36.149 28.2207 36.4245C27.9451 36.7 27.941 37.1454 28.2117 37.4258L31.0689 40.2829C31.3479 40.5616 31.8001 40.5616 32.0791 40.2829L34.9362 37.4258C35.207 37.1455 35.2028 36.7 34.9273 36.4245C34.6518 36.1489 34.2063 36.1448 33.926 36.4155C33.3217 37.02 32.2883 36.592 32.2883 35.7373V20.4919C32.2845 16.7043 30.7781 13.0729 28.0998 10.3948C25.4215 7.71667 21.7903 6.21015 18.0028 6.20627C18.0027 6.20627 18.0027 6.2062 18.0028 6.20616ZM10.1457 8.34891C10.2318 8.34764 10.317 8.36454 10.3957 8.39898C10.6748 8.5007 10.8607 8.76601 10.86 9.0632C10.86 9.35211 10.6859 9.61263 10.419 9.72296C10.1521 9.83361 9.84504 9.7727 9.64063 9.5683C9.43623 9.3639 9.37533 9.05682 9.48598 8.78992C9.59631 8.52302 9.85684 8.34891 10.1457 8.34891Z" fill="url(#paint2_linear_211_2457)"/>
<path d="M25.8602 33.349C25.8602 33.349 25.8602 33.349 25.8603 33.349C26.4285 33.3489 26.9738 33.1232 27.3755 32.7214C27.7772 32.3196 28.003 31.7743 28.003 31.2061C28.003 30.638 27.7772 30.0926 27.3755 29.6909C26.9737 29.2892 26.4284 29.0633 25.8602 29.0633C25.292 29.0633 24.7466 29.2891 24.3449 29.6909C23.9432 30.0927 23.7174 30.638 23.7174 31.2061C23.719 31.6347 23.5667 32.0929 23.1748 32.2662C21.5486 32.9856 19.7868 33.3557 18.0031 33.349C14.5939 33.3464 11.3251 31.9908 8.91491 29.5802C6.50421 27.1698 5.14862 23.901 5.14609 20.492V4.90722C5.14609 4.17769 6.02812 3.81234 6.54397 4.3282L6.78369 4.56792C6.78377 4.56799 6.78381 4.56809 6.78381 4.56819C6.78381 4.5683 6.78385 4.56839 6.78392 4.56847C7.06422 4.83908 7.50961 4.8349 7.78511 4.55942C8.06066 4.28392 8.06477 3.83844 7.79404 3.55812L4.9369 0.70097C4.65788 0.422268 4.20571 0.422268 3.92669 0.70097L1.06954 3.55812C0.798817 3.83841 0.802964 4.28388 1.07847 4.55942C1.35398 4.83497 1.79945 4.83908 2.07978 4.56835C2.68409 3.96393 3.7175 4.39192 3.7175 5.24662V20.492C3.72132 24.2796 5.2277 27.911 7.90599 30.5891C10.5843 33.2673 14.2156 34.7738 18.0031 34.7776C20.3149 34.7854 22.5923 34.2257 24.6356 33.1491C24.7356 33.0964 24.8548 33.0993 24.9572 33.147C25.2394 33.2787 25.5476 33.348 25.8602 33.349C25.8603 33.349 25.8603 33.349 25.8602 33.349ZM25.8602 30.4918C25.9383 30.4915 26.0161 30.5062 26.0888 30.5345C26.343 30.6206 26.5276 30.8416 26.5668 31.1072C26.606 31.3725 26.4932 31.6375 26.2744 31.7931C26.056 31.9488 25.7687 31.9688 25.5305 31.8451C25.2926 31.7211 25.144 31.4743 25.1459 31.2061V31.1847C25.1574 30.7986 25.474 30.4915 25.8602 30.4918Z" fill="url(#paint3_linear_211_2457)"/>
<defs>
<linearGradient id="paint0_linear_211_2457" x1="24.4314" y1="26.9204" x2="10.7143" y2="25.9261" gradientUnits="userSpaceOnUse">
<stop stop-color="#00ADEF"/>
<stop offset="1" stop-color="#8AC640"/>
</linearGradient>
<linearGradient id="paint1_linear_211_2457" x1="28.7172" y1="31.2061" x2="5.85544" y2="29.549" gradientUnits="userSpaceOnUse">
<stop stop-color="#00ADEF"/>
<stop offset="1" stop-color="#8AC640"/>
</linearGradient>
<linearGradient id="paint2_linear_211_2457" x1="35.1366" y1="40.4919" x2="6.13158" y2="38.8281" gradientUnits="userSpaceOnUse">
<stop stop-color="#00ADEF"/>
<stop offset="1" stop-color="#8AC640"/>
</linearGradient>
<linearGradient id="paint3_linear_211_2457" x1="28.003" y1="34.7777" x2="-1.00221" y2="33.1138" gradientUnits="userSpaceOnUse">
<stop stop-color="#00ADEF"/>
<stop offset="1" stop-color="#8AC640"/>
</linearGradient>
</defs>
</svg>
